<?xml version="1.0" standalone="no"?>
<!DOCTYPE svg PUBLIC "-//W3C//DTD SVG 1.1//EN" "http://www.w3.org/Graphics/SVG/1.1/DTD/svg11.dtd" >
<svg xmlns="http://www.w3.org/2000/svg">
<metadata>
This is a custom SVG webfont generated by Font Squirrel.
Copyright   : Copyright  1997 2002 Adobe Systems Incorporated  All Rights Reserved
Designer    : Garrett Boge
Foundry URL : httpwwwadobecomtype
</metadata>
<defs>
<font id="WendyLPStdBold" horiz-adv-x="835" >
<font-face units-per-em="2048" ascent="1096" descent="-952" />
<missing-glyph horiz-adv-x="532" />
<glyph unicode=" "  horiz-adv-x="532" />
<glyph unicode="&#x09;" horiz-adv-x="532" />
<glyph unicode="&#xa0;" horiz-adv-x="532" />
<glyph unicode="!" horiz-adv-x="479" d="M154 55q0 33 37.5 76t70.5 43q29 0 51.5 -23.5t22.5 -52.5q0 -41 -31 -81t-69 -40q-31 0 -56.5 23.5t-25.5 54.5zM170 475.5q0 20.5 1 50t1 37.5q0 266 25 615q2 29 20.5 49t46.5 20q18 0 33.5 -12t15.5 -31v-14q0 -88 -17 -267.5t-17 -273.5q0 -250 18 -295 q14 -14 14 -28q0 -20 -19.5 -36t-40 -16t-35.5 11.5t-23.5 34t-13.5 46t-7 56.5t-2 53.5z" />
<glyph unicode="&#x22;" horiz-adv-x="344" d="M41 903q0 125 8 217q2 23 19.5 40.5t40.5 17.5q47 0 47 -54q0 -283 -68 -282q-47 0 -47 61zM238 899q0 106 20 225q10 51 59 52q47 0 48 -56q0 -41 -27 -211q-12 -66 -55 -65q-20 0 -32.5 16t-12.5 39z" />
<glyph unicode="#" horiz-adv-x="1230" d="M102 365q0 25 15.5 40t40.5 15q18 0 32 -8q61 -25 218 -25h20q2 31 5 96.5t5 96.5h-51q-106 0 -182 -19q-16 -4 -23 -4q-23 0 -40 15.5t-17 37.5q0 20 13.5 34.5t39 23t52 12.5t63.5 4h60q24 0 54.5 -2t36.5 -2q12 135 41 213q16 43 64 43q23 0 38 -13.5t15 -35.5 q0 -25 -23.5 -105t-27.5 -108q39 -2 112.5 -6t112.5 -4q0 6 1 26.5t2 33.5t3 36.5t5.5 41t8.5 38t12 36t16.5 29t22.5 19.5t27 6q23 0 37.5 -14.5t14.5 -34.5q0 -39 -21.5 -113t-23.5 -106q139 4 202 28q14 6 31 6q25 0 40 -16t15 -41q0 -49 -47 -59q-80 -16 -248 -17 q-6 -156 -6 -157h97q184 0 184 -72q0 -23 -17.5 -38t-39.5 -15q-8 0 -25 4q-66 18 -207 18q-10 -131 -43 -221q-16 -43 -63 -43q-23 0 -38.5 13.5t-15.5 35.5q0 14 11 35q35 55 43 176l-228 -8q0 -2 -1 -25.5t-2 -33t-3 -34t-6 -38t-9 -35t-12.5 -32.5t-15.5 -23.5 t-21.5 -18.5t-27.5 -6q-23 0 -37 14.5t-14 34.5q0 12 8 29q23 51 35 164q-209 0 -273 16q-45 13 -45 62zM532 391q37 2 113 5t115 5q6 53 10 162q-39 2 -115.5 6t-113.5 4z" />
<glyph unicode="$" horiz-adv-x="665" d="M43 571q0 27 19.5 50.5t46 23.5t44 -19.5t19.5 -45.5q31 -16 102 -17q0 68 2 101q-2 0 -27.5 6t-36.5 9t-34.5 10t-36.5 16l-27 18q-15 10 -21.5 24.5t-6.5 30.5q0 55 68.5 100.5t138.5 61.5q-2 18 -2 53q0 113 65 113q51 0 52 -84q0 -25 -5 -74q57 -6 116 -38.5 t59 -82.5q0 -25 -17.5 -44t-42 -19t-56.5 33.5t-63 40.5q-6 -47 -6 -95l29 -10q29 -8 39 -12t36.5 -15.5t39.5 -20.5l28 -21q16 -12 23.5 -27.5t7.5 -32.5q0 -115 -219 -139q-2 -43 0 -119t2 -100.5t-18.5 -40t-43.5 -15.5q-59 0 -59 64q0 16 3 53t3 55v99q-221 6 -221 110z M207 795q4 -2 78 -25l4 66q-66 -21 -82 -41zM381 563q61 4 94 25q-41 29 -90 41q0 -21 -4 -66z" />
<glyph unicode="%" horiz-adv-x="1064" d="M47 752q0 100 81 224t173 124q86 0 105 -84q0 -2 94 -2q45 0 74.5 -2t66.5 -11.5t57.5 -27t36 -50t15.5 -77.5q0 -43 -25 -103.5t-48.5 -99.5t-71.5 -108.5t-56 -83.5q-188 -291 -189 -381q0 -16 31 -28.5t31 -43.5q0 -27 -21.5 -46.5t-48.5 -19.5q-49 0 -72.5 40 t-23.5 94q0 86 59.5 202.5t131 211.5t131 196.5t59.5 159.5q0 51 -48 68.5t-103.5 11t-96.5 -0.5q-18 -86 -95 -180t-157 -94q-45 0 -67.5 32t-22.5 79zM150 772q0 -6 6 -12h4q35 0 79 72.5t44 109.5q0 25 -15 25q-31 0 -74.5 -80t-43.5 -115zM563 141q0 102 80 195.5 t180 93.5q61 0 103.5 -34t42.5 -93q0 -106 -88 -196.5t-195 -90.5q-59 0 -91 33t-32 92zM682 160q0 -45 35 -45q51 0 91 54t40 105q0 47 -51 48q-45 0 -80 -57.5t-35 -104.5z" />
<glyph unicode="&#x26;" horiz-adv-x="1308" d="M66 217q0 66 38.5 125t105 104.5t125 76t124.5 55.5v14q2 16 -2 44t-4 40q0 98 21.5 192.5t65.5 181.5t124.5 140t185.5 53q88 0 146.5 -44t58.5 -130q0 -98 -86 -216t-184.5 -200t-194.5 -141q45 -88 208 -268.5t228 -180.5q20 0 66.5 32t64.5 52q-14 6 -56 10.5 t-69.5 16.5t-27.5 41q0 49 98 49q72 0 133 -25.5t61 -88.5q0 -78 -155 -154q55 -20 55 -64q0 -25 -19.5 -40t-43.5 -15q-37 0 -127 72l-15 -4q-254 -43 -354 -43q-379 0 -524 186q-47 61 -47 129zM188 215q0 -12 9 -37q47 -96 175 -133t267 -37q123 0 244 25 q-244 193 -394 434q-59 -25 -117.5 -56.5t-121 -88t-62.5 -107.5zM563 631q119 72 247 203t128 227q0 72 -86 72t-147.5 -44.5t-90 -118t-40 -146t-11.5 -152.5v-41z" />
<glyph unicode="'" horiz-adv-x="235" d="M41 901q0 98 22 223q10 51 57.5 51.5t47.5 -55.5q0 -41 -27 -211q-12 -66 -55 -65q-20 0 -32.5 17t-12.5 40z" />
<glyph unicode="(" horiz-adv-x="698" d="M23 426q0 315 181 560t482 384q12 4 19 4q16 0 31.5 -15.5t15.5 -31.5q0 -29 -31 -47q-162 -86 -182 -100q-193 -129 -303.5 -326t-110.5 -424q0 -477 428 -670q4 -2 26.5 -9t38 -14t36 -17.5t31.5 -21.5t11 -24q0 -45 -61 -45q-53 0 -148 39q-213 90 -338.5 304 t-125.5 454z" />
<glyph unicode=")" horiz-adv-x="698" d="M-164 -350q0 31 31 47q162 86 182 100q193 129 303.5 325.5t110.5 424.5q0 477 -428 670q-4 2 -26.5 9t-38 14t-36 17.5t-32 21.5t-11.5 24q0 45 62 45q53 0 147 -39q213 -90 339 -304t126 -454q0 -315 -181 -560t-482 -384q-12 -4 -19 -4q-18 0 -32.5 15.5t-14.5 31.5z " />
<glyph unicode="*" horiz-adv-x="362" d="M4 926q0 35 57 55q-43 39 -43 63q0 20 13.5 34t34.5 14q16 0 55 -29q8 78 59 78q35 0 42 -34t-1 -60l25 12q16 4 26 4q18 0 34 -13.5t16 -31.5q0 -35 -62 -62q45 -31 45 -59q0 -20 -13 -32.5t-34 -12.5q-23 0 -57 27q-10 -74 -54 -74q-55 0 -45 86q-33 -14 -49 -14 q-20 0 -34.5 14.5t-14.5 34.5z" />
<glyph unicode="+" d="M102 383v68q0 16 17 16h229v238q0 16 17 16h73q16 0 17 -16v-238h231q16 0 16 -16v-68q0 -16 -16 -16h-231v-238q0 -16 -17 -16h-73q-16 0 -17 16v238h-229q-17 0 -17 16z" />
<glyph unicode="," horiz-adv-x="333" d="M57 -84l109 342q10 39 47 39q23 0 37 -14.5t14 -36.5q0 -35 -41 -159t-63 -175q-20 -47 -58 -47q-18 0 -31.5 15.5t-13.5 35.5z" />
<glyph unicode="-" horiz-adv-x="604" d="M84 328q0 29 19.5 53.5t46.5 24.5q31 0 45 -27q8 -2 24 -2q35 0 106.5 7t106.5 7q104 0 105 -55q0 -57 -62 -57q-12 0 -40.5 4t-41.5 4q-35 0 -103.5 -8.5t-105.5 -8.5q-100 1 -100 58z" />
<glyph unicode="." horiz-adv-x="333" d="M59 29q0 33 31 72.5t62 39.5q12 0 22 -6q20 4 31 4q29 0 48 -17.5t19 -45.5q0 -43 -48 -81t-91 -38q-31 0 -52.5 20.5t-21.5 51.5z" />
<glyph unicode="/" horiz-adv-x="806" d="M-111 -131q0 49 215 347t336 448q43 57 135.5 167.5t135.5 167.5q106 137 125 177q2 4 9 17t10 19.5t10 17.5t14.5 16t17.5 9.5t23 4.5q18 0 35.5 -13.5t17.5 -32.5q0 -12 -12.5 -35.5t-33 -53t-38 -52t-40 -51.5t-24.5 -31q-27 -35 -191.5 -237.5t-224 -279.5 t-168 -231.5t-186.5 -285.5l-19 -39q-17 -35 -27.5 -49t-31 -30.5t-40.5 -16.5q-48 0 -48 47z" />
<glyph unicode="0" horiz-adv-x="1079" d="M16 463q0 244 156 434t395 190q145 0 243.5 -84.5t137.5 -204.5t39 -263q0 -231 -148.5 -397.5t-377.5 -166.5q-180 0 -312.5 154t-132.5 338zM119 471q0 -141 110.5 -268t249.5 -127q186 0 294 130t108 320q0 174 -85 311.5t-249 137.5q-180 0 -304 -159t-124 -345z" />
<glyph unicode="1" horiz-adv-x="393" d="M57 926q0 35 76 117.5t109 82.5q59 0 59 -73q0 -37 -4 -80t-11 -97.5t-10 -80.5q-33 -305 -32 -519v-30q0 -152 28 -193q18 -27 19 -43q0 -25 -18.5 -43t-41.5 -18q-100 0 -100 301q0 195 39 649q-25 -37 -55 -37q-25 0 -41.5 18.5t-16.5 45.5z" />
<glyph unicode="2" horiz-adv-x="1124" d="M12 8q0 47 53.5 71.5t128 41t97.5 31.5q80 51 163 115.5t179 152.5t156.5 184t60.5 178q0 96 -75 155.5t-173 59.5q-115 0 -265.5 -63.5t-193.5 -153.5q-23 -49 -61 -49q-25 0 -43.5 21.5t-18.5 46.5q0 18 17 47q80 111 259 189.5t322.5 78.5t249 -89t105.5 -228 q0 -88 -50.5 -183.5t-138.5 -185.5t-158.5 -149.5t-160.5 -126.5q137 0 469 -66q25 -4 33 -4q18 0 51 14.5t49 14.5q41 0 41 -43q0 -41 -54.5 -68t-99.5 -27q-33 0 -94 13q-250 61 -383 61q-166 0 -287 -59q-74 -37 -118 -37q-60 0 -60 57z" />
<glyph unicode="3" horiz-adv-x="1128" d="M-33 842q0 68 142.5 135t295 102t226.5 35q82 0 162.5 -22.5t147.5 -81t67 -142.5q0 -115 -123 -229q166 -78 166 -233q0 -131 -117 -251t-269.5 -183.5t-279.5 -63.5q-100 0 -227 51t-127 135q0 51 45 77t98 26q139 0 139 -66q0 -43 -49 -43q-10 0 -28.5 2t-26.5 2 q-31 0 -43 -14h4q29 -35 106.5 -52.5t139.5 -17.5q94 0 211.5 50.5t208 141.5t90.5 189q0 72 -49.5 115t-122.5 51q-240 -117 -328 -117q-39 0 -70.5 24.5t-31.5 63.5q0 51 53 87t124.5 47.5t145.5 16.5t113 -1q127 90 127 182q0 53 -49.5 89t-104.5 47.5t-108 11.5 q-102 0 -280.5 -50.5t-229.5 -111.5q4 -6 16 -16.5t18.5 -19.5t6.5 -22q0 -43 -47 -43q-45 0 -93.5 28t-48.5 71z" />
<glyph unicode="4" horiz-adv-x="1042" d="M14 473q0 39 13 72q23 63 165 209.5t304.5 270.5t226.5 124q43 0 66.5 -27.5t23.5 -70.5q0 -119 -9 -342.5t-11 -262.5q14 4 49 19.5t53 15.5q25 0 40 -17.5t15 -43.5q0 -20 -11 -33.5t-32.5 -21t-39 -11.5t-44 -6t-35.5 -4q-2 -63 -2 -377q0 -102 -69 -102 q-33 0 -53.5 24.5t-20.5 57.5q0 29 21 55q6 37 8 91t0 135t-2 98q-195 -37 -332 -37q-324 0 -324 184zM131 483q0 -94 227 -94q137 0 312 39q12 297 18 588q-131 -61 -344 -247t-213 -286z" />
<glyph unicode="5" horiz-adv-x="1085" d="M37 379q0 39 17.5 66.5t46 57t40.5 52.5q96 168 97 385q0 23 -5.5 68t-5.5 65q0 27 18.5 47.5t43.5 20.5l30 -6q63 -27 238 -27q162 0 307 27h15q23 0 37 -14.5t14 -37.5q0 -47 -53 -65q-66 -18 -373 -19q-106 0 -158 7q0 -207 -39 -332q117 63 246 63q102 0 201.5 -37.5 t171 -118.5t71.5 -188q0 -176 -172 -307t-354 -131q-86 0 -210 42t-124 107q0 29 21.5 46.5t50.5 17.5q25 0 63.5 -27.5t95 -55.5t126.5 -28q135 0 261 97.5t126 228.5q0 119 -106.5 186.5t-231.5 67.5q-156 0 -305 -139q-18 -18 -38 -66.5t-43.5 -81.5t-62.5 -33 q-57 1 -57 62z" />
<glyph unicode="6" horiz-adv-x="1105" d="M-4 356q0 233 130 445.5t341 300.5q90 37 178 37q80 0 167 -40t87 -110q0 -25 -17.5 -40t-41.5 -15q-29 0 -47.5 14.5t-30.5 30.5t-48 30.5t-93 14.5q-168 0 -300.5 -137t-179.5 -312q88 35 172 50q86 18 176 18q84 0 170 -16.5t173.5 -51t141.5 -102t54 -158.5 q0 -115 -84 -200.5t-195.5 -123.5t-222.5 -38q-125 0 -242.5 42t-202.5 137t-85 224zM111 381q0 -158 124.5 -245t288.5 -87q127 0 255 70.5t128 187.5q0 82 -77.5 138.5t-164.5 77t-165 20.5q-88 0 -213 -27t-168 -72q-8 -40 -8 -63z" />
<glyph unicode="7" horiz-adv-x="1044" d="M-47 989q0 27 20.5 44.5t46.5 17.5q29 0 56 -27q72 -66 270.5 -66t579.5 74q12 2 20 2q59 0 60 -53q0 -27 -21 -47q-311 -393 -436 -893q-18 -59 -68 -59q-25 0 -45 17t-20 42q0 8 4 25q111 352 399 841q-299 -51 -508 -51q-45 0 -94 4t-114.5 16.5t-107.5 41t-42 71.5z " />
<glyph unicode="8" horiz-adv-x="1103" d="M-20 850q0 84 102 182q84 80 228.5 119t287.5 39t282.5 -41t194.5 -137l10 -31q0 -20 -16 -31q39 -33 39 -73q0 -14 -11.5 -33t-33 -37.5t-46 -36.5t-59 -38.5t-61.5 -37t-64.5 -36t-58.5 -29.5l-51 -26l-35 -17q301 -139 301 -314q0 -78 -57.5 -141t-144.5 -98 t-173 -53.5t-157 -18.5q-76 0 -167 20.5t-173 76t-82 132.5q0 152 393 373q-6 2 -47 14.5t-59.5 19.5t-62.5 21.5t-69.5 26.5t-62.5 30.5t-59.5 37t-45 40t-32.5 46t-10 51.5zM92 856q0 -47 196.5 -130t272.5 -91q328 160 406 231h-41q-72 0 -72 56q0 37 33 51t74 12 q-158 106 -361 107q-133 0 -282.5 -47.5t-206.5 -139.5q-19 -33 -19 -49zM158 190q0 -61 118.5 -96t204.5 -35q47 0 109.5 12.5t128 35t109.5 64.5t44 93q0 78 -101 145.5t-210 106.5q-403 -228 -403 -326z" />
<glyph unicode="9" horiz-adv-x="1079" d="M14 678q0 131 96.5 261t239 209t271.5 79q184 0 294.5 -152.5t110.5 -343.5q0 -145 -66.5 -318t-197.5 -306.5t-283 -133.5q-53 0 -119.5 33t-66.5 82q0 27 23.5 45.5t52.5 18.5q31 0 57.5 -17.5t24.5 -46.5q25 -12 53 -12q104 0 204.5 124t147.5 246q43 111 49 211 q-111 -111 -254 -177t-293 -66q-139 0 -241.5 66.5t-102.5 197.5zM135 700q0 -96 68.5 -141t171.5 -45q143 0 272 68.5t201 187.5q25 41 51 53q-29 127 -97.5 215t-183.5 88q-150 0 -316.5 -140.5t-166.5 -285.5z" />
<glyph unicode=":" horiz-adv-x="395" d="M113 45q0 37 37.5 72t74.5 35q31 0 66 -19.5t35 -48.5q0 -39 -50.5 -73t-91.5 -34q-29 0 -50 20.5t-21 47.5zM113 428q0 41 40 85t78 44q29 0 55.5 -21.5t26.5 -50.5q0 -39 -50 -77.5t-91 -38.5q-27 0 -43 16t-16 43z" />
<glyph unicode=";" horiz-adv-x="395" d="M78 -111q0 8 26.5 74t56 140.5t36.5 89.5q10 35 47 34q20 0 34.5 -14t14.5 -35q0 -49 -115 -299q-20 -43 -53 -43q-20 0 -33.5 16.5t-13.5 36.5zM123 420q0 45 42 78.5t89 33.5q31 0 54.5 -18t23.5 -49q0 -43 -49.5 -75t-94.5 -32q-29 0 -47 17.5t-18 44.5z" />
<glyph unicode="&#x3c;" d="M96 373v82l10 14q55 27 311.5 142.5t264.5 115.5q14 0 14 -16v-74l-10 -14l-459 -209l459 -211l10 -15v-73q0 -16 -14 -17q-6 0 -270.5 120t-305.5 140z" />
<glyph unicode="=" d="M61 264v68q0 16 17 16h629q16 0 16 -16v-68q0 -16 -16 -16h-629q-17 0 -17 16zM61 494v67q0 16 17 17h629q16 0 16 -17v-67q0 -16 -16 -17h-629q-17 1 -17 17z" />
<glyph unicode="&#x3e;" d="M154 115v73l10 15l461 211l-461 209l-10 14v74q0 16 14 16q8 0 575 -258l11 -14v-82l-11 -15q-61 -29 -314 -144.5t-261 -115.5q-14 1 -14 17z" />
<glyph unicode="?" horiz-adv-x="897" d="M16 893q0 66 79 120t188.5 84.5t209 47t160.5 16.5q53 0 103.5 -8t101.5 -27.5t83 -59.5t32 -97q0 -70 -56.5 -147t-139.5 -144.5t-169 -130t-155.5 -124t-85.5 -106.5q29 2 88 17.5t90 15.5q49 0 49 -51q0 -29 -17.5 -51.5t-46.5 -22.5q-6 0 -22 3t-23 3q-18 0 -57 -9 t-59 -9q-49 0 -85 21.5t-36 68.5q0 51 62.5 116.5t151.5 132t178 134.5t151.5 140.5t62.5 131.5q0 61 -67.5 85t-145.5 24q-106 0 -248.5 -39t-224.5 -96q-33 -25 -33 -37q0 -33 58 -33q12 0 38.5 4t38.5 4q57 0 58 -41q0 -59 -152 -59q-57 0 -108.5 35t-51.5 88zM258 32.5 q0 26.5 9 43t17.5 21.5t35 14.5t36.5 13.5q20 10 39 10q27 0 42.5 -19.5t15.5 -47.5q0 -45 -32 -74t-77 -29q-29 0 -57.5 20.5t-28.5 47z" />
<glyph unicode="@" horiz-adv-x="1400" d="M-6 504q0 170 102 340q-8 10 -8 26q0 31 31 58q102 106 280.5 171.5t337.5 65.5q240 0 419 -146.5t179 -379.5q0 -190 -109.5 -351t-281.5 -249t-360 -88q-236 0 -413 160t-177 393zM98 522q0 -211 157 -336t372 -125q231 0 417.5 167t186.5 395q0 119 -60.5 217 t-166.5 155q-14 -31 -48 -30q-10 0 -99 41t-171 41q-225 0 -406.5 -152t-181.5 -373zM260 469q0 119 137.5 261t255.5 142q43 0 84 -26.5t41 -67.5q0 -25 -12 -39q4 -10 4 -30q0 -31 -14.5 -92.5t-14.5 -94.5q0 -45 22.5 -86t63.5 -41q82 0 195 193q12 29 41 28 q16 0 29.5 -12t13.5 -31q0 -6 -4 -18q-35 -102 -113 -179t-174 -77q-113 0 -160 111q-98 -121 -215 -121q-76 0 -128 52t-52 128zM371 469q0 -76 84 -76q61 0 116.5 64.5t65.5 132.5q2 10 3 37.5t3 46t10.5 41t20.5 35.5q-18 12 -43 12q-78 0 -169 -106.5t-91 -186.5z" />
<glyph unicode="A" horiz-adv-x="1570" d="M-63 319q0 20 16 37t39 17q14 0 31 -8q129 -49 421 -50q170 199 363 496q-12 119 -12 178q0 45 9 108.5t28.5 134.5t57.5 120t87 49q98 0 98 -160q0 -162 -155 -432q53 -289 182 -475q205 12 323 39q2 0 7.5 1t7.5 1q20 0 33.5 -15.5t13.5 -35.5q0 -43 -39 -60 q-12 -4 -130 -12t-140 -12q129 -113 270 -146q14 -4 41 -6t39 -6q49 -10 49 -55q0 -49 -61 -50q-135 0 -261.5 68t-218.5 178q-6 2 -20 2q-29 0 -81 -4t-71 -4q-154 -6 -311 -6h-72q-354 -406 -450 -406q-29 0 -53.5 18.5t-24.5 47.5q0 33 27 50q22 14 48 14q6 0 13 -1 q129 86 307 277q-411 -1 -411 108zM571 315q219 4 398 15q-86 164 -133 346q-101 -152 -265 -361zM895 1001l2 -24q72 158 72 250q0 29 -6 43q-33 -37 -50.5 -119t-17.5 -150z" />
<glyph unicode="B" horiz-adv-x="1466" d="M-211 887q0 57 76 100q215 104 508 165.5t547 61.5q66 0 125 -3t146 -18t148.5 -40t106.5 -75t45 -117q0 -106 -114.5 -199.5t-250.5 -151.5q82 -35 127 -105.5t45 -158.5q0 -174 -161.5 -291.5t-341.5 -117.5q-68 0 -161 29.5t-136 70.5v-27q0 -29 -16.5 -53.5 t-43.5 -24.5q-43 0 -55 66q-20 104 -21 432q-51 18 -51 68q0 53 64 88q4 39 11 134t14.5 170t17.5 128q8 31 22 43q-311 -68 -487 -170v-6q4 -80 -66 -80q-39 0 -68.5 21.5t-29.5 60.5zM481 365q0 -94 11 -213q20 12 47 12q47 0 62 -12.5t36 -59.5q12 -27 72.5 -42 t101.5 -15q131 0 250 87t119 214q0 92 -60.5 147.5t-154.5 61.5q-31 -8 -145.5 -45t-187.5 -54.5t-151 -25.5v-55zM485 1071q31 -12 31 -51q0 -35 -22 -395q129 33 327 32q102 0 152 -8q397 162 397 303q0 51 -50 88t-128 52.5t-138.5 21.5t-113.5 6q-215 0 -455 -49z" />
<glyph unicode="C" horiz-adv-x="1339" d="M-29 438q0 229 195.5 459.5t423.5 288.5q49 74 92 74q20 0 34.5 -15.5t14.5 -38.5q137 -4 219 -73.5t82 -202.5q0 -150 -101.5 -262.5t-248.5 -112.5q-109 0 -168 69.5t-59 180.5q0 115 59 244q-164 -76 -293 -250t-129 -346q0 -133 98.5 -231.5t227.5 -141.5t256 -43 q264 0 563 176q16 10 31 10q20 0 33.5 -14t13.5 -35q0 -31 -31 -53q-121 -82 -294 -131t-324 -49q-111 0 -229 31.5t-224.5 90t-174 156.5t-67.5 219zM561 817q0 -70 39 -117t107 -47q84 0 147.5 91.5t63.5 179.5q0 84 -55.5 130t-139.5 46q-16 0 -53 -4 q-109 -158 -109 -279z" />
<glyph unicode="D" horiz-adv-x="1587" d="M-135 684q0 76 71.5 137.5t181 98t196.5 57t161 29.5q41 121 98 120q27 0 42.5 -22.5t15.5 -48.5q0 -12 -4 -37q96 -2 198.5 -14.5t230.5 -46t225 -83t164.5 -135.5t67.5 -194q0 -98 -54 -183.5t-142 -143.5t-178 -97t-185 -62q-188 -47 -424 -51q2 -8 2 -24 q0 -29 -15 -50.5t-42 -21.5q-37 0 -57.5 31.5t-26.5 70.5q-100 14 -203.5 65.5t-103.5 133.5q0 57 70 57q35 0 57 -19.5t32.5 -43t45.5 -48t90 -32.5q-12 152 -12 229q0 276 77 547q-43 -6 -104 -21.5t-146 -42t-142.5 -66.5t-57.5 -81q0 -43 64.5 -53t128 -18.5t63.5 -49.5 q0 -49 -100 -49q-61 0 -120 11.5t-112 50.5t-53 100zM475 387q0 -217 27 -270q23 -2 63 -2q225 0 440.5 58t331.5 196q70 84 70 166q0 106 -92 185t-231.5 115.5t-261.5 53t-224 16.5q-27 0 -39 -2q-39 -70 -61.5 -233.5t-22.5 -282.5z" />
<glyph unicode="E" horiz-adv-x="1406" d="M-31 168q0 68 45 133.5t118 115.5t140.5 84t133.5 58q-61 16 -120 40t-126.5 60.5t-108.5 90t-41 114.5q0 86 73 150.5t183.5 95.5t207.5 44t179 13q195 0 372 -54t271 -181q16 -25 17 -43q0 -37 -37 -55.5t-76 -18.5q-72 0 -72 45q0 25 23 35q-61 90 -213 130t-295 40 q-115 0 -241 -24.5t-197 -77.5q-74 -53 -74 -101q0 -49 57.5 -95t144.5 -77t153.5 -49t117.5 -29q43 10 84 13q43 6 86 6q166 0 166 -76q0 -29 -22.5 -44t-51.5 -15q-31 0 -94 6t-94 6t-45 -2q-109 -12 -213 -49q-59 -20 -127 -56t-133.5 -95.5t-65.5 -115.5 q0 -53 94.5 -87.5t179.5 -43t150 -8.5q342 0 772 164q16 4 23 4q18 0 31.5 -13t13.5 -32q0 -63 -194.5 -117.5t-389 -79t-280.5 -24.5q-525 0 -525 215z" />
<glyph unicode="F" horiz-adv-x="1357" d="M-94 1018q0 27 14 47t41 20q23 0 35 -12t18 -27.5t32 -27.5t71 -12q123 0 346 75q51 143 117 144q18 0 32.5 -13.5t14.5 -31.5q0 -12 -13 -37q176 72 297 108q190 57 310 58q117 0 216 -61.5t99 -172.5q0 -61 -35 -115.5t-92 -54.5q-25 0 -44 15.5t-19 40t42 60.5t42 69 q0 55 -71 82.5t-138 27.5q-47 0 -107.5 -10t-109 -22.5t-121 -37t-110.5 -39t-115.5 -44t-98.5 -37.5q-43 -125 -43 -224q0 -80 27 -208q47 4 289.5 24.5t371.5 26.5h17q35 2 60.5 -12.5t25.5 -47.5q0 -29 -29 -52t-59 -23q-14 0 -43 9t-46 9q-111 0 -563 -35 q43 -176 43 -229q0 -141 -104.5 -204.5t-255.5 -63.5q-70 0 -143.5 20t-73.5 72q0 25 23.5 45t47.5 20q12 0 50 -20q43 -29 147 -29q197 0 197 139q0 68 -52 240q-20 -2 -142 -11.5t-185 -9.5q-182 0 -182 80q0 31 22.5 47.5t54.5 18.5q111 6 224 6q39 0 53 -37q66 0 131 6 q-20 119 -21 217q0 94 21 177q-225 -68 -338 -68q-68 0 -123 31t-55 94z" />
<glyph unicode="G" horiz-adv-x="1564" d="M0 283q0 102 66 194q152 213 429 339t554 126q328 0 327 -147q0 -70 -84 -133q63 -45 64 -127q0 -55 -17.5 -103.5t-58.5 -96.5t-68.5 -76t-89 -78t-78.5 -66l25 -49q16 -33 27 -48q244 127 372 127q63 0 64 -45q0 -25 -19.5 -40t-44.5 -15q-51 0 -161.5 -41t-165.5 -74 q84 -176 84 -305q0 -147 -85 -245.5t-231 -98.5q-104 0 -162.5 70.5t-58.5 177.5q0 231 303 426q-8 16 -26.5 49t-26.5 49q-115 -51 -217 -82q-125 -35 -227 -34q-115 0 -222.5 32.5t-189.5 114.5t-82 199zM127 293q0 -88 64.5 -148.5t144.5 -82t168 -21.5q195 0 383 102 l2 7q-51 102 -51 210q0 131 63 209q-16 12 -16 37q0 23 18.5 36t40.5 13q66 0 191 38t125 87q0 31 -83 45.5t-143 14.5q-104 0 -254.5 -41t-298 -109.5t-251 -175t-103.5 -221.5zM803 -461q0 -63 33.5 -111.5t95.5 -48.5q84 0 131 66t47 154q0 115 -72 270 q-94 -59 -164.5 -148.5t-70.5 -181.5zM952 391q0 -76 45 -178q90 53 163 132t73 161q0 29 -19.5 57.5t-48.5 28.5q-80 0 -146.5 -61.5t-66.5 -139.5z" />
<glyph unicode="H" horiz-adv-x="1521" d="M-152 635q0 55 36 111.5t89 56.5q25 0 44.5 -18.5t19.5 -43.5q0 -27 -36 -50t-36 -56q0 -63 95.5 -106.5t181.5 -55.5q0 137 15 368.5t42 278.5q18 33 57 33q53 0 54 -80q0 -16 -4 -53q-53 -293 -54 -469q0 -57 2 -88q74 -4 115 -4q324 0 625 96q2 18 6 151.5t10 234.5 t23.5 206.5t42.5 130.5q18 23 49 22q23 0 39 -17t16 -40q0 -12 -17.5 -48t-19.5 -50q-25 -113 -39 -572q41 8 62 11q37 4 59 4q37 0 71 -6.5t66.5 -28t32.5 -55.5q0 -25 -18.5 -45.5t-42.5 -20.5q-20 0 -61.5 21.5t-78.5 21.5q-33 0 -90 -12q-2 -29 -2 -86q0 -150 15 -219 q0 -6 4 -24.5t4 -29.5q0 -29 -19.5 -53t-48.5 -24q-16 0 -27.5 4t-18.5 14t-11 18.5t-5 23.5t-1 25v26v22l-7 289q-422 -92 -729 -93q0 -41 1 -120.5t1 -120.5q0 -6 2.5 -39t1 -55.5t-5.5 -51t-16 -44t-33 -15.5q-25 0 -42 18.5t-17 42.5q0 299 -6 398q-63 8 -124 23.5 t-126.5 45t-105.5 80.5t-40 117z" />
<glyph unicode="I" horiz-adv-x="940" d="M-25 63q0 76 52 76q23 0 34 -13t14 -29.5t21.5 -30t50.5 -13.5q49 0 244 56q-10 113 -10 202q0 238 76 752q-121 -16 -230 -16q-180 0 -180 77q0 31 34 58.5t64 27.5q25 0 37.5 -16t5.5 -39q23 -6 70 -6q88 0 217 18q16 115 76 115q45 0 45 -51q0 -14 -4 -51q74 8 170 8 q156 0 156 -74q0 -23 -18.5 -40t-41 -17t-68 13t-71.5 13q-80 0 -146 -8q-74 -322 -73 -686q0 -137 14 -252q94 14 205 15q154 0 153 -66q0 -25 -21.5 -43t-45.5 -18q-12 0 -74 10q-41 10 -76 10q-59 0 -114 -12q0 -49 -66 -49q-43 0 -57 30q-82 -27 -148 -43 q-88 -20 -151 -20q-144 -1 -144 112z" />
<glyph unicode="J" horiz-adv-x="1107" d="M-147 1006q0 141 118.5 216.5t268.5 75.5q385 0 555 -372q72 -158 94 -293q4 2 42 22.5t57.5 29.5t53 23.5t59 21.5t46.5 7q43 0 43 -39q0 -31 -35 -51q-16 -10 -50 -23.5t-42 -17.5q-76 -37 -162 -86q10 -109 10 -201q0 -137 -26.5 -255.5t-83 -224t-163 -167 t-249.5 -61.5q-96 0 -164.5 50t-68.5 142q0 96 61.5 208t159.5 213.5t189 178t182 140.5q-92 6 -192.5 21.5t-231.5 51t-231.5 84t-170 128.5t-69.5 178zM-31 997q0 -31 17 -59q90 -141 319.5 -207.5t458.5 -75.5q-53 229 -183 381t-345 152q-102 0 -184.5 -47.5 t-82.5 -143.5zM268 -174q0 -57 51.5 -88t113 -31t138.5 37q127 66 181.5 208t54.5 310q0 82 -14 189q-98 -68 -207 -163t-213.5 -230.5t-104.5 -231.5z" />
<glyph unicode="K" horiz-adv-x="1251" d="M-53 383q0 61 190 111q37 524 111 667q35 63 76 64q27 0 47 -17.5t20 -42t-26 -51.5q-80 -84 -119 -596q205 55 463 251t350 378q23 43 59 43q23 0 42.5 -17.5t19.5 -39.5q0 -14 -6 -29q-53 -137 -296 -327.5t-423 -280.5q59 -25 110 -71t86 -95t81 -103.5t92 -96.5 t122 -68.5t170 -26.5q18 0 58 6t61 6q63 0 63 -49q0 -68 -168 -68q-133 0 -236 36t-160.5 88t-110 114.5t-89 115t-92 88.5t-125.5 36q-35 0 -79 -11q-16 -285 -17 -317q0 -125 8 -156q23 -12 23 -43t-27.5 -52.5t-58.5 -21.5q-29 0 -44.5 19.5t-15.5 48.5q0 123 19 487 q-94 -25 -119 -24q-59 0 -59 45z" />
<glyph unicode="L" horiz-adv-x="1572" d="M-27 147q0 59 40 94t102 35q63 0 160.5 -30.5t218 -80.5t161.5 -65q16 53 30.5 118t20 108t15.5 123.5t14 111.5q-80 16 -154.5 40t-155.5 66t-139.5 92t-97 122.5t-38.5 158.5q0 70 36.5 107t104.5 37q49 0 110.5 -19.5t61.5 -58.5q0 -45 -62 -45q-16 0 -49 9t-51 9 q-31 0 -31 -39q0 -82 48.5 -150.5t124 -113.5t154.5 -72.5t157 -39.5q16 72 37.5 141t59.5 151t85 143.5t114.5 102.5t143.5 41q111 0 199 -85t88 -193q0 -94 -61.5 -179.5t-153.5 -138.5q-162 -98 -418 -98l-25 -148q-18 -111 -33.5 -185.5t-33.5 -145.5q227 -72 387 -72 q94 0 172 30.5t124 61.5t64 31q45 0 45 -45q0 -18 -16 -39q-129 -137 -402 -137q-182 0 -411 63q-96 -168 -281 -168q-139 0 -302 110.5t-163 241.5zM84 137q25 -86 150.5 -169t218.5 -83q111 0 168 115q-18 6 -109.5 39t-154 54.5t-138.5 41t-113 19.5q-22 -1 -22 -17z M870 653q14 -2 41 -2q98 0 196.5 32t175.5 105.5t77 176.5q0 70 -49 122t-117 52q-70 0 -128 -53.5t-97 -138.5t-62 -154.5t-37 -139.5z" />
<glyph unicode="M" horiz-adv-x="1757" d="M-102 922q0 59 67.5 102t128.5 43q111 0 161 -86t50 -205q0 -51 -5 -101t-19.5 -118t-20.5 -94.5t-31.5 -114.5t-27.5 -98q205 342 317 481q154 188 250 189q111 0 111 -181q0 -88 -37 -256q-37 -172 -37 -256q0 -6 1 -14t1 -14q4 6 18 28q8 18 45 95t60.5 124.5 t68.5 131.5t80 138t86.5 120.5t96.5 105.5t98 66.5t104 27.5q135 0 135 -143q0 -35 -7 -76t-15 -69.5t-23.5 -75.5t-21.5 -70q-53 -201 -53 -334q0 -76 37.5 -140.5t109.5 -64.5q51 0 51 -43q0 -51 -84 -51q-100 0 -165.5 73t-65.5 175q0 68 11 147.5t23.5 132t36.5 146.5 l33 135q18 70 19 94q0 45 -31 46q-33 0 -82 -33q-47 -33 -93 -82t-75.5 -86t-73 -115t-56.5 -104.5t-58 -121.5t-49 -106q-2 -4 -11.5 -24.5t-13.5 -28.5t-14 -27.5t-17.5 -28.5t-18.5 -25.5t-21.5 -25t-22.5 -17.5t-26.5 -13t-28.5 -4q-98 0 -99 149q0 37 5.5 75t14.5 90 t13 73q37 209 37 317q0 8 -4 21q-72 0 -193 -165t-246.5 -381t-158.5 -255q-27 -35 -60 -35q-55 0 -55 70q0 37 15.5 100.5t40 142t30.5 103.5q63 254 64 383q0 70 -27 128t-86 58q-37 0 -81 -36.5t-64 -36.5q-18 0 -29.5 13.5t-11.5 31.5z" />
<glyph unicode="N" horiz-adv-x="1382" d="M-168 985q0 23 12 37q47 74 144.5 130t183.5 56q141 0 213 -110.5t72 -257.5q0 -106 -25 -248q43 68 89 129t110.5 131t137.5 112t140 42q82 0 125 -67t43 -155q0 -98 -35 -260q-35 -186 -34 -262q0 -98 47 -164.5t141 -66.5q47 0 108.5 28.5t73.5 28.5q18 0 30.5 -12.5 t12.5 -30.5q0 -57 -92 -93t-162 -36q-131 0 -202.5 88t-71.5 221q0 94 33 275q31 197 30 274q0 109 -67.5 109t-147 -70t-148.5 -171t-120 -191.5t-78 -155.5q-18 -41 -29.5 -116t-19.5 -99q-16 -55 -65 -55q-59 0 -60 92q0 94 60.5 326.5t60.5 359.5q0 111 -43 205t-139 94 q-55 0 -103.5 -26.5t-75 -57.5t-55 -57.5t-47.5 -26.5q-20 0 -33.5 15.5t-13.5 35.5z" />
<glyph unicode="O" horiz-adv-x="1400" d="M-27 504q0 170 103 340q-8 10 -8 26q0 31 30 58q102 106 280.5 171.5t338.5 65.5q240 0 419 -146.5t179 -379.5q0 -190 -109.5 -351t-281.5 -249t-361 -88q-236 0 -413 160t-177 393zM78 522q0 -211 156.5 -336t371.5 -125q231 0 417.5 167t186.5 395q0 119 -60 217 t-167 155q-14 -31 -47 -30q-10 0 -99 41t-171 41q-225 0 -406.5 -152t-181.5 -373z" />
<glyph unicode="P" horiz-adv-x="1398" d="M-215 917.5q0 65.5 74 122.5q178 133 419.5 202t483.5 69q119 0 221 -15q109 -14 206 -57t171 -128t74 -193q0 -96 -66 -197q-115 -176 -333 -264t-453 -88q-94 0 -199 16q-14 -96 -14 -332q0 -84 -56 -84q-61 0 -61 111q0 135 22 338q-145 59 -145 137q0 57 50 89 t116 42q4 49 16.5 143.5t18.5 170t6 145.5v14q-233 -61 -367 -160q-66 -55 -67 -69q10 -20 105 -42t95 -63q0 -49 -90 -49q-72 0 -149.5 38t-77.5 103.5zM233 565q4 -6 43 -33l5 48q-30 -5 -48 -15zM389 508q119 -37 250 -37q127 0 279.5 47t276.5 151.5t124 237.5 q0 90 -58.5 154.5t-150.5 95.5t-178 44t-170 13q-160 0 -338 -36q16 -31 16 -91q0 -76 -16 -214t-18 -185q156 -16 155 -74q0 -43 -61 -43q-20 0 -58.5 7.5t-46.5 7.5q-6 -37 -6 -78z" />
<glyph unicode="Q" horiz-adv-x="1474" d="M-25 494q0 291 227.5 508t518.5 217q127 0 236.5 -50.5t154.5 -156.5q211 -115 211 -342q0 -147 -89 -303t-218 -244q8 -8 31.5 -39t36 -43t38 -25.5t54.5 -13.5q59 0 146 70.5t101 70.5q18 0 31.5 -16t13.5 -35q0 -57 -122.5 -129t-190.5 -72q-51 0 -100 27t-79 56.5 t-69 78.5q-102 -49 -188 -73q-98 -29 -199 -29q-233 0 -389 155t-156 388zM84 485q0 -186 134 -309t323 -123q139 0 305 86q-66 84 -160 84q-43 0 -68.5 -23.5t-42 -46t-36.5 -22.5q-23 0 -39.5 14.5t-16.5 34.5l2 10q43 137 236 138q137 0 231 -125q262 203 262 440 q0 156 -96 225q-16 -74 -57 -73q-10 0 -17.5 2t-12.5 9t-8 11t-4 16.5t-1 15.5v17v15q0 43 -21 57q-78 53 -262 53q-115 0 -205 -30q-12 -4 -20 -5q-18 0 -34.5 13.5t-16.5 31.5q0 49 100 71t182 22q45 0 131 -9q-45 16 -81 23q-43 6 -86 6q-246 0 -433.5 -190.5 t-187.5 -438.5z" />
<glyph unicode="R" horiz-adv-x="1523" d="M-182 772q0 88 114 182q158 125 391.5 190.5t458.5 65.5q80 0 165 -9t183.5 -36.5t174 -69.5t126 -113t50.5 -161q0 -94 -51.5 -183t-127 -154.5t-179 -126t-189.5 -97.5t-176 -67q281 -190 542 -191q37 0 92.5 11.5t69.5 11.5q47 0 47 -39q0 -45 -93 -64.5t-165 -19.5 q-289 0 -653 258q-43 -10 -106 -10q0 -29 7 -95.5t7 -101.5q0 -27 -16.5 -44.5t-43.5 -17.5q-53 0 -63 62q-8 43 -8 205q-66 8 -114 46t-48 99q0 59 51 97q44 33 94 33q8 0 17 -1q2 47 11 128t24.5 187.5t44 181.5t63.5 75q20 0 33.5 -15.5t13.5 -36.5q0 -14 -6 -28 q-70 -235 -70 -468v-26v-35q43 -23 166 -127q100 27 208 71t227.5 111.5t196.5 163t77 197.5q0 86 -65.5 148.5t-167 92t-191.5 42t-172 12.5q-201 0 -405.5 -54.5t-337.5 -162.5q-86 -68 -86 -113q0 -51 80.5 -71.5t162.5 -35t82 -51.5q0 -45 -61 -45q-55 0 -112.5 8.5 t-123 28t-107.5 62.5t-42 100zM311 319q0 -18 19.5 -35.5t40.5 -25.5v61q-12 6 -29 7q-15 -1 -31 -7z" />
<glyph unicode="S" horiz-adv-x="1341" d="M-59 842q0 86 94 150.5t232.5 94t255 44t200.5 14.5q61 0 139 -9.5t170 -31t153.5 -67.5t61.5 -109q0 -41 -39 -80t-78 -39q-25 0 -41 14.5t-16 38.5q0 20 39 70q-45 61 -173 88t-245 27q-143 0 -307 -32t-266 -91q-61 -35 -62 -72q0 -35 51.5 -68.5t123 -56t133 -38 t98.5 -19.5q74 -10 446 -31q57 -4 110.5 -13.5t119 -31t104.5 -64.5t39 -100q0 -59 -45 -111q-135 -172 -391 -285.5t-483 -113.5q-166 0 -286 88t-120 248q0 33 15.5 59.5t45.5 26.5q49 0 50 -78q0 -119 93 -177t220 -58q182 0 407.5 92t337.5 221q31 35 31 64 q0 37 -38 64.5t-75.5 38.5t-76.5 17q-96 14 -275.5 22.5t-323 31t-264.5 77.5q-165 79 -165 185z" />
<glyph unicode="T" horiz-adv-x="1089" d="M-215 1124q0 72 45 169.5t109 97.5q55 0 55 -76q0 -35 -13.5 -71t-43.5 -36q-16 0 -25 9q-14 -39 -14 -72q0 -59 39.5 -100t105.5 -59.5t120 -25t113 -6.5q152 0 365 37q0 6 3 49t7 72t12.5 67t27 57t44.5 19q25 0 44.5 -18t19.5 -43q0 -20 -12.5 -59t-14.5 -52 q-4 -25 -8 -73q66 12 197 43.5t235 50t199 18.5q51 0 101 -19.5t50 -62.5q0 -23 -19.5 -42t-39.5 -19q-10 0 -54 12.5t-77 12.5q-72 0 -157 -10.5t-145.5 -23t-158.5 -34t-147 -31.5q-8 -80 -14.5 -170t-9.5 -153.5t-5 -174t-2 -153.5v-175v-159q0 -29 -18.5 -52.5 t-45.5 -23.5q-31 0 -54.5 27t-23.5 59q0 14 10.5 37t10.5 35q2 25 2 297q4 326 31 586q-217 -37 -400 -37q-444 0 -444 276z" />
<glyph unicode="U" horiz-adv-x="1404" d="M-166 600v8q6 106 195.5 261t314.5 198q55 18 96 18q61 0 96 -36.5t35 -98.5q0 -96 -108.5 -382.5t-108.5 -422.5q0 -57 26 -101t79 -44q74 0 171 88t158.5 174t112.5 170q68 113 74 146l15 76q13 67 26.5 125.5t33 124t45 105.5t52.5 40q25 0 42 -19.5t17 -44.5 q0 -98 -76.5 -294.5t-76.5 -340.5q0 -43 6 -85t21.5 -86t48 -71.5t77.5 -27.5q57 0 120 45t75 45q41 0 41 -47q0 -61 -90 -107.5t-158 -46.5q-242 0 -254 330q-281 -408 -508 -408q-100 0 -148 67t-48 171q0 145 106.5 416.5t106.5 378.5q0 51 -41 51q-10 0 -41 -10 q-100 -37 -198.5 -119t-164.5 -178q16 -8 16 -31q0 -25 -53 -58.5t-82 -33.5q-23 0 -38 16t-13 39z" />
<glyph unicode="V" horiz-adv-x="1495" d="M-188 406q0 117 204 354q258 283 455 282q166 0 166 -256q0 -74 -14.5 -217t-14.5 -217q0 -379 221 -379q117 0 228.5 106.5t174 247t62.5 255.5q0 98 -44 172.5t-130 148.5q-20 20 -20 39q0 27 21.5 42t47.5 15q14 0 31 -10q92 -57 148.5 -167.5t56.5 -223.5 q0 -57 -14 -102q-27 -104 -76 -209t-121 -202t-172 -157.5t-209 -60.5q-315 0 -315 469q0 74 13 219t13 217q0 162 -80 162q-70 0 -193.5 -96.5t-220 -219t-96.5 -188.5q0 -12 5 -18q43 -8 43 -43q0 -25 -22.5 -37.5t-49.5 -12.5q-41 0 -69.5 23t-28.5 64z" />
<glyph unicode="W" horiz-adv-x="1689" d="M-174 623q0 152 107.5 267.5t256.5 115.5q98 0 152.5 -58.5t54.5 -159.5q0 -102 -65 -299q-66 -193 -66 -299q0 -59 22.5 -108t74 -49t117 52t124 134t99 146.5t69.5 119.5q2 23 0 64t-2 53q0 47 5 109.5t19.5 143.5t46 134t77.5 53q70 0 69 -90q0 -84 -50 -236.5 t-50 -232.5q0 -61 14 -128.5t43 -134t81 -109.5t120 -43q96 0 181 114.5t128 249.5t43 227q0 76 -22.5 133.5t-49 83t-49 49t-22.5 42.5q0 27 20.5 41t46.5 14q61 0 105.5 -65.5t61 -138.5t16.5 -134q0 -96 -36 -218t-96.5 -237.5t-155.5 -194.5t-200 -79q-127 0 -210 109.5 t-115 250.5q-82 -131 -208 -264t-224.5 -133t-148.5 84t-50 186q0 104 65 301q63 207 64 295q0 49 -34 84t-85 35q-35 0 -72 -16q-154 -74 -153 -264q0 -25 -17.5 -46.5t-40.5 -21.5q-25 0 -43 21.5t-18 46.5z" />
<glyph unicode="X" horiz-adv-x="1624" d="M37 831q0 27 14 48q59 100 167 177t214 77q53 0 98 -26t74 -60.5t56.5 -94t41 -101.5t32 -108.5t26.5 -91.5q27 33 97.5 118t107 131t90 116.5t94.5 132.5q12 16 28.5 47t24.5 43q20 33 51 33q25 0 44.5 -18.5t19.5 -43.5q0 -23 -106.5 -161t-260.5 -324l-151 -184 q63 -156 178 -259.5t266 -103.5q66 0 118 21.5t77.5 46t48 46t39.5 21.5q43 0 43 -45q0 -14 -10 -28q-53 -82 -141.5 -127t-190.5 -45q-315 0 -506 368q-98 -123 -206.5 -283.5t-158.5 -273.5q-29 -59 -75 -59q-23 0 -41.5 12t-18.5 33q0 18 15.5 45t40 58.5t30.5 41.5 q123 199 217 328q18 25 69.5 88t76.5 102l6 11q-20 76 -98 290q-70 197 -179 197q-61 0 -132.5 -54t-102.5 -114q33 -10 33 -41q0 -27 -29 -41t-57 -14q-31 0 -52.5 19t-21.5 50z" />
<glyph unicode="Y" horiz-adv-x="1165" d="M8 416q0 152 93.5 368.5t201.5 343.5q27 31 59 31q53 0 54 -55q0 -41 -32 -95q-31 -52 -68 -53h-3q-82 -119 -142 -258t-60 -252q0 -86 47 -138t133 -52q139 0 289.5 124t232.5 267q10 16 27.5 121.5t50.5 189.5t88 84q29 0 44 -19t15 -48q0 -111 -57 -238 q-41 -88 -41 -90q-4 -14 -4 -96q0 -57 20 -354q125 150 172 149q20 0 40 -13.5t20 -33.5q0 -63 -60 -66q-53 -37 -163 -186q2 -66 2 -197q0 -516 -209 -516q-78 0 -118 60.5t-40 140.5q0 209 256 535q-2 74 -15.5 213t-15.5 202q-113 -133 -264 -232t-293 -99 q-121 0 -190.5 70.5t-69.5 191.5zM707 -465q0 -37 13 -72.5t44 -35.5q100 0 100 401l-2 78q-155 -221 -155 -371z" />
<glyph unicode="Z" horiz-adv-x="1167" d="M-154 698q0 78 60 152q100 129 265 210t329 81q158 0 292 -91.5t134 -240.5q0 -203 -246 -436q182 -78 233 -223q193 78 271 77q68 0 67 -51q0 -25 -18.5 -42t-42.5 -17q-98 0 -254 -68l2 -8q0 -145 -93 -314t-244.5 -288t-301.5 -119q-72 0 -118 50t-46 122 q0 88 74 185.5t188.5 180.5t214 141t191.5 101q-37 131 -223 189q-156 -102 -258 -103q-47 0 -81 22.5t-34 67.5q0 70 77.5 105t157.5 35q53 0 119 -10q96 70 175 174t79 198q0 119 -103.5 190.5t-228.5 71.5q-92 0 -197.5 -37.5t-194.5 -109.5t-122 -156q-10 -20 -10 -41 q0 -29 51 -28q27 0 78 15t78 15q43 0 43 -39q0 -41 -83 -68.5t-136 -27.5q-63 0 -103.5 36t-40.5 99zM246 -502q0 -33 18.5 -53t50.5 -20q18 0 66 14q170 59 305 223t133 334q-72 -35 -154.5 -83t-184 -118.5t-168 -150.5t-66.5 -146z" />
<glyph unicode="[" horiz-adv-x="550" d="M143 -236v1590q0 12 10.5 22t22.5 10h305q12 0 19.5 -4t10.5 -15t4 -16t1 -22l-2 -16q0 -12 -10 -22.5t-23 -10.5h-231v-1442h231q12 0 19.5 -4t10.5 -15.5t4 -16.5t1 -21l-2 -17q0 -12 -10 -22t-23 -10h-305q-12 0 -22.5 10t-10.5 22z" />
<glyph unicode="\" horiz-adv-x="806" d="M-256 1214q0 18 17.5 32t35.5 14q14 0 24.5 -4.5t19.5 -16.5t13.5 -18.5t13.5 -24.5t11 -20q14 -27 33.5 -55.5t50.5 -68.5t41 -53q45 -57 136 -167.5t136 -167.5q139 -178 345 -462t206 -333q0 -20 -13 -33.5t-34 -13.5q-23 0 -43 16.5t-29.5 31.5t-25.5 48t-20 39 q-78 131 -186.5 285.5t-168 231.5t-224.5 279.5t-192 237.5q-147 178 -147 223z" />
<glyph unicode="]" horiz-adv-x="550" d="M-75 -232.5q-1 5.5 1 21.5v16q0 12 10.5 22.5t22.5 10.5h231v1442h-231q-12 0 -19.5 4t-10.5 15.5t-4 16.5t1 21v17q0 12 10.5 22t22.5 10h305q12 0 22.5 -10t10.5 -22v-1590q0 -12 -10.5 -22t-22.5 -10h-305q-12 0 -19.5 4t-10.5 15t-4 16.5z" />
<glyph unicode="^" d="M84 829q0 39 138 148.5t192 109.5q49 0 163.5 -108.5t114.5 -142.5q0 -51 -43 -52q-12 0 -36.5 13.5t-57.5 39t-57.5 45t-57 47t-37.5 32.5q-6 -4 -41.5 -31t-65.5 -47.5t-66.5 -45t-63.5 -39t-37 -14.5q-45 0 -45 45z" />
<glyph unicode="_" horiz-adv-x="1024" d="M0 -174h1024v-62h-1024v62z" />
<glyph unicode="`" horiz-adv-x="512" d="M88 889q0 23 13.5 39t35.5 16q16 0 57.5 -33.5t93.5 -85t56 -53.5q31 -27 31 -53q0 -20 -13.5 -32.5t-33.5 -12.5q-16 0 -59.5 33.5t-95.5 80t-60 52.5q-25 20 -25 49z" />
<glyph unicode="a" horiz-adv-x="692" d="M-76 154q0 127 120 275.5t243 148.5q43 0 79.5 -24t36.5 -62q0 -16 -10 -33q14 -14 15 -39q0 -18 -6.5 -57t-6.5 -58q0 -37 6.5 -72.5t28 -69.5t55.5 -34q47 0 82 38t53.5 85t42 85t48.5 38q41 0 41 -45v-13q-12 -106 -93 -198t-184 -92q-94 0 -149 94 q-92 -150 -222 -150q-76 0 -128 53.5t-52 129.5zM33 164q0 -37 22.5 -61.5t59.5 -24.5q66 0 118 73.5t52 143.5q0 12 -3 34.5t-3 32.5q0 59 24 95q-16 10 -37 10q-74 0 -153.5 -112.5t-79.5 -190.5z" />
<glyph unicode="b" horiz-adv-x="624" d="M-31 303q0 70 23.5 199t64.5 268t108.5 240.5t141.5 101.5q68 0 99.5 -59.5t31.5 -130.5q0 -152 -109.5 -322t-250.5 -305q0 -68 23.5 -138.5t76.5 -70.5q39 0 81 44t60 89q-66 45 -65 143q0 33 27.5 60t60.5 27q45 0 72.5 -33t27.5 -80q0 -29 -6 -57q8 -2 25 -3 q51 0 88 21.5t58.5 44.5t39.5 23q16 0 28.5 -12.5t12.5 -28.5q0 -12 -6 -25q-39 -66 -115 -95q-54 -21 -109 -21q-23 0 -46 3q-98 -209 -254 -209q-57 0 -97.5 32t-58.5 86.5t-25.5 103.5t-7.5 104zM84 432q100 104 173 235.5t73 250.5q0 80 -35 81q-70 -45 -129 -232.5 t-82 -334.5z" />
<glyph unicode="c" horiz-adv-x="614" d="M-33 303q0 129 95.5 257t220.5 128q47 0 92 -37q25 2 36 -16.5t7 -42.5q12 -33 12 -84q0 -63 -22.5 -135t-69.5 -72q-59 0 -59 119q0 76 26 137q-20 25 -45 25q-74 0 -128 -90.5t-54 -167.5q0 -92 56 -149.5t148.5 -57.5t174.5 63.5t133 153.5l2 4q18 25 41 24 q43 0 43 -45q0 -8 -4 -24q-45 -111 -169 -194t-245 -83q-123 0 -207 82t-84 205z" />
<glyph unicode="d" horiz-adv-x="684" d="M-53 184q0 133 83 288t203 157q18 0 29 -2q6 51 17.5 110.5t33 136t59.5 126t85 49.5q100 0 100 -197q0 -225 -164 -565q41 -139 113 -140q39 0 70.5 34t48 74t38 73.5t44.5 33.5q18 0 30.5 -14t12.5 -33q0 -12 -2 -16q-31 -100 -95.5 -180t-152.5 -80q-111 0 -185 121 q-115 -156 -235 -156q-70 0 -101.5 53t-31.5 127zM53 207q0 -96 53 -96q63 0 170 163q-20 84 -20 226v8q-25 16 -35 16q-55 0 -111.5 -122.5t-56.5 -194.5zM360 496q0 -8 1 -23.5t1 -21.5q94 219 95 389q0 51 -8 90q-43 -70 -66 -199t-23 -235z" />
<glyph unicode="e" horiz-adv-x="471" d="M-29 311q0 115 70 220.5t176 105.5q53 0 83 -35t30 -88q0 -92 -76 -168t-168 -80q23 -100 121 -100q53 0 103 30.5t78 61.5t69 86q16 23 37 23q18 0 30.5 -13.5t12.5 -31.5q0 -14 -7 -23q-45 -94 -142 -168t-193 -74q-102 0 -163 75t-61 179zM82 377q16 -4 24 -4 q41 0 82 38t41 78q0 14 -8 33t-20 19q-47 0 -80 -55.5t-39 -108.5z" />
<glyph unicode="f" horiz-adv-x="581" d="M-88 301q0 63 76 94q6 82 28.5 197t63.5 250t108.5 227t147.5 92q63 0 96 -44t33 -109q0 -197 -289 -596q168 -16 264 -160q23 8 87.5 63.5t78.5 55.5q18 0 31.5 -13.5t13.5 -31.5q0 -39 -61.5 -91.5t-112.5 -74.5q14 -57 15 -103q0 -121 -71 -220t-188 -99 q-256 0 -262 471q-59 39 -59 92zM74 166q16 -322 192 -322q59 0 91 70t32 135q0 49 -14 86q-47 -6 -90 -6q-96 0 -211 37zM80 281l6 -5q91 -49 195 -49h16l33 2q-113 76 -193 76q-55 1 -57 -24zM96 479q92 119 180.5 273.5t88.5 253.5q0 51 -33 51q-14 0 -35 -17 q-76 -61 -128.5 -235t-72.5 -326z" />
<glyph unicode="g" horiz-adv-x="700" d="M-61 -418q0 72 35.5 140.5t103 130t121 100.5t127.5 86q-2 14 -7.5 48t-7.5 52q-98 -66 -188 -65q-74 0 -119 45t-45 119q0 137 136 290.5t274 153.5q59 0 91 -38q25 -30 25 -74q0 -11 -2 -23q12 -25 13 -66q0 -76 -41 -155.5t-41 -102.5q0 -25 10 -127q133 88 256 244 q16 23 41 22q18 0 31.5 -13t13.5 -32q0 -61 -119 -165.5t-211 -161.5q35 -229 35 -283q0 -141 -78 -262t-211 -121q-96 0 -169.5 81t-73.5 177zM35 -418q0 -61 50 -111.5t112 -50.5q84 0 143 111q29 55 29 172q0 88 -27 229q-307 -180 -307 -350zM66 244q0 -68 77.5 -68 t161.5 84q2 55 9.5 95t15.5 61.5t27.5 65.5t33.5 79q0 20 -33 21q-98 0 -195 -118t-97 -220z" />
<glyph unicode="h" horiz-adv-x="616" d="M-55 -27q0 10 2 15q20 98 20 264q0 74 7.5 173t29 241.5t52 258t88 197.5t128.5 82q100 0 101 -162q0 -166 -82 -332.5t-211 -301.5l-8 -111q109 176 184 176q57 0 85 -47t31 -103.5t18.5 -103.5t47.5 -47q41 0 73 29.5t47 64.5t34.5 64.5t40 29.5t33 -15t12.5 -36 q0 -74 -88 -158.5t-162 -84.5q-78 0 -110.5 48t-44 132t-27.5 114q-59 -27 -111.5 -145.5t-71.5 -212.5l-12 -40q-4 -13 -19.5 -27.5t-37.5 -14.5q-20 0 -34.5 15t-14.5 38zM84 543q186 248 186 471q0 51 -12 80q-61 -55 -108.5 -232.5t-65.5 -318.5z" />
<glyph unicode="i" horiz-adv-x="346" d="M-41 205q0 39 3 79t11.5 99t30 97t53.5 38q23 0 36 -15.5t13 -37.5q0 -27 -19 -117t-19 -137q0 -92 51 -92q86 0 205 217q20 29 45 29q18 0 30.5 -12.5t12.5 -30.5q0 -53 -65.5 -136.5t-123.5 -128.5q-59 -43 -127 -43q-137 1 -137 191zM20 672q0 51 29 98t78 47 q33 0 51.5 -25.5t18.5 -60.5q0 -47 -32 -84t-77 -37q-29 0 -48.5 16.5t-19.5 45.5z" />
<glyph unicode="j" horiz-adv-x="339" d="M-315 -467q0 129 95 258t224 234q-41 172 -41 288q0 39 6 78t30 76t60 37q27 0 44.5 -18.5t17.5 -45t-19.5 -80t-19.5 -88.5q0 -78 24 -172q117 98 205 242q20 31 45 31q20 0 33.5 -15.5t13.5 -33.5q0 -51 -101 -162t-167 -164q55 -233 55 -346q0 -139 -74.5 -244.5 t-207.5 -105.5q-98 0 -160.5 65.5t-62.5 165.5zM-213 -469q0 -63 37 -97t100 -34q84 0 121 63.5t37 153.5q0 96 -51 305q-96 -80 -170 -185.5t-74 -205.5zM39 700q0 47 28.5 90.5t73.5 43.5q33 0 50.5 -25t17.5 -57q0 -45 -31 -81t-74 -36q-65 -1 -65 65z" />
<glyph unicode="k" horiz-adv-x="681" d="M-63 123q0 55 16 135t18 104q4 27 5 75t4 67q23 322 22 348q0 25 -4 76t-4 77.5t16.5 45t40.5 18.5q10 0 19.5 -4t15.5 -12.5t10 -16.5t7 -21.5t5.5 -22.5t2.5 -24v-23v-20v-18q0 -35 -17 -297q37 51 80 82q51 37 107 37q78 0 127 -69.5t49 -151.5q0 -78 -57.5 -169 t-127.5 -124q57 -68 129 -68q68 0 130.5 53.5t105.5 105.5t61.5 52t31.5 -15t13 -34q0 -14 -10 -30q-141 -242 -325 -242q-100 0 -199.5 75.5t-128.5 174.5q-8 -160 -8 -240q0 -98 -64 -98q-71 0 -71 174zM88 369q16 16 47 16q33 0 52.5 -40t41.5 -40q41 0 77 70.5t36 118.5 q0 49 -20.5 91t-65.5 42q-51 0 -101.5 -94t-66.5 -164z" />
<glyph unicode="l" horiz-adv-x="407" d="M-31 395q0 66 16.5 175.5t46 233.5t86 212t124.5 88q53 0 81.5 -47t28.5 -105q0 -143 -79.5 -319t-188.5 -314q41 -195 129 -194q41 0 75 36t51 79t39.5 78.5t45.5 35.5q41 0 41 -47q0 -94 -88 -191.5t-184 -97.5q-86 0 -139.5 68t-69 145.5t-15.5 163.5zM78 479 q66 104 121 233.5t55 219.5q0 43 -18 61q-6 -2 -19 -10q-66 -61 -100.5 -216t-38.5 -288z" />
<glyph unicode="m" horiz-adv-x="962" d="M-109 76q0 8 36 124.5t42 145.5q2 6 5 30.5t6.5 42t9.5 44t14 46t17.5 38t23.5 28t31 9.5q59 0 59 -66q0 -16 -26 -96q78 82 165 82q55 0 87 -35t38 -90q113 137 187 137q55 0 81.5 -58.5t29.5 -127t21.5 -127t57.5 -58.5q35 0 68 34t51 73t44 72.5t50 33.5 q18 0 31.5 -14t13.5 -33q0 -8 -4 -20q-37 -92 -110.5 -171t-157.5 -79q-68 0 -108 50t-48 110.5t-17 124t-22 80.5q-45 -8 -125 -124t-90 -169q-10 -59 -59 -60q-20 0 -34.5 15.5t-14.5 35.5q0 23 22.5 97.5t22.5 124.5q0 78 -39 77q-63 0 -140 -116.5t-98 -196.5 q-18 -72 -63 -72q-23 0 -40.5 17.5t-17.5 40.5z" />
<glyph unicode="n" horiz-adv-x="681" d="M-88 82q0 18 22 49q16 23 26.5 97.5t10.5 119.5q0 23 -9 69t-9 66q0 29 19.5 47.5t45.5 18.5q16 0 28.5 -9.5t20 -28.5t12.5 -36.5t6 -46.5t1 -44v-43v-30q115 129 203 129q61 0 86 -55q22 -49 22 -107q0 -7 -1 -15q-1 -12 0 -24q0 -52 11 -98q13 -55 56 -55 q51 0 95 68.5t80 137t64 68.5q43 0 43 -47q0 -10 -4 -26q-37 -104 -121.5 -209t-173.5 -105q-55 0 -88.5 21.5t-46 61.5t-17.5 80t-8 91.5t-10 79.5q-4 25 -20 25q-27 0 -71 -46t-80.5 -102.5t-74.5 -102.5t-57 -46q-23 0 -42 12t-19 35z" />
<glyph unicode="o" horiz-adv-x="694" d="M-49 225q0 131 105.5 223.5t238.5 92.5q98 0 119 -33h3q57 0 91 -63q35 -65 35 -128q0 -27 -6 -53q47 0 81.5 23.5t57 46t37.5 22.5q16 0 28.5 -12t12.5 -29q0 -68 -91 -110q-77 -36 -140 -36q-12 0 -23 1q-43 -82 -133.5 -135t-182.5 -53q-100 0 -166.5 71.5 t-66.5 171.5zM68 231q0 -63 37.5 -110t99.5 -47q53 0 106.5 39t85.5 90q-129 82 -129 192q0 31 8 49q-90 -4 -149 -63.5t-59 -149.5zM360 399q0 -59 74 -108q2 12 2 35q0 27 -19.5 66.5t-41.5 39.5q-15 0 -15 -33z" />
<glyph unicode="p" horiz-adv-x="675" d="M-162 -182q0 313 148 530q2 10 2 33q0 117 -23 240q-2 4 -2 12q0 23 18.5 43t41.5 20q14 0 24 -9t16.5 -26.5t10.5 -36t7 -43t3 -41t1 -38t1 -25.5q121 98 244 98q113 0 169 -75.5t56 -190.5q0 -35 -12 -67q10 8 41.5 39.5t59.5 54t44.5 22.5t30.5 -13t14 -32 q0 -14 -8 -24q-61 -100 -185 -160.5t-249 -60.5q-102 0 -201 41q0 -16 -1 -97.5t-2 -145t-4 -144t-8 -141t-14 -89.5q-18 -57 -65 -57q-43 0 -76 46t-49 112.5t-24.5 125t-8.5 99.5zM-61 -147q0 -180 41 -263q16 215 16 568q-31 -70 -43 -150q-14 -71 -14 -155zM88 287 q0 -35 2 -47q8 -31 64.5 -48.5t99.5 -17.5q74 0 131 26.5t57 90.5q0 70 -35.5 122t-101.5 52q-55 0 -132 -42t-83 -91q-2 -14 -2 -45z" />
<glyph unicode="q" horiz-adv-x="677" d="M-51 213q0 80 55 185.5t121 146.5q51 35 125 35q66 0 119 -37q61 -12 61 -84q0 -61 -53 -189q29 -37 80 -37q49 0 92 20.5t66.5 46.5t47 46.5t39.5 20.5q18 0 30.5 -12.5t12.5 -30.5q0 -59 -95 -118t-165 -69q104 -170 105 -336q0 -100 -58.5 -210.5t-150.5 -110.5 q-59 0 -100 49t-58.5 127t-23.5 139.5t-6 122.5q0 86 8 154q-53 -29 -99 -29q-68 0 -110.5 50t-42.5 120zM57 223q0 -70 52 -69q68 0 112 67q-8 16 -8 31q0 49 49 59q2 6 14.5 35t20.5 52.5t8 29.5q0 20 -21.5 33.5t-41.5 13.5q-76 0 -130.5 -85t-54.5 -167zM299 -94 q0 -78 23.5 -197t70.5 -119q39 0 66.5 72t27.5 119q0 84 -52 213t-116 158q-20 -117 -20 -246z" />
<glyph unicode="r" horiz-adv-x="546" d="M-33 303q0 16 13 41q-8 16 -9 39q0 59 39 151.5t88 92.5q20 0 34.5 -18.5t14.5 -39.5q0 -23 -7 -48t-12 -39.5t-20.5 -48.5t-19.5 -40q4 0 8 -1t6 -1q43 0 71 25.5t38 55.5t29.5 55.5t48.5 25.5q23 0 36 -17.5t13 -39.5q0 -29 -33 -66q-12 -14 -24.5 -86t-12.5 -104 q0 -111 72 -111q45 0 82 35t56.5 77t44 76.5t46.5 34.5q16 0 29.5 -12t13.5 -29q0 -6 -4 -14q-33 -106 -115.5 -193.5t-183.5 -87.5q-143 0 -143 191q0 63 8 112q-60 -34 -106 -33q-7 0 -15 1q-14 -25 -39 -25q-18 0 -32.5 11.5t-14.5 29.5z" />
<glyph unicode="s" horiz-adv-x="471" d="M-23 301q0 23 9.5 48.5t26 57t20.5 44.5q-14 31 -15 71q0 51 35 117t82 66q51 0 51 -66q0 -49 -36 -160q10 -10 46.5 -43t55 -51t45.5 -49t42 -60.5t21 -60.5q51 51 101 135q14 25 37 25q39 0 39 -41q0 -51 -70 -133t-123 -115q-27 -49 -82 -82t-110.5 -33t-112.5 29 t-57 78q0 18 12 32.5t31 14.5q8 0 44.5 -16.5t67.5 -16.5q68 0 119 39q8 16 8 43q0 12 -3 24.5t-11 26t-15.5 23.5t-20.5 24.5t-21.5 22.5t-24.5 23.5t-22.5 20.5t-23 18.5t-18.5 15.5q-2 -2 -11 -21.5t-16 -31t-17.5 -26.5t-21.5 -23.5t-22 -8.5q-39 0 -39 39z" />
<glyph unicode="t" horiz-adv-x="419" d="M-150 696q0 41 58 49q29 4 51.5 4.5t38.5 -4.5q16 53 35.5 103.5t61.5 103t85 52.5q90 0 90 -181q0 -41 -6 -82h33q29 0 47 -2t42 -6t36 -15t12 -28q0 -18 -13 -31.5t-32 -13.5h-147q-23 -70 -84.5 -182.5t-77.5 -151.5l-2 -4q2 -47 31.5 -97t72.5 -50t85 32.5t68.5 70.5 t55.5 71t49 33q18 0 30.5 -15.5t12.5 -36.5q0 -12 -8 -28q-49 -88 -139 -166t-174 -78q-205 0 -205 371q0 115 18 231q-125 0 -125 51zM53 430q47 102 86 213h-61q-25 -119 -25 -213zM98 741h66q10 45 10 80q0 37 -8 64q-41 -66 -68 -144z" />
<glyph unicode="u" horiz-adv-x="747" d="M-45 201q0 59 24.5 150t55.5 143q20 31 57 30q23 0 38 -15t15 -38q0 -18 -42 -105t-42 -159q0 -100 62 -101q45 0 99 45.5t91 94.5q2 72 34 161t87 89q27 0 42.5 -22.5t15.5 -51.5q0 -45 -31 -102.5t-35 -69.5q18 -115 94 -115q43 0 83 34t64.5 74t52.5 73.5t50 33.5 q16 0 29.5 -13t13.5 -30q0 -12 -6 -22q-39 -86 -126 -173t-165 -87q-53 0 -101 30.5t-73 79.5q-147 -133 -240 -133q-78 0 -112.5 57.5t-34.5 141.5z" />
<glyph unicode="v" horiz-adv-x="612" d="M-47 227q0 80 41 203t104 123q20 0 36 -16.5t16 -34.5q0 -6 -20.5 -51t-41 -106.5t-20.5 -113.5q0 -45 20.5 -88t58.5 -43q37 0 85.5 60.5t48.5 99.5q0 6 -18.5 55.5t-18.5 85.5q0 117 71 117q86 0 86 -147q0 -35 -6 -70q39 -35 84 -35q31 0 55.5 15.5t37 35t27.5 35 t32 15.5q43 0 43 -41q0 -63 -68.5 -112.5t-134.5 -49.5q-55 0 -106 29q-31 -78 -94.5 -134.5t-139.5 -56.5q-92 0 -135 64.5t-43 160.5z" />
<glyph unicode="w" horiz-adv-x="952" d="M-68 143q0 92 49.5 237.5t120.5 145.5q25 0 44.5 -16t19.5 -41l-60 -125q-57 -123 -57 -182q0 -55 27 -56q41 0 106.5 71t69.5 114l2 24q2 23 3 30t4 29.5t6 34t9.5 31t13.5 28.5t16 20.5t22.5 16.5t27.5 5q51 0 52 -70q0 -35 -21.5 -98t-21.5 -96q0 -47 25.5 -93.5 t70.5 -46.5q61 0 114 89q-27 37 -26 100q0 55 27.5 123.5t74.5 68.5q61 0 62 -112q0 -47 -17 -137q20 -10 56 -11q49 0 88 20.5t57 46t38.5 46t39 20.5t32 -14t13.5 -31q0 -10 -6 -22q-31 -72 -113 -120t-162 -48q-43 0 -84 12q-88 -137 -209 -137q-57 0 -105 34t-71 89 q-109 -117 -200 -117q-66 0 -102 35.5t-36 101.5z" />
<glyph unicode="x" horiz-adv-x="686" d="M-154 -211q0 10 9 27l4 6q37 55 119.5 155.5t117.5 151.5q-55 55 -102 144t-47 155q0 29 15 51.5t42 22.5q29 0 45.5 -18.5t21.5 -38t10 -53.5t9 -46q18 -68 72 -125q41 66 174 297q20 35 51 35q49 0 49 -41q0 -16 -16.5 -52t-45 -85t-53 -88t-54 -86t-34.5 -54 q63 -63 144 -63q72 0 131 40t90 89t63.5 89t57.5 40q35 0 35 -37q0 -16 -11 -37q-53 -119 -157.5 -203.5t-223.5 -84.5q-109 0 -202 77q-29 -41 -92.5 -124t-94.5 -130q-41 -70 -73 -69q-20 0 -37 16t-17 39z" />
<glyph unicode="y" horiz-adv-x="702" d="M-117 -440q0 76 43 153.5t115 142t137.5 110.5t138.5 89q-4 10 -14 47q-131 -106 -240 -106q-61 0 -103 39t-42 100q0 78 60.5 216t123.5 138q20 0 32.5 -13t12.5 -34q0 -39 -32 -51q-88 -139 -88 -231q0 -57 63 -58q51 0 106.5 36t88.5 83v39q0 78 28.5 170t87.5 92 q53 0 54 -90q0 -51 -26 -121.5t-26 -105.5q0 -37 15 -86q186 113 254 221q18 31 45 31q43 0 43 -49q0 -55 -111.5 -150.5t-202.5 -151.5q84 -248 84 -411q0 -301 -319 -301q-135 0 -231.5 61.5t-96.5 190.5zM-4 -438q0 -158 242 -158q100 0 145 41t45 141q0 139 -82 377 q-133 -76 -241.5 -181t-108.5 -220z" />
<glyph unicode="z" horiz-adv-x="686" d="M-211 -541q0 223 651 598q-14 68 -88 68q-53 0 -147 -69.5t-139 -69.5q-20 0 -34 15t-14 36q0 41 52.5 78t123 71.5t93.5 55.5q88 84 88 151q0 35 -28 55.5t-62 20.5q-61 0 -112.5 -50t-89.5 -99.5t-65 -49.5q-18 0 -29.5 13.5t-11.5 32t11 34.5q41 88 130 159t177 71 q76 0 135 -54.5t59 -128.5q0 -78 -71 -170q106 -20 137 -114q115 57 139 57q20 0 33.5 -13.5t13.5 -33.5q0 -31 -34 -51q-18 -10 -65.5 -29.5t-70.5 -32.5q-10 -211 -239 -428q-94 -88 -215 -158.5t-219 -70.5q-47 0 -78 29.5t-31 76.5zM-104 -530q0 -2 1 -8.5t1 -10.5h12h8 q70 0 171 64q108 68 179 137q156 156 176 297q-143 -76 -345.5 -233.5t-202.5 -245.5z" />
<glyph unicode="{" horiz-adv-x="550" d="M88 592q0 10 47 49t55 78q8 31 9 94q0 41 -3 119t-3 117v66q0 15 3 63.5t9 68t19.5 53t32.5 49t50 28t72 12.5h42q9 0 22.5 -6.5t15.5 -20.5t2 -41q0 -16 -9.5 -23.5t-18.5 -8.5t-28.5 1t-23.5 2q-31 0 -50.5 -19.5t-26.5 -61.5t-8 -61.5t-1 -62.5t4 -126.5t4 -124.5 q0 -184 -65 -246q61 -76 61 -297q0 -41 -2 -122t-2 -122v-14q-2 -209 86 -209q8 0 22.5 1t20.5 1q10 0 18.5 -3t11.5 -6t5 -11.5t2 -12.5v-15v-16q0 -35 -82 -34q-45 0 -79 12t-53.5 41t-31.5 54.5t-16 71.5t-5 71.5t-1 76.5v17q0 41 3 120.5t3 118.5q0 72 -3 104 t-23.5 73.5t-66.5 76.5q-18 15 -18 25z" />
<glyph unicode="|" horiz-adv-x="487" d="M162 -512v2048h102v-2048h-102z" />
<glyph unicode="}" horiz-adv-x="550" d="M2 -203q0 16 9 23.5t18.5 8.5t29 -1t23.5 -2q88 0 86 209v14q0 41 -2 122t-2 122q0 221 61 297q-66 61 -65 246q0 41 4 124.5t4 126.5t-1 62.5t-8 61.5t-26.5 61.5t-50.5 19.5q-6 0 -21.5 -1t-23.5 -1q-10 0 -17.5 3t-11.5 6.5t-5 11.5t-1 12v15v16q0 35 82 35 q41 0 71.5 -12.5t50 -28t33 -49t19.5 -53t9 -68t3 -63.5v-66q0 -39 -3 -117t-3 -119q0 -80 14.5 -114.5t75.5 -75.5q18 -10 19 -29q0 -14 -17 -27q-45 -37 -65.5 -79t-23.5 -72.5t-3 -102.5q0 -39 3 -118.5t3 -120.5v-17q0 -51 -1 -76.5t-5 -71.5t-16 -71.5t-31.5 -53.5 t-53.5 -41t-79 -13h-42q-9 0 -22.5 6t-15.5 20t-2 41z" />
<glyph unicode="~" d="M66 952q0 35 87 79t158 44q14 0 28.5 -2t26 -5t27 -10t22.5 -9t24.5 -13.5t21.5 -13.5t22.5 -15.5t20.5 -13.5q2 2 20.5 15.5t24.5 18.5t22.5 15.5t27.5 14.5t27.5 8t32.5 4q31 0 54.5 -14.5t23.5 -30.5q0 -43 -81 -88t-156 -45q-31 0 -59.5 9t-42 15.5t-47.5 30 t-42 27.5q-8 -4 -73.5 -40t-102.5 -36q-29 0 -48 15t-19 40z" />
<glyph unicode="&#xa1;" horiz-adv-x="479" d="M127 545q0 31 24.5 53.5t55.5 22.5q41 0 72.5 -38t31.5 -79q0 -31 -21.5 -56.5t-51.5 -25.5q-33 0 -72 45t-39 78zM158 268.5q0 18.5 20.5 33.5t41 15t35.5 -11t23.5 -33.5t13.5 -46t7 -56.5t2 -53.5t-1 -50t-1 -37.5q0 -264 -25 -613q-8 -72 -67 -71q-18 0 -33.5 13 t-15.5 32v12q0 90 17.5 269t17.5 272q0 250 -21 297q-14 10 -14 28.5z" />
<glyph unicode="&#xa2;" horiz-adv-x="686" d="M23 670q0 88 73.5 156.5t165.5 93.5q0 6 -2 38.5t-1 54t6 49.5t20.5 42t42.5 14q25 0 36 -17.5t12 -30.5t1 -42q0 -31 -4 -92q35 -2 57.5 -5t53 -13.5t46 -32t15.5 -54t-20.5 -54t-53.5 -21.5q-27 0 -44 19.5t-17 45.5q-35 0 -52 4q-6 -39 -13 -120.5t-13 -120.5 q49 4 122.5 22.5t102.5 40.5q16 41 57 41q25 0 44.5 -15.5t19.5 -39.5q0 -55 -129 -96t-225 -54q-6 -80 -7 -157q16 -20 17 -39q0 -29 -23.5 -52.5t-52.5 -23.5q-25 0 -41 18.5t-16 42.5q0 41 7 121t7 94q-82 18 -137 63.5t-55 119.5zM127 686q0 -39 29.5 -62.5t72.5 -29.5 q14 96 21 215q-47 -14 -85 -47t-38 -76z" />
<glyph unicode="&#xa3;" horiz-adv-x="1224" d="M4 121q0 57 47 93t107 36q27 0 66.5 -10.5t65 -19.5t78 -30.5t58.5 -23.5q18 55 74 321q-176 8 -176 74q0 23 16 40t39 17q8 0 48 -14t75 -12h16q23 74 36 111.5t43 115.5t60.5 123t72.5 96.5t95.5 76t114.5 24.5q57 0 135 -43t78 -95q0 -23 -15.5 -37t-36 -14t-58 36 t-80.5 36q-66 0 -122.5 -45t-95 -119t-62.5 -137.5t-40 -128.5q43 6 119 14q51 8 119 8q131 0 131 -69q0 -23 -13.5 -42.5t-35.5 -19.5q-6 0 -23 4q-33 14 -102 15q-33 0 -71 -2t-84 -5t-71 -6q-47 -229 -88 -362q207 -80 369 -80q72 0 133 23.5t100 46t55.5 22.5t29 -12 t12.5 -29q0 -25 -23 -47q-115 -115 -313 -114q-158 0 -406 88q-33 -51 -86 -84q-51 -31 -116 -31q-92 0 -183.5 61.5t-91.5 149.5zM119 117q12 -43 59 -75t94 -32q61 0 105 53q-188 74 -225 74q-23 0 -33 -20z" />
<glyph unicode="&#xa4;" horiz-adv-x="778" d="M20 268l121 121q-45 66 -45 150q0 90 45 149l-121 121l70 70l121 -121q66 45 149.5 45t149.5 -45l121 121l69 -70l-120 -121q45 -66 45 -149q0 -90 -45 -150l120 -121l-69 -69l-121 120q-66 -45 -150 -45t-149 45l-121 -120zM199 539q0 -70 46 -118t115 -48q68 0 115 49 t47 116.5t-46 117t-115.5 49.5t-115.5 -49t-46 -117z" />
<glyph unicode="&#xa5;" horiz-adv-x="1165" d="M8 416q0 158 90 360.5t205 351.5q25 31 59 31q53 0 54 -55q0 -43 -32 -95.5t-71 -52.5q-82 -119 -142 -258t-60 -252q0 -86 47 -138t133 -52q141 0 289.5 124t232.5 267q10 16 27.5 121.5t50.5 189.5t88 84q29 0 44 -19t15 -48q0 -117 -69 -262l-15 -29q-12 -25 -14 -37 q-4 -12 -4 -96l18 -356q2 2 20.5 22.5t30 33.5t31 32.5t33.5 32t30.5 21.5t28.5 9q23 0 41.5 -13.5t18.5 -33.5q0 -59 -60 -66q-12 -6 -51 -51q111 6 113 6q68 0 67 -51q0 -55 -71 -55q-16 0 -50 6t-53 6q-80 0 -118 -4q2 -14 3 -43t1 -39q135 12 202 12q74 0 74 -53 q0 -23 -13 -42t-36 -19q-6 0 -22 4q-33 14 -103 14q-35 0 -104 -4v-70q0 -516 -209 -516q-78 0 -118 60.5t-40 140.5q0 147 141 377h-41q-143 -6 -143 63q0 18 15.5 29.5t33.5 11.5q10 0 44 -10t61 -10h88l51 86q-119 -4 -182 -4q-100 0 -101 53q0 20 18.5 38.5t39.5 18.5 q6 0 47 -13t73 -13q16 0 51 1t54 1q-25 317 -25 321q-113 -133 -264 -232t-293 -99q-121 0 -190.5 70.5t-69.5 191.5zM707 -465q0 -37 13 -72.5t44 -35.5q100 0 100 401q0 53 -2 78q-155 -228 -155 -371z" />
<glyph unicode="&#xa6;" horiz-adv-x="487" d="M162 358h102v-716h-102v716zM162 666v716h102v-716h-102z" />
<glyph unicode="&#xa7;" horiz-adv-x="800" d="M23 463q0 70 37.5 130t99.5 99q-49 59 -49 123q0 98 78.5 169t179.5 71q113 0 188.5 -65.5t75.5 -174.5q0 -23 -15.5 -33t-27.5 -11t-41 -1q-20 0 -34.5 26.5t-24 58.5t-40 58.5t-79.5 26.5q-47 0 -85 -34t-38 -81q0 -45 45 -87t110.5 -78.5t131 -79.5t110.5 -108.5 t45 -145.5q0 -125 -149 -222q59 -70 59 -149q0 -106 -79 -168.5t-187.5 -62.5t-189.5 65.5t-81 163.5q0 51 91 51q23 0 36 -26.5t19 -58.5t34.5 -58.5t80.5 -26.5q55 0 101 28.5t46 80.5q0 57 -46 105t-112.5 88t-132 82t-111.5 104.5t-46 140.5zM158 465q0 -18 7 -37.5 t22.5 -39t29.5 -36t39 -35t43 -32t46 -30.5l42 -25.5t41 -24t31 -17.5q31 20 47 34t32.5 40.5t16.5 54.5q0 35 -25.5 73t-54.5 64.5t-83 62.5t-75.5 48.5t-70.5 38.5q-88 -57 -88 -139z" />
<glyph unicode="&#xa8;" horiz-adv-x="512" d="M70 764q0 37 33.5 67.5t70.5 30.5q23 0 40 -18.5t17 -40.5q0 -33 -37.5 -61.5t-70.5 -28.5q-23 0 -38 14t-15 37zM375 774q0 29 31.5 56.5t58.5 27.5q31 0 56.5 -14.5t25.5 -43t-36 -56t-67 -27.5q-29 0 -49 15t-20 42z" />
<glyph unicode="&#xa9;" horiz-adv-x="1374" d="M98 540.5q0 225.5 158 383t385 157.5t385 -157.5t158 -383t-158 -383t-385 -157.5t-385 157.5t-158 383zM168 540.5q0 -192.5 140.5 -333.5t332.5 -141q190 0 331.5 141t141.5 333.5t-141.5 334t-331.5 141.5q-193 0 -333 -141.5t-140 -334zM332 526q0 137 87 233.5 t222 96.5q33 0 89 -15.5t73 -15.5q14 0 21 12.5t36 12.5q12 0 17 -14q14 -78 14 -187q0 -18 -29 -18q-20 0 -24 12q-66 152 -185 152q-92 0 -143 -83t-51 -181.5t51 -166t145 -67.5q47 0 93.5 19.5t75 40t34.5 20.5q27 0 27 -27q0 -37 -89 -83t-159 -46q-135 0 -220 86 t-85 219z" />
<glyph unicode="&#xaa;" horiz-adv-x="641" d="M29 803q10 78 90 179t179 153.5t194 -0.5q31 -20 35.5 -52t-11.5 -49q12 -25 -5 -89t-17 -66q-10 -176 61 -170q25 2 41 -13.5t16 -38.5q0 -49 -61 -49q-41 2 -81 31t-62 84q-113 -133 -234 -115q-72 8 -113.5 65.5t-31.5 129.5zM125 797q-8 -61 27.5 -84t91.5 -6 q53 16 98 65t53 117q0 4 3 46t11.5 69.5t26.5 42.5q-57 39 -132 -11.5t-124 -124t-55 -114.5z" />
<glyph unicode="&#xab;" horiz-adv-x="702" d="M0 299q0 27 20 53q33 39 185 191q31 35 59 35q18 0 30.5 -14.5t12.5 -33.5q0 -35 -178 -235q160 -227 160 -254q0 -43 -41 -43q-37 0 -142.5 129t-105.5 172zM291 299q0 23 22 53q195 225 242 226q18 0 30.5 -13.5t12.5 -32.5q0 -39 -178 -237q160 -227 160 -254 q0 -43 -41 -43q-37 0 -142.5 131t-105.5 170z" />
<glyph unicode="&#xac;" d="M61 492v67q0 16 17 16h629q16 0 16 -16v-321q0 -16 -16 -17h-74q-16 0 -17 17v237h-538q-17 1 -17 17z" />
<glyph unicode="&#xad;" horiz-adv-x="604" d="M84 328q0 29 19.5 53.5t46.5 24.5q31 0 45 -27q8 -2 24 -2q35 0 106.5 7t106.5 7q104 0 105 -55q0 -57 -62 -57q-12 0 -40.5 4t-41.5 4q-35 0 -103.5 -8.5t-105.5 -8.5q-100 1 -100 58z" />
<glyph unicode="&#xae;" horiz-adv-x="1054" d="M100 698q0 162 111 272.5t272.5 110.5t272 -110.5t110.5 -272.5q0 -160 -111.5 -270.5t-271 -110.5t-271.5 110.5t-112 270.5zM166 698q0 -125 96 -222t221 -97q131 0 224.5 96t93.5 223t-93.5 224.5t-224.5 97.5q-125 0 -221 -97.5t-96 -224.5zM303 496v18 q20 4 30.5 17.5t12.5 26.5t2 42v256q0 23 -7 29t-30 8v18h172q166 0 166 -108q0 -43 -31.5 -73t-74.5 -36q104 -158 121 -172q4 -4 20 -8v-18h-104l-121 192h-29v-100q0 -74 39 -74v-18h-166zM430 723h57q33 0 55.5 20.5t22.5 55.5q0 80 -90 80q-12 0 -21.5 -1t-17.5 -6.5 t-6 -13.5v-135z" />
<glyph unicode="&#xaf;" horiz-adv-x="542" d="M92 729q0 55 82 55q43 0 128 2t128 2q27 0 48.5 -13t21.5 -38q0 -53 -82 -53q-43 0 -130 -3t-130 -3q-27 0 -46.5 13t-19.5 38z" />
<glyph unicode="&#xb0;" horiz-adv-x="425" d="M59 1005.5q0 61.5 43 105.5t104.5 44t104.5 -44t43 -105q0 -63 -42 -104.5t-105 -41.5q-61 0 -104.5 42t-43.5 103.5zM125 1005.5q0 -34.5 23.5 -57t58.5 -22.5t58.5 22.5t23.5 57t-23.5 59.5t-58.5 25q-33 0 -57.5 -25t-24.5 -59.5z" />
<glyph unicode="&#xb1;" d="M102 35v67q0 16 17 17h567q16 0 16 -17v-67q0 -16 -16 -17h-567q-17 1 -17 17zM102 461v67q0 16 17 17h229v207q0 16 17 16h73q16 0 17 -16v-207h231q16 0 16 -17v-67q0 -16 -16 -17h-231v-206q0 -16 -17 -17h-73q-16 0 -17 17v206h-229q-17 1 -17 17z" />
<glyph unicode="&#xb2;" horiz-adv-x="604" d="M27 645q-6 20 6 40t39 26q96 20 112 32q45 33 68.5 51.5t68 57.5t67 77t22.5 72q0 33 -28 57.5t-65 24.5q-45 0 -98 -22.5t-72 -50.5q-33 -51 -73 -52q-37 4 -37 54q0 45 95 100t200 55q72 0 124 -42t52 -115q0 -55 -35 -111.5t-69.5 -89.5t-92.5 -76q117 -8 174 -20 q8 -2 25.5 8t30 13t30.5 -13q25 -31 -10 -67t-69 -36q-39 0 -116 15.5t-116 15.5q-55 0 -82 -8q-6 -2 -42 -17.5t-58 -15.5q-41 0 -51 37z" />
<glyph unicode="&#xb3;" horiz-adv-x="636" d="M45 702q0 43 41 54q20 4 37.5 -5.5t19.5 -31.5q47 -27 123 -20.5t147.5 44t71.5 80.5q0 53 -59 60q-78 -43 -168 -43q-55 0 -60 39t50 63q74 35 174 31q43 25 43 53q0 37 -109 37q-166 0 -202 -53q-8 -27 -31 -35t-43 2q-23 12 -27 34.5t19 55.5q35 39 112.5 62.5 t171.5 23.5q78 0 145.5 -26.5t67.5 -94.5q0 -47 -49 -92q70 -37 70 -104q0 -100 -120 -164t-232 -64q-39 0 -77 5t-77 28.5t-39 60.5z" />
<glyph unicode="&#xb4;" horiz-adv-x="512" d="M205 731q0 33 37 60q197 141 221 141q23 0 35 -16.5t12 -38.5q0 -39 -29 -56q-4 -4 -63.5 -44t-104.5 -65.5t-63.5 -25.5t-31.5 13.5t-13 31.5z" />
<glyph unicode="&#xb5;" d="M-2 -274q0 14 42 109t42 188q0 31 -1 90t-1 88q0 59 25.5 149t56.5 144q20 31 57 30q23 0 38 -15t15 -38q0 -18 -42 -105t-42 -159q0 -100 62 -101q45 0 99 45.5t91 94.5q2 72 34 161t87 89q27 0 42 -22.5t15 -51.5q0 -45 -30.5 -102.5t-34.5 -69.5q0 -57 25.5 -98 t68.5 -41q31 0 50.5 -12.5t19.5 -30.5q0 -16 -19.5 -29.5t-54.5 -13.5q-129 0 -174 110q-147 -133 -240 -133q-23 0 -41 6v-12q0 -59 -24.5 -150.5t-54.5 -142.5q-20 -31 -58 -31q-23 0 -38 15.5t-15 38.5z" />
<glyph unicode="&#xb6;" horiz-adv-x="841" d="M47 696q0 133 93 244t222 111h359q8 0 12 -7.5t5 -19.5t1 -22.5t-1 -22.5t-1 -16q0 -6 -5 -10.5t-15 -6.5t-18.5 -2t-19.5 1t-13 1v-1167q0 -16 -17 -17h-71q-16 0 -17 17v1167h-115v-1163q0 -16 -16 -16h-72q-16 0 -16 16v579q-135 14 -215 105.5t-80 228.5z" />
<glyph unicode="&#xb7;" horiz-adv-x="352" d="M31 467q0 33 30.5 73t61.5 40q12 0 22 -7q16 4 29 5q27 0 48.5 -18.5t21.5 -45.5q0 -43 -48.5 -81t-91.5 -38q-31 0 -52 20.5t-21 51.5z" />
<glyph unicode="&#xb8;" horiz-adv-x="614" d="M90 -162q0 14 21.5 32.5t21.5 37.5q0 16 -10 47t-10 47q0 35 27.5 69.5t62.5 34.5t35 -26q0 -8 -26 -31.5t-26 -50.5q0 -16 11.5 -46t11.5 -46q0 -29 -29.5 -60.5t-60.5 -31.5q-29 -1 -29 24z" />
<glyph unicode="&#xb9;" horiz-adv-x="333" d="M49 950q-33 29 0 66q98 98 137 133q33 29 60 2q16 -16 16 -47q0 -16 -10 -130t-14 -171q-6 -102 0 -113q39 -35 10 -72q-29 -29 -60 -18q-51 14 -49 92q2 127 25 314l-55 -56q-33 -25 -60 0z" />
<glyph unicode="&#xba;" horiz-adv-x="714" d="M47 844q0 131 104.5 221t235.5 90q98 0 117 -33q27 0 41 -8q41 -25 63.5 -78t22.5 -100q0 -31 -6 -57q51 8 55 -31q2 -25 -22.5 -44.5t-67.5 -12.5q-45 -80 -134 -133.5t-180 -53.5q-100 0 -164.5 71t-64.5 169zM147 850q0 -68 42 -115t108 -47q55 0 112.5 39t88.5 94 q-131 80 -133 195q0 20 8 57q-92 -6 -159 -69.5t-67 -153.5zM465 1001q0 -51 63 -90q4 20 4 33q0 31 -18 58.5t-35 27.5q-14 0 -14 -29z" />
<glyph unicode="&#xbb;" horiz-adv-x="702" d="M6 43q0 16 37 65.5t87 108.5t56 68q-156 211 -155 245q0 49 43 50q29 0 59 -41l164 -205q18 -18 18 -47q0 -43 -116.5 -165t-153.5 -122q-39 0 -39 43zM299 39q0 16 36 64.5t90 112t56 65.5q-4 6 -27.5 37.5t-42 57t-41 58.5t-34.5 57.5t-12 36.5q0 18 13 32.5t32 14.5 q33 0 138 -128t103 -162v-13q-6 -43 -118.5 -159.5t-151.5 -116.5q-41 0 -41 43z" />
<glyph unicode="&#xbc;" horiz-adv-x="1208" d="M-4 -131q0 49 215 347t336 448q43 57 135 167.5t135 167.5q106 137 125 177q2 4 9 17l10.5 19.5t10.5 17.5t14 16t17.5 9.5t22.5 4.5q18 0 35.5 -13.5t17.5 -32.5q0 -12 -12 -35.5t-32.5 -53t-38 -52t-40 -51.5t-24.5 -31q-27 -35 -192 -237.5t-224 -279.5t-167.5 -231.5 t-186.5 -285.5l-20 -39q-17 -35 -27.5 -49t-31 -30.5t-40.5 -16.5q-47 0 -47 47zM49 950q-33 29 0 66q98 98 137 133q33 29 60 2q16 -16 16 -47q0 -16 -10 -130t-14 -171q-6 -102 0 -113q39 -35 10 -72q-29 -29 -60 -18q-51 14 -49 92q2 127 25 314l-55 -56q-33 -25 -60 0z M623 242q0 12 8 37q18 53 156.5 173.5t195.5 120.5q59 0 59 -71q0 -35 -5 -122t-5 -130q10 2 24.5 9t20.5 7q33 0 33 -45q0 -14 -5 -24.5t-16.5 -15.5t-17.5 -7t-21.5 -4t-17.5 -2v-66q0 -29 1 -62.5t1 -41.5q0 -55 -53 -55q-57 0 -57 51q0 10 10 24q2 10 2 136 q-72 -16 -127 -17q-186 1 -186 105zM727 250q0 -29 92 -29q66 0 119 17q0 78 10 227q-37 -16 -129 -96t-92 -119z" />
<glyph unicode="&#xbd;" horiz-adv-x="1269" d="M-20 -131q0 49 215 347t335 448q43 57 135.5 167.5t135.5 167.5q106 137 125 177q2 4 9 17t10 19.5t10.5 17.5t14.5 16t17 9.5t23 4.5q18 0 35.5 -13.5t17.5 -32.5q0 -12 -12.5 -35.5t-33 -53t-37.5 -52t-39.5 -51.5t-25.5 -31q-27 -35 -191.5 -237.5t-224 -279.5 t-168 -231.5t-186.5 -285.5l-19 -39q-17 -35 -27.5 -49t-31 -30.5t-40.5 -16.5q-47 0 -47 47zM49 950q-33 29 0 66q98 98 137 133q33 29 60 2q16 -16 16 -47q0 -16 -10 -130t-14 -171q-6 -102 0 -113q39 -35 10 -72q-29 -29 -60 -18q-51 14 -49 92q2 127 25 314l-55 -56 q-33 -25 -60 0zM655 16q-4 20 7.5 40t37.5 26q94 20 113 33q45 33 68.5 51t67.5 57t66.5 77t22.5 73q0 33 -27.5 57.5t-64.5 24.5q-45 0 -98 -22.5t-72 -51.5q-33 -51 -74 -51q-37 4 -36 53q0 45 95 100.5t200 55.5q72 0 124 -42t52 -116q0 -55 -35 -111.5t-70 -89.5 t-92 -76q117 -8 174 -20q8 -2 25.5 8t30 13.5t30.5 -13.5q25 -31 -10 -66.5t-70 -35.5q-41 0 -114 16q-90 14 -117 14q-55 0 -82 -8q-6 -2 -42 -17t-58 -15q-42 -1 -52 36z" />
<glyph unicode="&#xbe;" horiz-adv-x="1351" d="M45 702q0 43 41 54q20 4 37.5 -5.5t19.5 -31.5q47 -27 123 -20.5t147.5 44t71.5 80.5q0 53 -59 60q-78 -43 -168 -43q-55 0 -60 39t50 63q74 35 174 31q43 25 43 53q0 37 -109 37q-166 0 -202 -53q-8 -27 -31 -35t-43 2q-23 12 -27 34.5t19 55.5q35 39 112.5 62.5 t171.5 23.5q78 0 145.5 -26.5t67.5 -94.5q0 -47 -49 -92q70 -37 70 -104q0 -100 -120 -164t-232 -64q-39 0 -77 5t-77 28.5t-39 60.5zM143 -131q0 49 215 347t336 448q43 57 135.5 167.5t135.5 167.5q106 137 125 177q2 4 9 17t10 19.5t10 17.5t14.5 16t17.5 9.5t23 4.5 q18 0 35.5 -13.5t17.5 -32.5q0 -12 -12.5 -35.5t-33 -53t-38 -52t-40 -51.5t-24.5 -31q-27 -35 -191.5 -237.5t-224 -279.5t-168 -231.5t-186.5 -285.5l-19 -39q-17 -35 -27.5 -49t-31 -30.5t-41.5 -16.5q-47 0 -47 47zM766 242q0 12 8 37q18 53 156.5 173.5t195.5 120.5 q59 0 60 -71q0 -35 -5 -122t-5 -130q10 2 24 9t21 7q33 0 32 -45q0 -14 -5 -24.5t-16 -15.5t-17.5 -7t-21.5 -4t-17 -2v-66q0 -29 1 -62.5t1 -41.5q0 -55 -54 -55q-57 0 -57 51q0 10 10 24q2 10 2 136q-72 -16 -127 -17q-186 1 -186 105zM870 250q0 -29 93 -29q66 0 118 17 q0 78 11 227q-37 -16 -129.5 -96t-92.5 -119z" />
<glyph unicode="&#xbf;" horiz-adv-x="897" d="M-76 -371q0 70 56.5 147t139.5 144.5t169 130t155.5 124t85.5 106.5q-29 -2 -88 -17.5t-90 -15.5q-49 0 -49 51q0 29 17.5 51.5t46.5 22.5q8 0 23.5 -3t21.5 -3q18 0 57 9t59 9q49 0 85 -21.5t36 -68.5q0 -51 -62.5 -116.5t-151.5 -132t-178 -134.5t-151.5 -140.5 t-62.5 -131.5q0 -61 67.5 -85t145.5 -24q109 0 251 39t222 96q33 25 33 37q0 33 -57 33q-12 0 -39 -4t-39 -4q-57 0 -58 41q0 59 152 59q57 0 108.5 -35t51.5 -88q0 -66 -79 -120t-188.5 -84.5t-209 -47t-160.5 -16.5q-53 0 -103.5 8t-101.5 27.5t-83 59.5t-32 97zM444 530 q0 43 32 73t77 30q29 0 57.5 -20.5t28.5 -47t-9 -43t-18.5 -21.5t-34.5 -16l-36 -14q-25 -8 -39 -8q-58 -1 -58 67z" />
<glyph unicode="&#xc0;" horiz-adv-x="1570" d="M-63 319q0 20 16 37t39 17q14 0 31 -8q129 -49 421 -50q170 199 363 496q-12 119 -12 178q0 45 9 108.5t28.5 134.5t57.5 120t87 49q98 0 98 -160q0 -162 -155 -432q53 -289 182 -475q205 12 323 39q2 0 7.5 1t7.5 1q20 0 33.5 -15.5t13.5 -35.5q0 -43 -39 -60 q-12 -4 -130 -12t-140 -12q129 -113 270 -146q14 -4 41 -6t39 -6q49 -10 49 -55q0 -49 -61 -50q-135 0 -261.5 68t-218.5 178q-6 2 -20 2q-29 0 -81 -4t-71 -4q-154 -6 -311 -6h-72q-354 -406 -450 -406q-29 0 -53.5 18.5t-24.5 47.5q0 33 26.5 50.5t61.5 12.5 q129 86 307 277q-411 -1 -411 108zM571 315q219 4 398 15q-86 164 -133 346q-101 -152 -265 -361zM825 1720q0 23 13.5 39.5t35.5 16.5q16 0 57.5 -34t93.5 -85t56 -53q31 -27 31 -54q0 -20 -13.5 -32.5t-33.5 -12.5q-16 0 -59 34t-95.5 80t-60.5 52q-25 20 -25 49z M895 1001l2 -24q72 158 72 250q0 29 -6 43q-33 -37 -50.5 -119t-17.5 -150z" />
<glyph unicode="&#xc1;" horiz-adv-x="1570" d="M-63 319q0 20 16 37t39 17q14 0 31 -8q129 -49 421 -50q170 199 363 496q-12 119 -12 178q0 45 9 108.5t28.5 134.5t57.5 120t87 49q98 0 98 -160q0 -162 -155 -432q53 -289 182 -475q205 12 323 39q2 0 7.5 1t7.5 1q20 0 33.5 -15.5t13.5 -35.5q0 -43 -39 -60 q-12 -4 -130 -12t-140 -12q129 -113 270 -146q14 -4 41 -6t39 -6q49 -10 49 -55q0 -49 -61 -50q-135 0 -261.5 68t-218.5 178q-6 2 -20 2q-29 0 -81 -4t-71 -4q-154 -6 -311 -6h-72q-354 -406 -450 -406q-29 0 -53.5 18.5t-24.5 47.5q0 33 26.5 50.5t61.5 12.5 q129 86 307 277q-411 -1 -411 108zM571 315q219 4 398 15q-86 164 -133 346q-101 -152 -265 -361zM860 1550q0 33 37 60q197 141 221 141q23 0 35 -16.5t12 -38.5q0 -39 -28 -56q-4 -4 -63.5 -44t-104.5 -65.5t-63.5 -25.5t-32 13.5t-13.5 31.5zM895 1001l2 -24 q72 158 72 250q0 29 -6 43q-33 -37 -50.5 -119t-17.5 -150z" />
<glyph unicode="&#xc2;" horiz-adv-x="1570" d="M-63 319q0 20 16 37t39 17q14 0 31 -8q129 -49 421 -50q170 199 363 496q-12 119 -12 178q0 45 9 108.5t28.5 134.5t57.5 120t87 49q98 0 98 -160q0 -162 -155 -432q53 -289 182 -475q205 12 323 39q2 0 7.5 1t7.5 1q20 0 33.5 -15.5t13.5 -35.5q0 -43 -39 -60 q-12 -4 -130 -12t-140 -12q129 -113 270 -146q14 -4 41 -6t39 -6q49 -10 49 -55q0 -49 -61 -50q-135 0 -261.5 68t-218.5 178q-6 2 -20 2q-29 0 -81 -4t-71 -4q-154 -6 -311 -6h-72q-354 -406 -450 -406q-29 0 -53.5 18.5t-24.5 47.5q0 33 26.5 50.5t61.5 12.5 q129 86 307 277q-411 -1 -411 108zM571 315q219 4 398 15q-86 164 -133 346q-101 -152 -265 -361zM756 1503q0 33 100 104.5t135 71.5q12 0 30.5 -9t42 -27.5t39 -33t40 -36t26.5 -23.5q33 -25 33 -57q0 -18 -12 -30.5t-31 -12.5q-16 0 -51 23.5t-75 56.5t-50 39 q-2 -2 -50 -34t-84 -51.5t-52.5 -19.5t-28.5 11.5t-12 27.5zM895 1001l2 -24q72 158 72 250q0 29 -6 43q-33 -37 -50.5 -119t-17.5 -150z" />
<glyph unicode="&#xc3;" horiz-adv-x="1570" d="M-63 319q0 20 16 37t39 17q14 0 31 -8q129 -49 421 -50q170 199 363 496q-12 119 -12 178q0 45 9 108.5t28.5 134.5t57.5 120t87 49q98 0 98 -160q0 -162 -155 -432q53 -289 182 -475q205 12 323 39q2 0 7.5 1t7.5 1q20 0 33.5 -15.5t13.5 -35.5q0 -43 -39 -60 q-12 -4 -130 -12t-140 -12q129 -113 270 -146q14 -4 41 -6t39 -6q49 -10 49 -55q0 -49 -61 -50q-135 0 -261.5 68t-218.5 178q-6 2 -20 2q-29 0 -81 -4t-71 -4q-154 -6 -311 -6h-72q-354 -406 -450 -406q-29 0 -53.5 18.5t-24.5 47.5q0 33 26.5 50.5t61.5 12.5 q129 86 307 277q-411 -1 -411 108zM571 315q219 4 398 15q-86 164 -133 346q-101 -152 -265 -361zM770 1513q0 41 48 83t89 42q14 0 25.5 -4t24 -13t19.5 -15.5t20.5 -20.5t17.5 -18q4 4 19.5 25.5t28.5 31.5t30 10q20 0 35.5 -15t15.5 -38q0 -41 -44 -82t-87 -41 q-25 0 -41.5 9.5t-37 33t-28.5 29.5q-10 -6 -38.5 -36t-49 -30t-34 14.5t-13.5 34.5zM895 1001l2 -24q72 158 72 250q0 29 -6 43q-33 -37 -50.5 -119t-17.5 -150z" />
<glyph unicode="&#xc4;" horiz-adv-x="1570" d="M-63 319q0 20 16 37t39 17q14 0 31 -8q129 -49 421 -50q170 199 363 496q-12 119 -12 178q0 45 9 108.5t28.5 134.5t57.5 120t87 49q98 0 98 -160q0 -162 -155 -432q53 -289 182 -475q205 12 323 39q2 0 7.5 1t7.5 1q20 0 33.5 -15.5t13.5 -35.5q0 -43 -39 -60 q-12 -4 -130 -12t-140 -12q129 -113 270 -146q14 -4 41 -6t39 -6q49 -10 49 -55q0 -49 -61 -50q-135 0 -261.5 68t-218.5 178q-6 2 -20 2q-29 0 -81 -4t-71 -4q-154 -6 -311 -6h-72q-354 -406 -450 -406q-29 0 -53.5 18.5t-24.5 47.5q0 33 26.5 50.5t61.5 12.5 q129 86 307 277q-411 -1 -411 108zM571 315q219 4 398 15q-86 164 -133 346q-101 -152 -265 -361zM760 1579q0 37 33.5 67.5t70.5 30.5q23 0 40.5 -18.5t17.5 -40.5q0 -33 -38 -61.5t-71 -28.5q-23 0 -38 14t-15 37zM895 1001l2 -24q72 158 72 250q0 29 -6 43 q-33 -37 -50.5 -119t-17.5 -150zM1065 1589q0 29 31.5 56.5t58.5 27.5q31 0 56.5 -14t25.5 -43t-36 -56.5t-66 -27.5q-29 0 -49.5 15t-20.5 42z" />
<glyph unicode="&#xc5;" horiz-adv-x="1570" d="M-63 319q0 20 16 37t39 17q14 0 31 -8q129 -49 421 -50q170 199 363 496q-12 119 -12 178q0 45 9 108.5t28.5 134.5t57.5 120t87 49q98 0 98 -160q0 -162 -155 -432q53 -289 182 -475q205 12 323 39q2 0 7.5 1t7.5 1q20 0 33.5 -15.5t13.5 -35.5q0 -43 -39 -60 q-12 -4 -130 -12t-140 -12q129 -113 270 -146q14 -4 41 -6t39 -6q49 -10 49 -55q0 -49 -61 -50q-135 0 -261.5 68t-218.5 178q-6 2 -20 2q-29 0 -81 -4t-71 -4q-154 -6 -311 -6h-72q-354 -406 -450 -406q-29 0 -53.5 18.5t-24.5 47.5q0 33 26.5 50.5t61.5 12.5 q129 86 307 277q-411 -1 -411 108zM571 315q219 4 398 15q-86 164 -133 346q-101 -152 -265 -361zM844 1603.5q0 61.5 43 104.5t104.5 43t104.5 -43t43 -104.5t-43 -104.5t-104.5 -43t-104.5 43t-43 104.5zM895 1001l2 -24q72 158 72 250q0 29 -6 43q-33 -37 -50.5 -119 t-17.5 -150zM909 1603.5q0 -34.5 24.5 -58t57.5 -23.5t57.5 23.5t24.5 58t-24.5 58.5t-57.5 24t-57.5 -24t-24.5 -58.5z" />
<glyph unicode="&#xc6;" horiz-adv-x="2523" d="M-117 -127q0 55 74 64h10q158 80 355 258q-352 55 -353 141q0 27 22.5 47t49.5 20q12 0 29 -8q168 -84 362 -100q180 174 504 551q6 33 23.5 134t28.5 145t45 114t85 123q41 37 82 37q33 0 55.5 -20.5t22.5 -53.5q0 -123 -68 -264q92 84 279 125q154 35 307 35 q193 0 369 -54.5t266 -181.5q14 -23 14 -43q0 -37 -37.5 -56.5t-76.5 -19.5q-72 0 -72 47q0 27 25 37q-39 63 -136.5 103.5t-186.5 52.5t-177 12q-297 0 -445 -102q-78 -55 -77.5 -104.5t56.5 -93.5t142 -73.5t148.5 -47t115.5 -27.5q82 16 158 16q178 0 178 -76 q0 -29 -23.5 -45t-51.5 -16q-27 0 -82.5 7t-83.5 7q-160 0 -350.5 -74.5t-311.5 -183.5q96 6 244 41h14q18 0 31.5 -13.5t13.5 -31.5q0 -51 -49 -65q-98 -31 -305 -50q14 -131 378.5 -131t803.5 172q12 4 22 4q18 0 31.5 -14t13.5 -33q0 -66 -201.5 -124t-403.5 -84.5 t-290 -26.5q-76 0 -112 4q12 -12 12 -29q0 -27 -22.5 -43t-49.5 -16q-61 0 -123.5 43t-107.5 100q-109 61 -101 164q-127 -4 -188 -4q-133 0 -301 10q-102 -102 -272 -238.5t-238 -136.5q-31 0 -52.5 19.5t-21.5 50.5zM578 281q39 -2 116 -2q90 0 271 8q-25 141 -29 395 q-116 -135 -358 -401zM1047 758q0 -223 20 -379q145 135 455 237q-49 14 -95.5 31t-103.5 46.5t-97 63.5t-64.5 82t-16.5 101q-51 -74 -98 -133v-49zM1053 967q131 201 133 329q-88 -83 -133 -329z" />
<glyph unicode="&#xc7;" horiz-adv-x="1339" d="M-29 438q0 229 195.5 459.5t423.5 288.5q49 74 92 74q20 0 34.5 -15.5t14.5 -38.5q137 -4 219 -73.5t82 -202.5q0 -150 -101.5 -262.5t-248.5 -112.5q-109 0 -168 69.5t-59 180.5q0 115 59 244q-164 -76 -293 -250t-129 -346q0 -133 98.5 -231.5t227.5 -141.5t256 -43 q264 0 563 176q16 10 31 10q20 0 33.5 -14t13.5 -35q0 -31 -31 -53q-121 -82 -294 -131t-324 -49q-51 0 -105 6q16 -8 17 -23q0 -8 -26 -31.5t-26 -50.5q0 -16 11.5 -45.5t11.5 -46.5q0 -29 -30 -60.5t-60 -31.5q-29 0 -29 25q0 14 21.5 32.5t21.5 36.5q0 16 -10 47t-10 47 q0 33 25.5 68t58.5 37q-141 20 -264 77.5t-212.5 165t-89.5 244.5zM561 817q0 -70 39 -117t107 -47q84 0 147.5 91.5t63.5 179.5q0 84 -55.5 130t-139.5 46q-16 0 -53 -4q-109 -158 -109 -279z" />
<glyph unicode="&#xc8;" horiz-adv-x="1406" d="M-31 168q0 68 45 133.5t118 115.5t140.5 84t133.5 58q-61 16 -120 40t-126.5 60.5t-108.5 90t-41 114.5q0 86 73 150.5t183.5 95.5t207.5 44t179 13q195 0 372 -54t271 -181q16 -25 17 -43q0 -37 -37 -55.5t-76 -18.5q-72 0 -72 45q0 25 23 35q-61 90 -213 130t-295 40 q-115 0 -241 -24.5t-197 -77.5q-74 -53 -74 -101q0 -49 57.5 -95t144.5 -77t153.5 -49t117.5 -29q43 10 84 13q43 6 86 6q166 0 166 -76q0 -29 -22.5 -44t-51.5 -15q-31 0 -94 6t-94 6t-45 -2q-109 -12 -213 -49q-59 -20 -127 -56t-133.5 -95.5t-65.5 -115.5 q0 -53 94.5 -87.5t179.5 -43t150 -8.5q342 0 772 164q16 4 23 4q18 0 31.5 -13t13.5 -32q0 -63 -194.5 -117.5t-389 -79t-280.5 -24.5q-525 0 -525 215zM584 1507q0 23 13 39.5t36 16.5q16 0 57 -34t93.5 -85t56.5 -53q31 -27 30 -54q0 -20 -13 -32.5t-34 -12.5 q-16 0 -59 34t-95.5 80t-60.5 52q-24 20 -24 49z" />
<glyph unicode="&#xc9;" horiz-adv-x="1406" d="M-31 168q0 68 45 133.5t118 115.5t140.5 84t133.5 58q-61 16 -120 40t-126.5 60.5t-108.5 90t-41 114.5q0 86 73 150.5t183.5 95.5t207.5 44t179 13q195 0 372 -54t271 -181q16 -25 17 -43q0 -37 -37 -55.5t-76 -18.5q-72 0 -72 45q0 25 23 35q-61 90 -213 130t-295 40 q-115 0 -241 -24.5t-197 -77.5q-74 -53 -74 -101q0 -49 57.5 -95t144.5 -77t153.5 -49t117.5 -29q43 10 84 13q43 6 86 6q166 0 166 -76q0 -29 -22.5 -44t-51.5 -15q-31 0 -94 6t-94 6t-45 -2q-109 -12 -213 -49q-59 -20 -127 -56t-133.5 -95.5t-65.5 -115.5 q0 -53 94.5 -87.5t179.5 -43t150 -8.5q342 0 772 164q16 4 23 4q18 0 31.5 -13t13.5 -32q0 -63 -194.5 -117.5t-389 -79t-280.5 -24.5q-525 0 -525 215zM662 1350q0 33 36 59q197 141 222 141q23 0 35 -16t12 -39q0 -39 -29 -55q-4 -4 -63.5 -44t-104.5 -65.5t-63.5 -25.5 t-31.5 13.5t-13 31.5z" />
<glyph unicode="&#xca;" horiz-adv-x="1406" d="M-31 168q0 68 45 133.5t118 115.5t140.5 84t133.5 58q-61 16 -120 40t-126.5 60.5t-108.5 90t-41 114.5q0 86 73 150.5t183.5 95.5t207.5 44t179 13q195 0 372 -54t271 -181q16 -25 17 -43q0 -37 -37 -55.5t-76 -18.5q-72 0 -72 45q0 25 23 35q-61 90 -213 130t-295 40 q-115 0 -241 -24.5t-197 -77.5q-74 -53 -74 -101q0 -49 57.5 -95t144.5 -77t153.5 -49t117.5 -29q43 10 84 13q43 6 86 6q166 0 166 -76q0 -29 -22.5 -44t-51.5 -15q-31 0 -94 6t-94 6t-45 -2q-109 -12 -213 -49q-59 -20 -127 -56t-133.5 -95.5t-65.5 -115.5 q0 -53 94.5 -87.5t179.5 -43t150 -8.5q342 0 772 164q16 4 23 4q18 0 31.5 -13t13.5 -32q0 -63 -194.5 -117.5t-389 -79t-280.5 -24.5q-525 0 -525 215zM565 1311q0 33 100.5 104.5t135.5 71.5q12 0 30.5 -9.5t42 -27.5t39 -32.5t40 -36t26.5 -23.5q33 -25 33 -58 q0 -18 -12.5 -30.5t-30.5 -12.5q-16 0 -51 24t-75 56.5t-50 38.5q-2 -2 -50.5 -33.5t-84 -51t-52 -19.5t-29 11.5t-12.5 27.5z" />
<glyph unicode="&#xcb;" horiz-adv-x="1406" d="M-31 168q0 68 45 133.5t118 115.5t140.5 84t133.5 58q-61 16 -120 40t-126.5 60.5t-108.5 90t-41 114.5q0 86 73 150.5t183.5 95.5t207.5 44t179 13q195 0 372 -54t271 -181q16 -25 17 -43q0 -37 -37 -55.5t-76 -18.5q-72 0 -72 45q0 25 23 35q-61 90 -213 130t-295 40 q-115 0 -241 -24.5t-197 -77.5q-74 -53 -74 -101q0 -49 57.5 -95t144.5 -77t153.5 -49t117.5 -29q43 10 84 13q43 6 86 6q166 0 166 -76q0 -29 -22.5 -44t-51.5 -15q-31 0 -94 6t-94 6t-45 -2q-109 -12 -213 -49q-59 -20 -127 -56t-133.5 -95.5t-65.5 -115.5 q0 -53 94.5 -87.5t179.5 -43t150 -8.5q342 0 772 164q16 4 23 4q18 0 31.5 -13t13.5 -32q0 -63 -194.5 -117.5t-389 -79t-280.5 -24.5q-525 0 -525 215zM551 1389q0 37 33.5 67.5t70.5 30.5q23 0 40.5 -18.5t17.5 -41.5q0 -33 -38 -61.5t-71 -28.5q-23 0 -38 14.5t-15 37.5z M856 1399q0 29 32 56.5t58 27.5q31 0 56.5 -14.5t25.5 -43t-36 -56.5t-66 -28q-29 0 -49.5 15.5t-20.5 42.5z" />
<glyph unicode="&#xcc;" horiz-adv-x="940" d="M-25 63q0 76 52 76q23 0 34 -13t14 -29.5t21.5 -30t50.5 -13.5q49 0 244 56q-10 113 -10 202q0 238 76 752q-121 -16 -230 -16q-180 0 -180 77q0 31 34 58.5t64 27.5q25 0 37.5 -16t5.5 -39q23 -6 70 -6q88 0 217 18q16 115 76 115q45 0 45 -51q0 -14 -4 -51q74 8 170 8 q156 0 156 -74q0 -23 -18.5 -40t-41 -17t-68 13t-71.5 13q-80 0 -146 -8q-74 -322 -73 -686q0 -137 14 -252q94 14 205 15q154 0 153 -66q0 -25 -21.5 -43t-45.5 -18q-12 0 -74 10q-41 10 -76 10q-59 0 -114 -12q0 -49 -66 -49q-43 0 -57 30q-82 -27 -148 -43 q-88 -20 -151 -20q-144 -1 -144 112zM424 1604q0 23 13.5 39t35.5 16q16 0 57 -34t93.5 -85t56.5 -53q31 -27 31 -53q0 -20 -13.5 -32.5t-33.5 -12.5q-16 0 -59.5 33.5t-95.5 79.5t-60 52q-25 21 -25 50z" />
<glyph unicode="&#xcd;" horiz-adv-x="940" d="M-25 63q0 76 52 76q23 0 34 -13t14 -29.5t21.5 -30t50.5 -13.5q49 0 244 56q-10 113 -10 202q0 238 76 752q-121 -16 -230 -16q-180 0 -180 77q0 31 34 58.5t64 27.5q25 0 37.5 -16t5.5 -39q23 -6 70 -6q88 0 217 18q16 115 76 115q45 0 45 -51q0 -14 -4 -51q74 8 170 8 q156 0 156 -74q0 -23 -18.5 -40t-41 -17t-68 13t-71.5 13q-80 0 -146 -8q-74 -322 -73 -686q0 -137 14 -252q94 14 205 15q154 0 153 -66q0 -25 -21.5 -43t-45.5 -18q-12 0 -74 10q-41 10 -76 10q-59 0 -114 -12q0 -49 -66 -49q-43 0 -57 30q-82 -27 -148 -43 q-88 -20 -151 -20q-144 -1 -144 112zM524 1444q0 33 37 59q197 141 221 142q23 0 35 -16.5t12 -39.5q0 -39 -28 -55q-4 -4 -63.5 -44t-104.5 -65.5t-63.5 -25.5t-32 13.5t-13.5 31.5z" />
<glyph unicode="&#xce;" horiz-adv-x="940" d="M-25 63q0 76 52 76q23 0 34 -13t14 -29.5t21.5 -30t50.5 -13.5q49 0 244 56q-10 113 -10 202q0 238 76 752q-121 -16 -230 -16q-180 0 -180 77q0 31 34 58.5t64 27.5q25 0 37.5 -16t5.5 -39q23 -6 70 -6q88 0 217 18q16 115 76 115q45 0 45 -51q0 -14 -4 -51q74 8 170 8 q156 0 156 -74q0 -23 -18.5 -40t-41 -17t-68 13t-71.5 13q-80 0 -146 -8q-74 -322 -73 -686q0 -137 14 -252q94 14 205 15q154 0 153 -66q0 -25 -21.5 -43t-45.5 -18q-12 0 -74 10q-41 10 -76 10q-59 0 -114 -12q0 -49 -66 -49q-43 0 -57 30q-82 -27 -148 -43 q-88 -20 -151 -20q-144 -1 -144 112zM365 1419q0 33 100 104.5t135 71.5q12 0 30.5 -9t42 -27.5t39 -33t40 -36t26.5 -23.5q33 -25 33 -57q0 -18 -12.5 -30.5t-30.5 -12.5q-16 0 -51 23.5t-75 56.5t-50 39q-2 -2 -50 -34t-84 -51.5t-52.5 -19.5t-28.5 11.5t-12 27.5z" />
<glyph unicode="&#xcf;" horiz-adv-x="940" d="M-25 63q0 76 52 76q23 0 34 -13t14 -29.5t21.5 -30t50.5 -13.5q49 0 244 56q-10 113 -10 202q0 238 76 752q-121 -16 -230 -16q-180 0 -180 77q0 31 34 58.5t64 27.5q25 0 37.5 -16t5.5 -39q23 -6 70 -6q88 0 217 18q16 115 76 115q45 0 45 -51q0 -14 -4 -51q74 8 170 8 q156 0 156 -74q0 -23 -18.5 -40t-41 -17t-68 13t-71.5 13q-80 0 -146 -8q-74 -322 -73 -686q0 -137 14 -252q94 14 205 15q154 0 153 -66q0 -25 -21.5 -43t-45.5 -18q-12 0 -74 10q-41 10 -76 10q-59 0 -114 -12q0 -49 -66 -49q-43 0 -57 30q-82 -27 -148 -43 q-88 -20 -151 -20q-144 -1 -144 112zM346 1466q0 37 34 68t71 31q23 0 40 -18.5t17 -41.5q0 -33 -38 -61.5t-71 -28.5q-23 0 -38 14t-15 37zM651 1477q0 29 32 56.5t58 27.5q31 0 56.5 -14.5t25.5 -43t-35.5 -56.5t-66.5 -28q-29 0 -49.5 15.5t-20.5 42.5z" />
<glyph unicode="&#xd0;" horiz-adv-x="1587" d="M-119 684q0 74 68.5 136.5t174 99t192.5 57t159 29.5q41 121 98 120q27 0 42.5 -22.5t15.5 -48.5q0 -12 -4 -37q96 -2 198.5 -14.5t230.5 -46t225 -83t164.5 -135.5t67.5 -194q0 -98 -54 -183.5t-142 -143.5t-178 -97t-185 -62q-188 -47 -424 -51q2 -8 2 -24 q0 -29 -15 -50.5t-42 -21.5q-37 0 -57.5 31.5t-26.5 70.5q-98 12 -198.5 64.5t-100.5 134.5q0 57 70 57q33 0 52 -19.5t30.5 -43t45.5 -48t89 -32.5q-16 217 -10 313q-129 -4 -185 6q-82 14 -82 72q0 27 17.5 44.5t42.5 8.5q133 -35 213 -32q18 178 71 364 q-104 -10 -270 -72.5t-166 -138.5q0 -51 -31.5 -72.5t-64.5 -2t-33 66.5zM477 446q-10 -221 27 -331q254 -12 489.5 57.5t345.5 196.5q68 86 68 166q0 106 -92 185t-231.5 115.5t-261.5 53t-224 16.5q-27 0 -39 -2q-51 -84 -76 -358q147 12 219 12q156 0 156 -72 q0 -23 -15.5 -37t-36 -14t-67.5 11.5t-82 11.5q-82 -1 -180 -11z" />
<glyph unicode="&#xd1;" horiz-adv-x="1382" d="M-168 985q0 23 12 37q47 74 144.5 130t183.5 56q141 0 213 -110.5t72 -257.5q0 -106 -25 -248q43 68 89 129t110.5 131t137.5 112t140 42q82 0 125 -67t43 -155q0 -98 -35 -260q-35 -186 -34 -262q0 -98 47 -164.5t141 -66.5q47 0 108.5 28.5t73.5 28.5q18 0 30.5 -12.5 t12.5 -30.5q0 -57 -92 -93t-162 -36q-131 0 -202.5 88t-71.5 221q0 94 33 275q31 197 30 274q0 109 -67.5 109t-147 -70t-148.5 -171t-120 -191.5t-78 -155.5q-18 -41 -29.5 -116t-19.5 -99q-16 -55 -65 -55q-59 0 -60 92q0 94 60.5 326.5t60.5 359.5q0 111 -43 205t-139 94 q-55 0 -103.5 -26.5t-75 -57.5t-55 -57.5t-47.5 -26.5q-20 0 -33.5 15.5t-13.5 35.5zM543 1217q0 37 58 80.5t97 43.5q10 0 19.5 -2t20 -7t17.5 -9t17 -13.5t14.5 -13.5t15.5 -14t13 -12q4 4 22.5 20.5t31 26.5t28.5 19.5t27 9.5q20 0 37.5 -14.5t17.5 -35.5 q0 -37 -61.5 -87t-100.5 -50q-10 0 -20.5 2t-21.5 8.5t-17 9.5t-18.5 13t-16.5 13t-16 16l-15 14q-4 -4 -21.5 -18.5t-27.5 -21.5t-25.5 -15.5t-27.5 -8.5q-18 0 -32.5 14t-14.5 32z" />
<glyph unicode="&#xd2;" horiz-adv-x="1400" d="M-27 504q0 170 103 340q-8 10 -8 26q0 31 30 58q102 106 280.5 171.5t338.5 65.5q240 0 419 -146.5t179 -379.5q0 -190 -109.5 -351t-281.5 -249t-361 -88q-236 0 -413 160t-177 393zM78 522q0 -211 156.5 -336t371.5 -125q231 0 417.5 167t186.5 395q0 119 -60 217 t-167 155q-14 -31 -47 -30q-10 0 -99 41t-171 41q-225 0 -406.5 -152t-181.5 -373zM569 1489q0 23 13.5 39t35.5 16q16 0 57.5 -33.5t93.5 -85t56 -53.5q31 -27 31 -53q0 -20 -13.5 -32.5t-33.5 -12.5q-16 0 -59 33.5t-95.5 80t-60.5 52.5q-25 20 -25 49z" />
<glyph unicode="&#xd3;" horiz-adv-x="1400" d="M-27 504q0 170 103 340q-8 10 -8 26q0 31 30 58q102 106 280.5 171.5t338.5 65.5q240 0 419 -146.5t179 -379.5q0 -190 -109.5 -351t-281.5 -249t-361 -88q-236 0 -413 160t-177 393zM78 522q0 -211 156.5 -336t371.5 -125q231 0 417.5 167t186.5 395q0 119 -60 217 t-167 155q-14 -31 -47 -30q-10 0 -99 41t-171 41q-225 0 -406.5 -152t-181.5 -373zM618 1348q0 33 37 59q197 141 222 141q23 0 35 -16t12 -39q0 -39 -29 -55q-4 -4 -63.5 -44t-104.5 -65.5t-63.5 -25.5t-32 13.5t-13.5 31.5z" />
<glyph unicode="&#xd4;" horiz-adv-x="1400" d="M-27 504q0 170 103 340q-8 10 -8 26q0 31 30 58q102 106 280.5 171.5t338.5 65.5q240 0 419 -146.5t179 -379.5q0 -190 -109.5 -351t-281.5 -249t-361 -88q-236 0 -413 160t-177 393zM78 522q0 -211 156.5 -336t371.5 -125q231 0 417.5 167t186.5 395q0 119 -60 217 t-167 155q-14 -31 -47 -30q-10 0 -99 41t-171 41q-225 0 -406.5 -152t-181.5 -373zM522 1317q0 33 100.5 104.5t135.5 71.5q12 0 30.5 -9t42 -27.5t39 -33t40 -36t26.5 -23.5q33 -25 33 -57q0 -18 -12.5 -30.5t-30.5 -12.5q-16 0 -51 23.5t-75 56t-50 38.5 q-2 -2 -50.5 -33.5t-84 -51t-52 -19.5t-29 11.5t-12.5 27.5z" />
<glyph unicode="&#xd5;" horiz-adv-x="1400" d="M-27 504q0 170 103 340q-8 10 -8 26q0 31 30 58q102 106 280.5 171.5t338.5 65.5q240 0 419 -146.5t179 -379.5q0 -190 -109.5 -351t-281.5 -249t-361 -88q-236 0 -413 160t-177 393zM78 522q0 -211 156.5 -336t371.5 -125q231 0 417.5 167t186.5 395q0 119 -60 217 t-167 155q-14 -31 -47 -30q-10 0 -99 41t-171 41q-225 0 -406.5 -152t-181.5 -373zM580 1341q0 37 58 81t97 44q10 0 19.5 -2t19.5 -7t17.5 -9t17.5 -13.5t14 -13.5t15.5 -14t13.5 -12q4 4 22.5 20.5t31 26.5t28.5 19t27 9q20 0 37.5 -14t17.5 -35q0 -37 -61.5 -87 t-100.5 -50q-10 0 -20.5 2t-21.5 8t-17.5 9.5t-18.5 13.5t-16 13t-17 16l-14 14q-4 -4 -21.5 -18.5t-27.5 -21.5t-25.5 -15.5t-27.5 -8.5q-18 0 -32.5 13.5t-14.5 31.5z" />
<glyph unicode="&#xd6;" horiz-adv-x="1400" d="M-27 504q0 170 103 340q-8 10 -8 26q0 31 30 58q102 106 280.5 171.5t338.5 65.5q240 0 419 -146.5t179 -379.5q0 -190 -109.5 -351t-281.5 -249t-361 -88q-236 0 -413 160t-177 393zM78 522q0 -211 156.5 -336t371.5 -125q231 0 417.5 167t186.5 395q0 119 -60 217 t-167 155q-14 -31 -47 -30q-10 0 -99 41t-171 41q-225 0 -406.5 -152t-181.5 -373zM500 1368q0 37 33.5 67.5t70.5 30.5q23 0 40.5 -18t17.5 -41q0 -33 -38 -61.5t-71 -28.5q-23 0 -38 14t-15 37zM805 1378q0 29 31.5 56.5t58.5 27.5q31 0 56.5 -14t25.5 -43t-36 -56.5 t-67 -27.5q-29 0 -49 15t-20 42z" />
<glyph unicode="&#xd7;" d="M135 193q-12 12 0 24l197 197l-197 196q-12 12 0 23l49 47q14 8 23 0l196 -197l197 197q8 8 23 0l49 -47q12 -10 0 -23l-197 -196l197 -197q12 -12 0 -24l-49 -48q-12 -10 -23 0l-197 197l-196 -197q-8 -8 -23 0z" />
<glyph unicode="&#xd8;" horiz-adv-x="1400" d="M-55 -53q0 33 35 59q53 39 147 129q-154 154 -154 369q0 170 103 340q-8 10 -8 26q0 31 30 58q102 106 280.5 171.5t338.5 65.5q184 0 325 -80q8 8 49.5 53.5t78 85.5t38.5 40q6 2 23 2q63 0 63 -47q0 -14 -21.5 -46t-44 -56.5t-55 -60.5t-36.5 -40q178 -152 178 -377 q0 -190 -109.5 -351t-281.5 -249t-361 -88q-195 0 -356 115q-14 -14 -48 -49t-59.5 -62t-52.5 -47q-20 -14 -43 -14q-20 0 -39.5 16.5t-19.5 36.5zM78 522q0 -184 127 -311q66 70 192.5 199t184.5 190q6 6 346 365q-23 4 -56 26q-88 55 -206 56q-225 0 -406.5 -152 t-181.5 -373zM291 147q141 -86 315 -86q231 0 417.5 167t186.5 395q0 188 -147 315q-115 -117 -244 -249t-285.5 -293t-242.5 -249z" />
<glyph unicode="&#xd9;" horiz-adv-x="1404" d="M-166 600v8q6 106 195.5 261t314.5 198q55 18 96 18q61 0 96 -36.5t35 -98.5q0 -96 -108.5 -382.5t-108.5 -422.5q0 -57 26 -101t79 -44q74 0 171 88t158.5 174t112.5 170q68 113 74 146l15 76q13 67 26.5 125.5t33 124t45 105.5t52.5 40q25 0 42 -19.5t17 -44.5 q0 -98 -76.5 -294.5t-76.5 -340.5q0 -43 6 -85t21.5 -86t48 -71.5t77.5 -27.5q57 0 120 45t75 45q41 0 41 -47q0 -61 -90 -107.5t-158 -46.5q-242 0 -254 330q-281 -408 -508 -408q-100 0 -148 67t-48 171q0 145 106.5 416.5t106.5 378.5q0 51 -41 51q-10 0 -41 -10 q-100 -37 -198.5 -119t-164.5 -178q16 -8 16 -31q0 -25 -53 -58.5t-82 -33.5q-23 0 -38 16t-13 39zM649 1333q0 23 13.5 39.5t35.5 16.5q16 0 57.5 -34t93.5 -85t56 -53q31 -27 31 -54q0 -20 -13.5 -32.5t-33.5 -12.5q-16 0 -59.5 34t-95.5 80t-60 52q-25 20 -25 49z" />
<glyph unicode="&#xda;" horiz-adv-x="1404" d="M-166 600v8q6 106 195.5 261t314.5 198q55 18 96 18q61 0 96 -36.5t35 -98.5q0 -96 -108.5 -382.5t-108.5 -422.5q0 -57 26 -101t79 -44q74 0 171 88t158.5 174t112.5 170q68 113 74 146l15 76q13 67 26.5 125.5t33 124t45 105.5t52.5 40q25 0 42 -19.5t17 -44.5 q0 -98 -76.5 -294.5t-76.5 -340.5q0 -43 6 -85t21.5 -86t48 -71.5t77.5 -27.5q57 0 120 45t75 45q41 0 41 -47q0 -61 -90 -107.5t-158 -46.5q-242 0 -254 330q-281 -408 -508 -408q-100 0 -148 67t-48 171q0 145 106.5 416.5t106.5 378.5q0 51 -41 51q-10 0 -41 -10 q-100 -37 -198.5 -119t-164.5 -178q16 -8 16 -31q0 -25 -53 -58.5t-82 -33.5q-23 0 -38 16t-13 39zM756 1176q0 33 37 59q197 141 221 141q23 0 35 -16.5t12 -38.5q0 -39 -29 -55q-4 -4 -63.5 -44t-104.5 -66t-63.5 -26t-31.5 14t-13 32z" />
<glyph unicode="&#xdb;" horiz-adv-x="1404" d="M-166 600v8q6 106 195.5 261t314.5 198q55 18 96 18q61 0 96 -36.5t35 -98.5q0 -96 -108.5 -382.5t-108.5 -422.5q0 -57 26 -101t79 -44q74 0 171 88t158.5 174t112.5 170q68 113 74 146l15 76q13 67 26.5 125.5t33 124t45 105.5t52.5 40q25 0 42 -19.5t17 -44.5 q0 -98 -76.5 -294.5t-76.5 -340.5q0 -43 6 -85t21.5 -86t48 -71.5t77.5 -27.5q57 0 120 45t75 45q41 0 41 -47q0 -61 -90 -107.5t-158 -46.5q-242 0 -254 330q-281 -408 -508 -408q-100 0 -148 67t-48 171q0 145 106.5 416.5t106.5 378.5q0 51 -41 51q-10 0 -41 -10 q-100 -37 -198.5 -119t-164.5 -178q16 -8 16 -31q0 -25 -53 -58.5t-82 -33.5q-23 0 -38 16t-13 39zM623 1174q0 33 100 104.5t135 71.5q12 0 30.5 -9.5t42 -28t39 -32.5t40 -35.5t26.5 -23.5q33 -25 33 -58q0 -18 -12.5 -30.5t-30.5 -12.5q-16 0 -51 23.5t-75 56.5t-50 39 q-2 -2 -50 -33.5t-84 -51t-52.5 -19.5t-28.5 11.5t-12 27.5z" />
<glyph unicode="&#xdc;" horiz-adv-x="1404" d="M-166 600v8q6 106 195.5 261t314.5 198q55 18 96 18q61 0 96 -36.5t35 -98.5q0 -96 -108.5 -382.5t-108.5 -422.5q0 -57 26 -101t79 -44q74 0 171 88t158.5 174t112.5 170q68 113 74 146l15 76q13 67 26.5 125.5t33 124t45 105.5t52.5 40q25 0 42 -19.5t17 -44.5 q0 -98 -76.5 -294.5t-76.5 -340.5q0 -43 6 -85t21.5 -86t48 -71.5t77.5 -27.5q57 0 120 45t75 45q41 0 41 -47q0 -61 -90 -107.5t-158 -46.5q-242 0 -254 330q-281 -408 -508 -408q-100 0 -148 67t-48 171q0 145 106.5 416.5t106.5 378.5q0 51 -41 51q-10 0 -41 -10 q-100 -37 -198.5 -119t-164.5 -178q16 -8 16 -31q0 -25 -53 -58.5t-82 -33.5q-23 0 -38 16t-13 39zM645 1266q0 37 34 67.5t71 30.5q23 0 40 -18.5t17 -40.5q0 -33 -38 -62t-71 -29q-23 0 -38 14.5t-15 37.5zM950 1276q0 29 32 56.5t58 27.5q31 0 56.5 -14.5t25.5 -43 t-35.5 -56t-66.5 -27.5q-29 0 -49.5 15t-20.5 42z" />
<glyph unicode="&#xdd;" horiz-adv-x="1165" d="M8 416q0 152 93.5 368.5t201.5 343.5q27 31 59 31q53 0 54 -55q0 -41 -32 -95.5t-71 -52.5q-82 -119 -142 -258t-60 -252q0 -86 47 -138t133 -52q139 0 289.5 124t232.5 267q10 16 27.5 121.5t50.5 189.5t88 84q29 0 44 -19t15 -48q0 -111 -57 -238q-41 -88 -41 -90 q-4 -14 -4 -96q0 -57 20 -354q125 150 172 149q20 0 40 -13.5t20 -33.5q0 -63 -60 -66q-53 -37 -163 -186q2 -66 2 -197q0 -516 -209 -516q-78 0 -118 60.5t-40 140.5q0 209 256 535q-2 74 -15.5 213t-15.5 202q-113 -133 -264 -232t-293 -99q-121 0 -190.5 70.5 t-69.5 191.5zM614 1255q0 33 37 60q197 141 221 141q23 0 35.5 -16.5t12.5 -38.5q0 -39 -29 -55q-4 -4 -63.5 -44t-104.5 -66t-63.5 -26t-32 13.5t-13.5 31.5zM707 -465q0 -37 13 -72.5t44 -35.5q100 0 100 401l-2 78q-155 -221 -155 -371z" />
<glyph unicode="&#xde;" horiz-adv-x="1351" d="M-82 -18q18 59 92 28q35 -10 109 -6t121 14h6q4 479 28 705q-37 -2 -67.5 12.5t-30.5 48.5q0 55 121 103q16 143 35 233q-14 -2 -85 -11t-110 -9q-172 0 -172 82q0 20 15.5 40.5t37.5 26.5q25 8 46.5 -3t25.5 -42q76 -23 258 17q6 12 11.5 45.5t18.5 51t48 17.5 q18 0 32.5 -12t14.5 -33q0 -8 -1 -18t-3 -22.5t-2 -18.5q12 2 38.5 4t39.5 2q53 4 78 4q35 0 50 -1t51 -6t52.5 -22.5t16.5 -44.5q0 -25 -22.5 -46t-53.5 -3q-41 23 -123 23q-102 0 -139 -11h-6q-14 -59 -35 -210q150 29 348 28q90 0 180 -16.5t176 -51t139.5 -100 t53.5 -153.5q0 -125 -97.5 -225.5t-227.5 -148.5t-255 -48q-119 0 -228.5 45t-142.5 104q-4 -184 0 -325q193 4 289 -35q63 -25 60 -62q-6 -45 -45 -50t-105.5 17.5t-71.5 22.5q-78 10 -110 4q-8 -41 -57.5 -42t-63.5 32q-33 0 -97.5 -9t-100 -12.5t-95.5 7.5q-63 19 -45 80 zM362 410q27 33 72 32q10 0 21.5 -6t18.5 -12t21.5 -21.5t22.5 -21.5q88 -76 232 -76q162 0 304 93.5t142 217.5q0 98 -129 156.5t-297 58.5q-264 0 -375 -36q-21 -143 -33 -385z" />
<glyph unicode="&#xdf;" horiz-adv-x="679" d="M-23 84q0 98 31 266t86.5 349.5t150.5 311.5t204 130q63 0 99 -46t36 -112q0 -78 -43 -163t-94.5 -142t-94.5 -104.5t-43 -57.5t46 -62.5t94.5 -124t52.5 -126.5q8 8 44 45t66.5 65.5t42.5 28.5q16 0 28.5 -11.5t12.5 -27.5q0 -10 -7 -25.5t-21.5 -32t-29.5 -33.5 t-39 -36.5t-41 -35t-43 -35t-39 -29.5t-34.5 -25.5t-23.5 -17.5q-61 -47 -144 -47q-119 0 -186 75q4 -63 14.5 -106t43 -83t90.5 -46q68 -6 67 -45q0 -49 -94 -49q-232 0 -232 352zM86 160q12 6 22.5 6t58.5 -28.5t103 -28.5q119 0 119 65q0 57 -93 164.5t-93 155.5 q0 39 67.5 121.5t135 184t67.5 183.5q0 18 -10 35.5t-27 17.5q-23 0 -39 -16q-127 -96 -214 -374.5t-97 -485.5z" />
<glyph unicode="&#xe0;" horiz-adv-x="692" d="M-76 154q0 127 120 275.5t243 148.5q43 0 79.5 -24t36.5 -62q0 -16 -10 -33q14 -14 15 -39q0 -18 -6.5 -57t-6.5 -58q0 -37 6.5 -72.5t28 -69.5t55.5 -34q47 0 82 38t53.5 85t42 85t48.5 38q41 0 41 -45v-13q-12 -106 -93 -198t-184 -92q-94 0 -149 94 q-92 -150 -222 -150q-76 0 -128 53.5t-52 129.5zM33 164q0 -37 22.5 -61.5t59.5 -24.5q66 0 118 73.5t52 143.5q0 12 -3 34.5t-3 32.5q0 59 24 95q-16 10 -37 10q-74 0 -153.5 -112.5t-79.5 -190.5zM53 899q0 23 13.5 39t35.5 16q16 0 57.5 -33.5t93.5 -85t56 -53.5 q31 -27 31 -53q0 -20 -13.5 -32.5t-33.5 -12.5q-16 0 -59.5 34t-95.5 80t-60 52q-25 20 -25 49z" />
<glyph unicode="&#xe1;" horiz-adv-x="692" d="M-76 154q0 127 120 275.5t243 148.5q43 0 79.5 -24t36.5 -62q0 -16 -10 -33q14 -14 15 -39q0 -18 -6.5 -57t-6.5 -58q0 -37 6.5 -72.5t28 -69.5t55.5 -34q47 0 82 38t53.5 85t42 85t48.5 38q41 0 41 -45v-13q-12 -106 -93 -198t-184 -92q-94 0 -149 94 q-92 -150 -222 -150q-76 0 -128 53.5t-52 129.5zM33 164q0 -37 22.5 -61.5t59.5 -24.5q66 0 118 73.5t52 143.5q0 12 -3 34.5t-3 32.5q0 59 24 95q-16 10 -37 10q-74 0 -153.5 -112.5t-79.5 -190.5zM205 731q0 33 37 60q197 141 221 141q23 0 35 -16.5t12 -38.5 q0 -39 -29 -56q-4 -4 -63.5 -44t-104.5 -65.5t-63.5 -25.5t-31.5 13.5t-13 31.5z" />
<glyph unicode="&#xe2;" horiz-adv-x="692" d="M-76 154q0 127 120 275.5t243 148.5q43 0 79.5 -24t36.5 -62q0 -16 -10 -33q14 -14 15 -39q0 -18 -6.5 -57t-6.5 -58q0 -37 6.5 -72.5t28 -69.5t55.5 -34q47 0 82 38t53.5 85t42 85t48.5 38q41 0 41 -45v-13q-12 -106 -93 -198t-184 -92q-94 0 -149 94 q-92 -150 -222 -150q-76 0 -128 53.5t-52 129.5zM23 692q0 33 100 104.5t135 71.5q12 0 30.5 -9t42 -27.5t39 -33t40 -36t26.5 -23.5q33 -25 33 -57q0 -18 -12.5 -30.5t-30.5 -12.5q-16 0 -51 23.5t-75 56.5t-50 39q-2 -2 -50 -34t-84 -51.5t-52.5 -19.5t-28.5 11.5 t-12 27.5zM33 164q0 -37 22.5 -61.5t59.5 -24.5q66 0 118 73.5t52 143.5q0 12 -3 34.5t-3 32.5q0 59 24 95q-16 10 -37 10q-74 0 -153.5 -112.5t-79.5 -190.5z" />
<glyph unicode="&#xe3;" horiz-adv-x="692" d="M-76 154q0 127 120 275.5t243 148.5q43 0 79.5 -24t36.5 -62q0 -16 -10 -33q14 -14 15 -39q0 -18 -6.5 -57t-6.5 -58q0 -37 6.5 -72.5t28 -69.5t55.5 -34q47 0 82 38t53.5 85t42 85t48.5 38q41 0 41 -45v-13q-12 -106 -93 -198t-184 -92q-94 0 -149 94 q-92 -150 -222 -150q-76 0 -128 53.5t-52 129.5zM33 164q0 -37 22.5 -61.5t59.5 -24.5q66 0 118 73.5t52 143.5q0 12 -3 34.5t-3 32.5q0 59 24 95q-16 10 -37 10q-74 0 -153.5 -112.5t-79.5 -190.5zM98 725q0 41 48.5 83t89.5 42q14 0 25 -4t23.5 -13.5t19.5 -15.5 t20.5 -20.5t17.5 -18.5q4 4 19.5 25.5t28.5 32t30 10.5q20 0 35.5 -15.5t15.5 -37.5q0 -41 -44 -82t-87 -41q-25 0 -41 9t-36.5 32.5t-29.5 29.5q-10 -6 -38.5 -35.5t-49 -29.5t-34 14.5t-13.5 34.5z" />
<glyph unicode="&#xe4;" horiz-adv-x="692" d="M-76 154q0 127 120 275.5t243 148.5q43 0 79.5 -24t36.5 -62q0 -16 -10 -33q14 -14 15 -39q0 -18 -6.5 -57t-6.5 -58q0 -37 6.5 -72.5t28 -69.5t55.5 -34q47 0 82 38t53.5 85t42 85t48.5 38q41 0 41 -45v-13q-12 -106 -93 -198t-184 -92q-94 0 -149 94 q-92 -150 -222 -150q-76 0 -128 53.5t-52 129.5zM33 164q0 -37 22.5 -61.5t59.5 -24.5q66 0 118 73.5t52 143.5q0 12 -3 34.5t-3 32.5q0 59 24 95q-16 10 -37 10q-74 0 -153.5 -112.5t-79.5 -190.5zM70 764q0 37 33.5 67.5t70.5 30.5q23 0 40 -18.5t17 -40.5 q0 -33 -37.5 -61.5t-70.5 -28.5q-23 0 -38 14t-15 37zM375 774q0 29 31.5 56.5t58.5 27.5q31 0 56.5 -14.5t25.5 -43t-36 -56t-67 -27.5q-29 0 -49 15t-20 42z" />
<glyph unicode="&#xe5;" horiz-adv-x="692" d="M-76 154q0 127 120 275.5t243 148.5q43 0 79.5 -24t36.5 -62q0 -16 -10 -33q14 -14 15 -39q0 -18 -6.5 -57t-6.5 -58q0 -37 6.5 -72.5t28 -69.5t55.5 -34q47 0 82 38t53.5 85t42 85t48.5 38q41 0 41 -45v-13q-12 -106 -93 -198t-184 -92q-94 0 -149 94 q-92 -150 -222 -150q-76 0 -128 53.5t-52 129.5zM33 164q0 -37 22.5 -61.5t59.5 -24.5q66 0 118 73.5t52 143.5q0 12 -3 34.5t-3 32.5q0 59 24 95q-16 10 -37 10q-74 0 -153.5 -112.5t-79.5 -190.5zM141 800.5q0 61.5 43 104.5t104.5 43t104.5 -43t43 -104.5t-43 -104.5 t-104.5 -43t-104.5 43t-43 104.5zM207 801q0 -35 23.5 -58.5t58.5 -23.5t58.5 23.5t23.5 58.5t-23.5 58.5t-58.5 23.5t-58.5 -23.5t-23.5 -58.5z" />
<glyph unicode="&#xe6;" horiz-adv-x="821" d="M-76 154q0 127 120 275.5t243 148.5q41 0 82 -25t34 -64q59 53 138 54q53 0 81.5 -37t28.5 -90q0 -92 -73.5 -166t-167.5 -80q29 -92 125 -92q78 0 133 44t110 126q18 25 39 24q18 0 30.5 -13t12.5 -32q0 -14 -6 -24q-45 -94 -142.5 -168t-193.5 -74q-68 0 -123 39 t-80 102q-92 -131 -211 -131q-76 0 -128 53.5t-52 129.5zM33 164q0 -37 22.5 -61.5t59.5 -24.5q61 0 106 62.5t85 166t52 125.5h-6q-16 0 -39.5 17.5t-46.5 17.5q-74 0 -153.5 -112.5t-79.5 -190.5zM406 281q16 -4 22 -5q43 0 84 38t41 81q0 31 -23 49h-4q-49 2 -81.5 -52 t-38.5 -111z" />
<glyph unicode="&#xe7;" horiz-adv-x="614" d="M-33 303q0 129 95.5 257t220.5 128q47 0 92 -37q25 2 36 -16.5t7 -42.5q12 -33 12 -84q0 -63 -22.5 -135t-69.5 -72q-59 0 -59 119q0 76 26 137q-20 25 -45 25q-74 0 -128 -90.5t-54 -167.5q0 -92 56 -149.5t148.5 -57.5t174.5 63.5t133 153.5l2 4q18 25 41 24 q43 0 43 -45q0 -8 -4 -24q-45 -111 -169 -194t-245 -83q-18 0 -27 2q4 -8 5 -14q0 -8 -26 -31.5t-26 -50.5q0 -16 11.5 -46t11.5 -46q0 -29 -30 -60.5t-60 -31.5q-29 0 -29 24q0 14 21.5 33t21.5 37q0 16 -10 47t-10 47q0 31 19.5 60.5t47.5 40.5q-94 25 -152.5 100.5 t-58.5 175.5z" />
<glyph unicode="&#xe8;" horiz-adv-x="471" d="M-29 311q0 115 70 220.5t176 105.5q53 0 83 -35t30 -88q0 -92 -76 -168t-168 -80q23 -100 121 -100q53 0 103 30.5t78 61.5t69 86q16 23 37 23q18 0 30.5 -13.5t12.5 -31.5q0 -14 -7 -23q-45 -94 -142 -168t-193 -74q-102 0 -163 75t-61 179zM-25 963q0 23 13.5 39 t36.5 16q16 0 57 -34t93 -85t56 -53q31 -27 31 -53q0 -20 -13 -32.5t-34 -12.5q-16 0 -59 33.5t-95.5 79.5t-60.5 52q-25 21 -25 50zM82 377q16 -4 24 -4q41 0 82 38t41 78q0 14 -8 33t-20 19q-47 0 -80 -55.5t-39 -108.5z" />
<glyph unicode="&#xe9;" horiz-adv-x="471" d="M-29 311q0 115 70 220.5t176 105.5q53 0 83 -35t30 -88q0 -92 -76 -168t-168 -80q23 -100 121 -100q53 0 103 30.5t78 61.5t69 86q16 23 37 23q18 0 30.5 -13.5t12.5 -31.5q0 -14 -7 -23q-45 -94 -142 -168t-193 -74q-102 0 -163 75t-61 179zM82 377q16 -4 24 -4 q41 0 82 38t41 78q0 14 -8 33t-20 19q-47 0 -80 -55.5t-39 -108.5zM182 803q0 33 37 59q197 141 221 142q23 0 35 -16.5t12 -39.5q0 -39 -28 -55q-4 -4 -63.5 -44t-104.5 -65.5t-63.5 -25.5t-32 13.5t-13.5 31.5z" />
<glyph unicode="&#xea;" horiz-adv-x="471" d="M-45 745q0 33 100.5 105t134.5 72q12 0 31 -9.5t42.5 -28t38.5 -32.5t40 -35.5t27 -23.5q33 -25 32 -58q0 -18 -12 -30.5t-31 -12.5q-16 0 -51 23.5t-74.5 56.5t-50.5 39q-2 -2 -50 -34t-84 -51t-52 -19t-28.5 11t-12.5 27zM-29 311q0 115 70 220.5t176 105.5 q53 0 83 -35t30 -88q0 -92 -76 -168t-168 -80q23 -100 121 -100q53 0 103 30.5t78 61.5t69 86q16 23 37 23q18 0 30.5 -13.5t12.5 -31.5q0 -14 -7 -23q-45 -94 -142 -168t-193 -74q-102 0 -163 75t-61 179zM82 377q16 -4 24 -4q41 0 82 38t41 78q0 14 -8 33t-20 19 q-47 0 -80 -55.5t-39 -108.5z" />
<glyph unicode="&#xeb;" horiz-adv-x="471" d="M-29 311q0 115 70 220.5t176 105.5q53 0 83 -35t30 -88q0 -92 -76 -168t-168 -80q23 -100 121 -100q53 0 103 30.5t78 61.5t69 86q16 23 37 23q18 0 30.5 -13.5t12.5 -31.5q0 -14 -7 -23q-45 -94 -142 -168t-193 -74q-102 0 -163 75t-61 179zM14 825q0 37 34 68t71 31 q23 0 40 -18.5t17 -41.5q0 -33 -38 -61.5t-70 -28.5q-23 0 -38.5 14t-15.5 37zM82 377q16 -4 24 -4q41 0 82 38t41 78q0 14 -8 33t-20 19q-47 0 -80 -55.5t-39 -108.5zM319 836q0 29 32 56.5t59 27.5q31 0 56.5 -14.5t25.5 -43t-36 -56.5t-67 -28q-29 0 -49.5 15.5 t-20.5 42.5z" />
<glyph unicode="&#xec;" horiz-adv-x="346" d="M-137 842q0 23 13 39t36 16q16 0 57 -34t93.5 -85t56.5 -53q31 -27 31 -53q0 -20 -13.5 -32.5t-34.5 -12.5q-16 0 -59 33.5t-95 79.5t-61 53q-24 20 -24 49zM-41 205q0 39 3 79t11.5 99t30 97t53.5 38q23 0 36 -15.5t13 -37.5q0 -27 -19 -117t-19 -137q0 -92 51 -92 q86 0 205 217q20 29 45 29q18 0 30.5 -12.5t12.5 -30.5q0 -53 -65.5 -136.5t-123.5 -128.5q-59 -43 -127 -43q-137 1 -137 191z" />
<glyph unicode="&#xed;" horiz-adv-x="346" d="M-41 205q0 39 3 79t11.5 99t30 97t53.5 38q23 0 36 -15.5t13 -37.5q0 -27 -19 -117t-19 -137q0 -92 51 -92q86 0 205 217q20 29 45 29q18 0 30.5 -12.5t12.5 -30.5q0 -53 -65.5 -136.5t-123.5 -128.5q-59 -43 -127 -43q-137 1 -137 191zM61 676q0 33 37 59 q197 141 221 142q23 0 35.5 -16.5t12.5 -39.5q0 -39 -29 -55q-4 -4 -63.5 -44t-104.5 -65.5t-63.5 -25.5t-32 13.5t-13.5 31.5z" />
<glyph unicode="&#xee;" horiz-adv-x="346" d="M-141 629q0 33 100 104.5t135 71.5q12 0 30.5 -9.5t42 -27.5t39 -32.5t40 -36t26.5 -23.5q33 -25 33 -58q0 -18 -12 -30.5t-31 -12.5q-16 0 -51 24t-75 56.5t-50 38.5q-2 -2 -50 -33.5t-84 -51t-52.5 -19.5t-28.5 11.5t-12 27.5zM-41 205q0 39 3 79t11.5 99t30 97 t53.5 38q23 0 36 -15.5t13 -37.5q0 -27 -19 -117t-19 -137q0 -92 51 -92q86 0 205 217q20 29 45 29q18 0 30.5 -12.5t12.5 -30.5q0 -53 -65.5 -136.5t-123.5 -128.5q-59 -43 -127 -43q-137 1 -137 191z" />
<glyph unicode="&#xef;" horiz-adv-x="346" d="M-129 727q0 37 34 67.5t70 30.5q23 0 40.5 -18.5t17.5 -40.5q0 -33 -38 -61.5t-71 -28.5q-23 0 -38 14t-15 37zM-41 205q0 39 3 79t11.5 99t30 97t53.5 38q23 0 36 -15.5t13 -37.5q0 -27 -19 -117t-19 -137q0 -92 51 -92q86 0 205 217q20 29 45 29q18 0 30.5 -12.5 t12.5 -30.5q0 -53 -65.5 -136.5t-123.5 -128.5q-59 -43 -127 -43q-137 1 -137 191zM176 737q0 29 32 56.5t58 27.5q31 0 56.5 -14t25.5 -43t-36 -56.5t-66 -27.5q-29 0 -49.5 15t-20.5 42z" />
<glyph unicode="&#xf0;" horiz-adv-x="890" d="M-43 262q0 78 46 135.5t120 87t146.5 43t142.5 13.5q111 0 274 -54q-43 135 -149 236q-145 -113 -218 -129q-45 -12 -69 35q-25 49 24 69q94 27 183 88q-111 70 -215 45q-23 -6 -56.5 -36.5t-66.5 -30.5q-25 0 -40.5 19.5t-15.5 39.5q0 59 75 94t143 35q131 0 266 -96 q4 2 31.5 23.5t53 39t50.5 25.5q63 25 90 -16q14 -23 4 -46.5t-35 -31.5q-57 -18 -116 -62q96 -96 149 -226t53 -265q0 -113 -75.5 -195t-173 -114.5t-197.5 -32.5q-63 0 -133 18.5t-136.5 52t-110.5 96t-44 140.5zM72 254q0 -86 99 -142.5t210 -56.5q139 0 237.5 70 t98.5 188q0 35 -4 47q-20 29 -140 53.5t-172 24.5q-61 0 -130.5 -15t-134 -60.5t-64.5 -108.5z" />
<glyph unicode="&#xf1;" horiz-adv-x="681" d="M-88 82q0 18 22 49q16 23 26.5 97.5t10.5 119.5q0 23 -9 69t-9 66q0 29 19.5 47.5t45.5 18.5q16 0 28.5 -9.5t20 -28.5t12.5 -36.5t6 -46.5t1 -44v-43v-30q115 129 203 129q61 0 85.5 -55t21.5 -121.5t10.5 -122t56.5 -55.5q51 0 95 68.5t80 137t64 68.5q43 0 43 -47 q0 -10 -4 -26q-37 -104 -121.5 -209t-173.5 -105q-55 0 -88.5 21.5t-46 61.5t-17.5 80t-8 91.5t-10 79.5q-4 25 -20 25q-27 0 -71 -46t-80.5 -102.5t-74.5 -102.5t-57 -46q-23 0 -42 12t-19 35zM88 621q0 41 48 82.5t89 41.5q14 0 25.5 -4t24 -13t19.5 -15t20.5 -20.5 t17.5 -18.5q4 4 19.5 25.5t28.5 31.5t30 10q20 0 35.5 -15t15.5 -38q0 -41 -44 -82t-87 -41q-25 0 -41.5 9.5t-37 33t-28.5 29.5q-10 -6 -38.5 -36t-49 -30t-34 15t-13.5 35z" />
<glyph unicode="&#xf2;" horiz-adv-x="694" d="M-49 225q0 131 105.5 223.5t238.5 92.5q98 0 119 -33q59 2 94 -62.5t35 -128.5q0 -27 -6 -53q47 0 81.5 23.5t57 46t37.5 22.5q16 0 28.5 -12t12.5 -29q0 -68 -91.5 -110.5t-162.5 -34.5q-43 -82 -133.5 -135t-182.5 -53q-100 0 -166.5 71.5t-66.5 171.5zM68 231 q0 -63 37.5 -110t99.5 -47q53 0 106.5 39t85.5 90q-129 82 -129 192q0 31 8 49q-90 -4 -149 -63.5t-59 -149.5zM76 868q0 23 13 39.5t36 16.5q16 0 57 -34t93.5 -85t56.5 -53q31 -27 30 -54q0 -20 -13 -32.5t-34 -12.5q-16 0 -59 34t-95 80t-61 52q-24 20 -24 49zM360 399 q0 -59 74 -108q2 12 2 35q0 27 -19.5 66.5t-41.5 39.5q-15 0 -15 -33z" />
<glyph unicode="&#xf3;" horiz-adv-x="694" d="M-49 225q0 131 105.5 223.5t238.5 92.5q98 0 119 -33q59 2 94 -62.5t35 -128.5q0 -27 -6 -53q47 0 81.5 23.5t57 46t37.5 22.5q16 0 28.5 -12t12.5 -29q0 -68 -91.5 -110.5t-162.5 -34.5q-43 -82 -133.5 -135t-182.5 -53q-100 0 -166.5 71.5t-66.5 171.5zM68 231 q0 -63 37.5 -110t99.5 -47q53 0 106.5 39t85.5 90q-129 82 -129 192q0 31 8 49q-90 -4 -149 -63.5t-59 -149.5zM279 698q0 33 36 60q197 141 222 141q23 0 35 -16.5t12 -38.5q0 -39 -29 -56q-4 -4 -63.5 -43.5t-104.5 -65.5t-63.5 -26t-31.5 13.5t-13 31.5zM360 399 q0 -59 74 -108q2 12 2 35q0 27 -19.5 66.5t-41.5 39.5q-15 0 -15 -33z" />
<glyph unicode="&#xf4;" horiz-adv-x="694" d="M-49 225q0 131 105.5 223.5t238.5 92.5q98 0 119 -33q59 2 94 -62.5t35 -128.5q0 -27 -6 -53q47 0 81.5 23.5t57 46t37.5 22.5q16 0 28.5 -12t12.5 -29q0 -68 -91.5 -110.5t-162.5 -34.5q-43 -82 -133.5 -135t-182.5 -53q-100 0 -166.5 71.5t-66.5 171.5zM53 664 q0 33 100.5 104.5t135.5 71.5q12 0 30.5 -9.5t42 -28t39 -32.5t40 -35.5t26.5 -23.5q33 -25 33 -58q0 -18 -12.5 -30.5t-30.5 -12.5q-16 0 -51 23.5t-75 56.5t-50 39q-2 -2 -50.5 -33.5t-84 -51t-52 -19.5t-29 11.5t-12.5 27.5zM68 231q0 -63 37.5 -110t99.5 -47 q53 0 106.5 39t85.5 90q-129 82 -129 192q0 31 8 49q-90 -4 -149 -63.5t-59 -149.5zM360 399q0 -59 74 -108q2 12 2 35q0 27 -19.5 66.5t-41.5 39.5q-15 0 -15 -33z" />
<glyph unicode="&#xf5;" horiz-adv-x="694" d="M-49 225q0 131 105.5 223.5t238.5 92.5q98 0 119 -33q59 2 94 -62.5t35 -128.5q0 -27 -6 -53q47 0 81.5 23.5t57 46t37.5 22.5q16 0 28.5 -12t12.5 -29q0 -68 -91.5 -110.5t-162.5 -34.5q-43 -82 -133.5 -135t-182.5 -53q-100 0 -166.5 71.5t-66.5 171.5zM68 231 q0 -63 37.5 -110t99.5 -47q53 0 106.5 39t85.5 90q-129 82 -129 192q0 31 8 49q-90 -4 -149 -63.5t-59 -149.5zM131 686q0 41 48 83t89 42q14 0 25.5 -4t24 -13.5t19.5 -15.5t20.5 -20.5t17.5 -18.5q4 4 19.5 25.5t28.5 32t30 10.5q20 0 35.5 -15.5t15.5 -37.5 q0 -41 -44 -82t-87 -41q-25 0 -41.5 9t-37 32.5t-28.5 29.5q-10 -6 -38.5 -35.5t-49 -29.5t-34 14.5t-13.5 34.5zM360 399q0 -59 74 -108q2 12 2 35q0 27 -19.5 66.5t-41.5 39.5q-15 0 -15 -33z" />
<glyph unicode="&#xf6;" horiz-adv-x="694" d="M-49 225q0 131 105.5 223.5t238.5 92.5q98 0 119 -33q59 2 94 -62.5t35 -128.5q0 -27 -6 -53q47 0 81.5 23.5t57 46t37.5 22.5q16 0 28.5 -12t12.5 -29q0 -68 -91.5 -110.5t-162.5 -34.5q-43 -82 -133.5 -135t-182.5 -53q-100 0 -166.5 71.5t-66.5 171.5zM68 231 q0 -63 37.5 -110t99.5 -47q53 0 106.5 39t85.5 90q-129 82 -129 192q0 31 8 49q-90 -4 -149 -63.5t-59 -149.5zM92 727q0 37 34 67.5t71 30.5q23 0 40 -18.5t17 -40.5q0 -33 -38 -61.5t-71 -28.5q-23 0 -38 14t-15 37zM360 399q0 -59 74 -108q2 12 2 35q0 27 -19.5 66.5 t-41.5 39.5q-15 0 -15 -33zM397 737q0 29 32 56.5t58 27.5q31 0 56.5 -14t25.5 -43t-35.5 -56.5t-66.5 -27.5q-29 0 -49.5 15t-20.5 42z" />
<glyph unicode="&#xf7;" d="M72 383v68q0 16 16 16h629q16 0 16 -16v-68q0 -16 -16 -16h-629q-16 0 -16 16zM303 160q0 31 28.5 67.5t57.5 36.5q14 0 21 -4q20 4 26 4q27 0 46.5 -16.5t19.5 -42.5q0 -39 -45 -75t-86 -36q-29 0 -48.5 18.5t-19.5 47.5zM305 635q0 31 28.5 67.5t57.5 36.5q14 0 21 -4 q20 4 26 4q27 0 46.5 -16t19.5 -43q0 -39 -45 -75t-86 -36q-29 0 -48.5 18.5t-19.5 47.5z" />
<glyph unicode="&#xf8;" horiz-adv-x="694" d="M-82 -143q0 37 109 186q-76 76 -76 182q0 131 105.5 223.5t238.5 92.5q53 0 88 -11q8 12 32.5 58.5t48 75t50.5 28.5q23 0 38 -14t15 -35q0 -25 -92 -158q68 -55 68 -168q0 -27 -6 -53q47 0 81.5 23.5t57 46t37.5 22.5q16 0 28.5 -11t12.5 -28q0 -70 -91.5 -112.5 t-162.5 -34.5q-43 -82 -133.5 -135t-182.5 -53q-41 0 -78 12q-12 -16 -34.5 -67.5t-48 -83t-58.5 -31.5q-20 0 -33.5 12.5t-13.5 32.5zM68 231q0 -49 26 -96q57 80 176 236q-2 8 -2 24q0 29 8 51q-90 -6 -149 -65.5t-59 -149.5zM168 80q18 -6 37 -6q53 0 106.5 39t85.5 90 q-49 29 -84 71q-77 -100 -145 -194zM379 360q8 -35 53 -65q2 8 2 27q0 47 -33 71z" />
<glyph unicode="&#xf9;" horiz-adv-x="747" d="M-45 201q0 59 24.5 150t55.5 143q20 31 57 30q23 0 38 -15t15 -38q0 -18 -42 -105t-42 -159q0 -100 62 -101q45 0 99 45.5t91 94.5q2 72 34 161t87 89q27 0 42.5 -22.5t15.5 -51.5q0 -45 -31 -102.5t-35 -69.5q18 -115 94 -115q43 0 83 34t64.5 74t52.5 73.5t50 33.5 q16 0 29.5 -13t13.5 -30q0 -12 -6 -22q-39 -86 -126 -173t-165 -87q-53 0 -101 30.5t-73 79.5q-147 -133 -240 -133q-78 0 -112.5 57.5t-34.5 141.5zM49 803q0 23 13.5 39t35.5 16q16 0 57.5 -33.5t93.5 -85t56 -53.5q31 -27 31 -53q0 -20 -13.5 -32.5t-33.5 -12.5 q-16 0 -59.5 33.5t-95.5 80t-60 52.5q-25 20 -25 49z" />
<glyph unicode="&#xfa;" horiz-adv-x="747" d="M-45 201q0 59 24.5 150t55.5 143q20 31 57 30q23 0 38 -15t15 -38q0 -18 -42 -105t-42 -159q0 -100 62 -101q45 0 99 45.5t91 94.5q2 72 34 161t87 89q27 0 42.5 -22.5t15.5 -51.5q0 -45 -31 -102.5t-35 -69.5q18 -115 94 -115q43 0 83 34t64.5 74t52.5 73.5t50 33.5 q16 0 29.5 -13t13.5 -30q0 -12 -6 -22q-39 -86 -126 -173t-165 -87q-53 0 -101 30.5t-73 79.5q-147 -133 -240 -133q-78 0 -112.5 57.5t-34.5 141.5zM209 641q0 33 37 59q197 141 221 142q23 0 35 -16.5t12 -39.5q0 -39 -29 -55q-4 -4 -63.5 -44t-104.5 -65.5t-63 -25.5 t-31.5 13.5t-13.5 31.5z" />
<glyph unicode="&#xfb;" horiz-adv-x="747" d="M-45 201q0 59 24.5 150t55.5 143q20 31 57 30q23 0 38 -15t15 -38q0 -18 -42 -105t-42 -159q0 -100 62 -101q45 0 99 45.5t91 94.5q2 72 34 161t87 89q27 0 42.5 -22.5t15.5 -51.5q0 -45 -31 -102.5t-35 -69.5q18 -115 94 -115q43 0 83 34t64.5 74t52.5 73.5t50 33.5 q16 0 29.5 -13t13.5 -30q0 -12 -6 -22q-39 -86 -126 -173t-165 -87q-53 0 -101 30.5t-73 79.5q-147 -133 -240 -133q-78 0 -112.5 57.5t-34.5 141.5zM59 664q0 33 100.5 104.5t135.5 71.5q12 0 30.5 -9.5t42 -28t39 -32.5t40 -35.5t26.5 -23.5q33 -25 33 -58 q0 -18 -12.5 -30.5t-30.5 -12.5q-16 0 -51 23.5t-75 56.5t-50 39q-2 -2 -50.5 -33.5t-84 -51t-52 -19.5t-29 11.5t-12.5 27.5z" />
<glyph unicode="&#xfc;" horiz-adv-x="747" d="M-45 201q0 59 24.5 150t55.5 143q20 31 57 30q23 0 38 -15t15 -38q0 -18 -42 -105t-42 -159q0 -100 62 -101q45 0 99 45.5t91 94.5q2 72 34 161t87 89q27 0 42.5 -22.5t15.5 -51.5q0 -45 -31 -102.5t-35 -69.5q18 -115 94 -115q43 0 83 34t64.5 74t52.5 73.5t50 33.5 q16 0 29.5 -13t13.5 -30q0 -12 -6 -22q-39 -86 -126 -173t-165 -87q-53 0 -101 30.5t-73 79.5q-147 -133 -240 -133q-78 0 -112.5 57.5t-34.5 141.5zM104 721q0 37 34 67.5t71 30.5q23 0 40 -18.5t17 -40.5q0 -33 -38 -61.5t-70 -28.5q-23 0 -38.5 14t-15.5 37zM410 731 q0 29 31.5 56.5t58.5 27.5q31 0 56.5 -14.5t25.5 -43t-36 -56t-67 -27.5q-29 0 -49 15t-20 42z" />
<glyph unicode="&#xfd;" horiz-adv-x="702" d="M-117 -440q0 76 43 153.5t115 142t137.5 110.5t138.5 89q-4 10 -14 47q-131 -106 -240 -106q-61 0 -103 39t-42 100q0 78 60.5 216t123.5 138q20 0 32.5 -13t12.5 -34q0 -39 -32 -51q-88 -139 -88 -231q0 -57 63 -58q51 0 106.5 36t88.5 83v39q0 78 28.5 170t87.5 92 q53 0 54 -90q0 -51 -26 -121.5t-26 -105.5q0 -37 15 -86q186 113 254 221q18 31 45 31q43 0 43 -49q0 -55 -111.5 -150.5t-202.5 -151.5q84 -248 84 -411q0 -301 -319 -301q-135 0 -231.5 61.5t-96.5 190.5zM-4 -438q0 -158 242 -158q100 0 145 41t45 141q0 139 -82 377 q-133 -76 -241.5 -181t-108.5 -220zM176 639q0 33 37 59q197 141 221 142q23 0 35 -16.5t12 -39.5q0 -39 -28 -55q-4 -4 -63.5 -44t-104.5 -65.5t-63.5 -25.5t-32 13.5t-13.5 31.5z" />
<glyph unicode="&#xfe;" horiz-adv-x="675" d="M-162 -184q0 264 131 501q2 70 10.5 171.5t37 262t71.5 265.5q74 186 184 186q100 0 101 -162q0 -227 -166 -491q33 12 59 18q31 6 64 6q127 0 191.5 -106.5t19.5 -224.5q16 6 36.5 21.5t47.5 41.5l34 35q27 20 50.5 12t23.5 -38.5t-53 -84.5q-117 -117 -284 -149.5 t-308 37.5v-116v-107v-93q0 -55 -1 -84.5t-3 -70.5t-5 -63.5t-8 -48.5t-11.5 -42t-14.5 -29q-20 -33 -61 -27.5t-72 56.5q-37 61 -55.5 161t-18.5 163zM-61 -150q0 -170 41 -262q8 35 16 275q8 281 0 305q-23 -49 -41 -158q-16 -99 -16 -160zM86 543q100 137 160 309 q51 158 12 240q-57 -51 -111 -238q-36 -139 -61 -311zM88 269q2 -36 8 -42q61 -55 158 -55q80 0 134 28.5t54 86.5q0 76 -36.5 126t-100.5 50q-57 0 -135 -45t-82 -101q-2 -12 0 -48z" />
<glyph unicode="&#xff;" horiz-adv-x="702" d="M-117 -440q0 76 43 153.5t115 142t137.5 110.5t138.5 89q-4 10 -14 47q-131 -106 -240 -106q-61 0 -103 39t-42 100q0 78 60.5 216t123.5 138q20 0 32.5 -13t12.5 -34q0 -39 -32 -51q-88 -139 -88 -231q0 -57 63 -58q51 0 106.5 36t88.5 83v39q0 78 28.5 170t87.5 92 q53 0 54 -90q0 -51 -26 -121.5t-26 -105.5q0 -37 15 -86q186 113 254 221q18 31 45 31q43 0 43 -49q0 -55 -111.5 -150.5t-202.5 -151.5q84 -248 84 -411q0 -301 -319 -301q-135 0 -231.5 61.5t-96.5 190.5zM-4 -438q0 -158 242 -158q100 0 145 41t45 141q0 139 -82 377 q-133 -76 -241.5 -181t-108.5 -220zM51 717q0 37 34 67.5t71 30.5q23 0 40 -18.5t17 -40.5q0 -33 -38 -61.5t-71 -28.5q-23 0 -38 14t-15 37zM356 727q0 29 32 56.5t58 27.5q31 0 56.5 -14.5t25.5 -43t-35.5 -56t-66.5 -27.5q-29 0 -49.5 15t-20.5 42z" />
<glyph unicode="&#x152;" horiz-adv-x="2402" d="M-27 504q0 170 103 340q-8 10 -8 26q0 27 30 58q96 106 278.5 171.5t340.5 65.5q215 0 375 -112q98 61 247 92q123 23 265 22q193 0 369.5 -54t273.5 -181q16 -25 16 -43q0 -37 -38 -56.5t-77 -19.5q-70 0 -69 47q0 25 20 35q-59 92 -206.5 130t-295.5 38 q-256 0 -417 -88q117 -115 131 -299q113 -41 243 -64q43 10 84 13q41 6 84 6q166 0 166 -76q0 -29 -22.5 -44t-50.5 -15q-33 0 -94.5 6t-94.5 6q-168 0 -356 -92q-47 -150 -201 -277q49 -45 173 -66.5t224 -21.5q344 0 775 164q16 4 22 4q45 0 45 -43q0 -63 -192.5 -117.5 t-385 -80t-276.5 -25.5q-395 0 -493 106q-96 -55 -191 -82q-111 -27 -207 -26q-236 0 -413 160t-177 393zM78 522q0 -211 156.5 -336t371.5 -125q178 0 314 91v14q-10 164 268 317q25 70 22 109v16q-252 106 -252 256q0 63 50 119q-47 29 -113 44t-109 17.5t-120 2.5 q-225 0 -406.5 -152t-181.5 -373zM1071 870q0 -70 133 -151q-31 113 -117 203q-16 -23 -16 -52zM1309 535q12 6 36.5 14t36.5 14q-10 2 -32.5 8.5t-34.5 8.5z" />
<glyph unicode="&#x153;" horiz-adv-x="966" d="M-49 225q0 133 104.5 224.5t239.5 91.5q154 0 217 -107q76 111 180 111q51 0 82 -38t31 -91q0 -92 -75 -165t-169 -79q29 -100 119 -100q53 0 104.5 31.5t79 62.5t68.5 86q16 23 37 22q18 0 30.5 -14t12.5 -33q0 -14 -6 -22q-45 -94 -142.5 -168t-193.5 -74 q-70 0 -126.5 42t-80.5 110q-53 -59 -128 -96t-151 -37q-100 0 -166.5 71.5t-66.5 171.5zM68 231q0 -61 36.5 -108t96.5 -47q53 0 109.5 38t86.5 89q-55 31 -92 83t-37 109q0 23 6 43q-92 -8 -149 -62.5t-57 -144.5zM375 379q0 -47 57 -84q2 8 2 27q0 20 -14 50.5t-33 30.5 q-12 1 -12 -24zM557 268q57 4 101 43t44 95q0 27 -14 38l-4 2h-4q-53 0 -86 -58.5t-37 -119.5z" />
<glyph unicode="&#x178;" horiz-adv-x="1165" d="M8 416q0 152 93.5 368.5t201.5 343.5q27 31 59 31q53 0 54 -55q0 -41 -32 -95.5t-71 -52.5q-82 -119 -142 -258t-60 -252q0 -86 47 -138t133 -52q139 0 289.5 124t232.5 267q10 16 27.5 121.5t50.5 189.5t88 84q29 0 44 -19t15 -48q0 -111 -57 -238q-41 -88 -41 -90 q-4 -14 -4 -96q0 -57 20 -354q125 150 172 149q20 0 40 -13.5t20 -33.5q0 -63 -60 -66q-53 -37 -163 -186q2 -66 2 -197q0 -516 -209 -516q-78 0 -118 60.5t-40 140.5q0 209 256 535q-2 74 -15.5 213t-15.5 202q-113 -133 -264 -232t-293 -99q-121 0 -190.5 70.5 t-69.5 191.5zM485 1296q0 37 34 68t71 31q23 0 40 -18.5t17 -41.5q0 -33 -38 -61.5t-70 -28.5q-23 0 -38.5 14t-15.5 37zM707 -465q0 -37 13 -72.5t44 -35.5q100 0 100 401l-2 78q-155 -221 -155 -371zM791 1307q0 29 31.5 56.5t58.5 27.5q31 0 56.5 -14.5t25.5 -43 t-36 -56.5t-67 -28q-29 0 -49 15.5t-20 42.5z" />
<glyph unicode="&#x2c6;" horiz-adv-x="512" d="M74 702q0 33 100 105t135 72q12 0 30.5 -9.5t42.5 -28t39 -32.5t39.5 -35.5t26.5 -23.5q33 -25 33 -58q0 -18 -12 -30.5t-31 -12.5q-16 0 -51 23.5t-75 56.5t-50 39q-2 -2 -50 -34t-84 -51t-52.5 -19t-28.5 11t-12 27z" />
<glyph unicode="&#x2dc;" horiz-adv-x="512" d="M90 731q0 37 58.5 81t97.5 44q41 0 116 -72q4 4 22.5 20.5t31 27t29 19.5t26.5 9q20 0 37.5 -14.5t17.5 -34.5q0 -37 -61.5 -87t-99.5 -50q-10 0 -20.5 2t-22 8t-17.5 9t-18.5 13.5t-16.5 13.5t-16 15l-14 15q-4 -4 -21.5 -18.5t-28 -22t-25.5 -15.5t-28 -8 q-18 0 -32.5 13.5t-14.5 31.5z" />
<glyph unicode="&#x2000;" horiz-adv-x="886" />
<glyph unicode="&#x2001;" horiz-adv-x="1775" />
<glyph unicode="&#x2002;" horiz-adv-x="886" />
<glyph unicode="&#x2003;" horiz-adv-x="1775" />
<glyph unicode="&#x2004;" horiz-adv-x="591" />
<glyph unicode="&#x2005;" horiz-adv-x="442" />
<glyph unicode="&#x2006;" horiz-adv-x="294" />
<glyph unicode="&#x2007;" horiz-adv-x="294" />
<glyph unicode="&#x2008;" horiz-adv-x="221" />
<glyph unicode="&#x2009;" horiz-adv-x="354" />
<glyph unicode="&#x200a;" horiz-adv-x="98" />
<glyph unicode="&#x2010;" horiz-adv-x="604" d="M84 328q0 29 19.5 53.5t46.5 24.5q31 0 45 -27q8 -2 24 -2q35 0 106.5 7t106.5 7q104 0 105 -55q0 -57 -62 -57q-12 0 -40.5 4t-41.5 4q-35 0 -103.5 -8.5t-105.5 -8.5q-100 1 -100 58z" />
<glyph unicode="&#x2011;" horiz-adv-x="604" d="M84 328q0 29 19.5 53.5t46.5 24.5q31 0 45 -27q8 -2 24 -2q35 0 106.5 7t106.5 7q104 0 105 -55q0 -57 -62 -57q-12 0 -40.5 4t-41.5 4q-35 0 -103.5 -8.5t-105.5 -8.5q-100 1 -100 58z" />
<glyph unicode="&#x2012;" horiz-adv-x="604" d="M84 328q0 29 19.5 53.5t46.5 24.5q31 0 45 -27q8 -2 24 -2q35 0 106.5 7t106.5 7q104 0 105 -55q0 -57 -62 -57q-12 0 -40.5 4t-41.5 4q-35 0 -103.5 -8.5t-105.5 -8.5q-100 1 -100 58z" />
<glyph unicode="&#x2013;" horiz-adv-x="907" d="M82 362q0 23 13.5 39.5t35.5 16.5q14 0 31 -10q45 -25 155 -25q61 0 187.5 9t189.5 9q143 0 144 -71q0 -20 -15.5 -35.5t-36.5 -15.5q-8 0 -20 4q-45 18 -129 18q-63 0 -192.5 -8t-194.5 -8q-168 -1 -168 77z" />
<glyph unicode="&#x2014;" horiz-adv-x="1230" d="M102 365q0 23 16.5 39t39.5 16q12 0 32 -8q70 -27 232 -27q92 0 279.5 9t281.5 9q166 0 166 -69q0 -25 -17.5 -39t-41.5 -14q-6 0 -23 4q-70 18 -188 18q-82 0 -246 -8t-246 -8q-164 0 -237 16q-48 13 -48 62z" />
<glyph unicode="&#x2018;" horiz-adv-x="167" d="M8 961.5q0 23.5 3 54.5t3 41t-2 30.5t-2 30.5q0 53 47 53q59 0 60 -127q0 -8 -2 -20t-2 -20q0 -4 1 -30t0 -41t-4.5 -35.5t-15.5 -32t-33 -11.5q-23 0 -36 15.5t-15 42t-2 50z" />
<glyph unicode="&#x2019;" horiz-adv-x="167" d="M-2 905q0 29 7 64t23.5 87t18.5 62q16 51 61.5 51t45.5 -49q0 -43 -58 -215q-12 -57 -53 -57q-45 0 -45 57z" />
<glyph unicode="&#x201a;" horiz-adv-x="235" d="M-14 -109q0 29 10 72t29.5 104.5t23.5 73.5q14 49 62 49q18 0 31.5 -14t13.5 -33q0 -23 -38 -147.5t-50 -140.5q-14 -20 -37 -21q-45 0 -45 57z" />
<glyph unicode="&#x201c;" horiz-adv-x="327" d="M-10 961.5q0 23.5 3 54.5t3 41t-2 30.5t-2 30.5q0 53 47 53q59 0 59 -127q0 -8 -2 -20t-2 -20q0 -4 1 -30t0 -41t-4 -35.5t-15.5 -32t-32.5 -11.5q-23 0 -36 15.5t-15 42t-2 50zM182 1118q0 53 45 53q43 0 58.5 -59t3.5 -102q6 -31 6 -99q0 -23 -13.5 -40t-36 -17 t-35.5 13.5t-18.5 40t-6.5 47t1 53t2 39.5q0 12 -3 35.5t-3 35.5z" />
<glyph unicode="&#x201d;" horiz-adv-x="327" d="M-27 905q0 29 7.5 64t23.5 87t19 62q16 51 61 51t45 -47q0 -27 -57 -217q-12 -57 -54 -57q-45 0 -45 57zM172 899q0 20 11.5 61t27.5 93.5t20 64.5q6 20 24.5 34.5t39.5 14.5q43 0 43 -47q0 -43 -66 -217q-18 -53 -55 -53q-45 0 -45 49z" />
<glyph unicode="&#x201e;" horiz-adv-x="495" d="M14 -109q0 29 10.5 72t30 104.5t23.5 73.5q14 49 61 49q18 0 31.5 -14t13.5 -33q0 -23 -37.5 -147.5t-50.5 -140.5q-14 -20 -37 -21q-45 0 -45 57zM219 -113q0 18 11.5 64.5t28.5 108t20 67.5q14 47 63 47q45 0 45 -45q0 -31 -70 -240q-18 -53 -57 -53q-41 0 -41 51z" />
<glyph unicode="&#x2022;" horiz-adv-x="456" d="M53 406q0 55 52.5 95t107.5 40q57 0 102 -42t45 -98q0 -57 -46 -108t-103 -51q-61 0 -109.5 51.5t-48.5 112.5z" />
<glyph unicode="&#x2026;" horiz-adv-x="1191" d="M59 29q0 33 31 72.5t62 39.5q12 0 22 -6q20 4 31 4q29 0 48 -17.5t19 -45.5q0 -43 -48 -81t-91 -38q-31 0 -52.5 20.5t-21.5 51.5zM475 31q0 33 31 72.5t61 39.5q14 0 23 -6q20 4 31 4q29 0 48 -17.5t19 -45.5q0 -43 -48 -81t-91 -38q-31 0 -52.5 20.5t-21.5 51.5z M891 29q0 33 30.5 72.5t61.5 39.5q12 0 23 -6q20 4 30 4q29 0 48.5 -17.5t19.5 -45.5q0 -43 -48 -81t-91 -38q-31 0 -52.5 20.5t-21.5 51.5z" />
<glyph unicode="&#x202f;" horiz-adv-x="354" />
<glyph unicode="&#x2039;" horiz-adv-x="460" d="M25 299q0 27 20 53q193 225 244 226q18 0 30.5 -13.5t12.5 -32.5q0 -39 -178 -237q6 -8 36.5 -52t55 -80t46 -73t21.5 -49q0 -43 -41 -43q-37 0 -142 130t-105 171z" />
<glyph unicode="&#x203a;" horiz-adv-x="460" d="M33 47q0 25 22 55q27 31 78 91.5t78 91.5q-160 227 -160 254q0 16 11.5 28.5t27.5 12.5q37 0 143.5 -130.5t106.5 -170.5q0 -35 -114.5 -156t-149.5 -121q-18 0 -30.5 13.5t-12.5 31.5z" />
<glyph unicode="&#x205f;" horiz-adv-x="442" />
<glyph unicode="&#x20ac;" horiz-adv-x="948" d="M-82 408q0 18 27.5 38.5t46.5 20.5q8 0 28 -8q35 -23 125 -27v8q0 47 9 82q-70 4 -119 15q-45 10 -45 63q0 20 13 38.5t40 18.5q8 0 29 -8q37 -25 114 -26q53 115 154 196q123 96 238 96q4 0 22 1.5t31 1.5q45 0 69 -11q23 10 43 0q18 -10 31 -45q6 -6 25.5 -23.5 t27 -24.5t18.5 -22.5t17 -31t10 -33.5q4 -25 -14 -40t-47 -10t-49 30l-6 6q-29 18 -44.5 31.5t-17.5 18.5t-3 9t-9 8t-31 15q-18 10 -47 10q-10 0 -30.5 -1t-28.5 -1q-61 0 -137 -62q-63 -53 -99 -116q27 2 77 5t75 3q74 6 141 6q131 0 156 -41q8 -14 8 -33q0 -27 -23.5 -42 t-52.5 -5q-41 16 -137 17q-51 0 -156.5 -6.5t-122.5 -6.5q-4 -18 -4 -55q0 -23 2 -33q31 2 129.5 8.5t147.5 6.5q131 0 156 -41q8 -14 8 -33q0 -27 -22.5 -42.5t-51.5 -4.5q-41 16 -137 16q-61 0 -197 -8q37 -63 104.5 -100t147.5 -37q96 0 156.5 26.5t122.5 85.5 q35 33 67.5 3.5t1.5 -64.5q-72 -80 -153.5 -120t-223.5 -40q-123 0 -225 65.5t-139 174.5h-4q-104 0 -176 16q-16 4 -41 25t-25 37z" />
<glyph unicode="&#x2122;" horiz-adv-x="1245" d="M57 1030v103q0 16 17 16h362q16 0 17 -16v-103q0 -16 -29 -16q-12 0 -21.5 30.5t-21.5 38.5q-23 14 -55 15q-14 0 -21 -2v-342q0 -23 41 -23q14 0 14 -26q0 -16 -16 -17h-182q-16 0 -17 27q0 14 29 16t29 23v342q-8 2 -23 2q-33 0 -50 -13.5t-21.5 -29t-12.5 -28.5 t-22 -13q-17 0 -17 16zM510 1133q0 16 16 16h125l15 -10l137 -301l143 301l15 10h120q16 0 17 -29q0 -14 -30 -17t-30 -24v-325q8 -18 12.5 -20.5t24.5 -2.5q18 0 19 -26q0 -16 -17 -17h-174q-16 0 -16 27q0 16 26.5 16t26.5 23v231l-135 -293l-14 -10h-13l-14 10l-139 295 v-233q0 -16 8 -20.5t18.5 -2.5t18.5 -3t8 -23q0 -16 -16 -17h-130q-16 0 -16 27q0 14 26.5 16t26.5 23v325q0 16 -9 21.5t-20.5 2.5t-20.5 4.5t-9 25.5z" />
<glyph unicode="&#xe000;" horiz-adv-x="555" d="M0 555h555v-555h-555v555z" />
<glyph unicode="&#xfb01;" horiz-adv-x="929" d="M-88 301q0 63 76 94q6 82 28.5 197t63.5 250t108.5 227t147.5 92q63 0 96 -44t33 -109q0 -197 -289 -596q168 -16 264 -160q59 23 113 80q0 4 2 20.5t3 25.5t3 25.5t6 27.5t8.5 26.5t10.5 25t14 18.5t18.5 13t22.5 4q23 0 36 -15.5t13 -37.5q0 -27 -19.5 -117t-19.5 -137 q0 -92 51 -92q16 0 35 8t37.5 24.5t32.5 33t31.5 42t26.5 40t23.5 39t18.5 30.5q20 29 45 29q18 0 30.5 -12.5t12.5 -30.5q0 -80 -116.5 -194t-198.5 -114q-133 0 -137 183q-29 -20 -66 -37q14 -57 15 -103q0 -121 -71 -220t-188 -99q-256 0 -262 471q-59 39 -59 92zM55 303 q2 -8 2 -24q113 -63 242 -58h37q-80 90 -213 90q-54 0 -68 -8zM74 166q16 -322 192 -322q59 0 91 70t32 135q0 49 -14 86q-47 -6 -90 -6q-96 0 -211 37zM96 479q92 119 180.5 273.5t88.5 253.5q0 51 -33 51q-14 0 -35 -17q-76 -61 -128.5 -235t-72.5 -326zM588 651 q0 51 28.5 98.5t77.5 47.5q33 0 51.5 -26t18.5 -60q0 -47 -32 -84t-77 -37q-29 0 -48 16t-19 45z" />
<glyph unicode="&#xfb02;" horiz-adv-x="980" d="M-88 301q0 63 76 94q6 82 28.5 197t63.5 250t108.5 227t147.5 92q63 0 96 -44t33 -109q0 -197 -289 -596q168 -16 264 -160q51 20 105 72q-2 23 -2 71q0 66 16 175.5t46 233.5t86.5 212t123.5 88q53 0 82 -47t29 -105q0 -143 -82 -322t-187 -311q39 -195 129 -194 q57 0 95.5 57.5t64 114.5t51.5 57q39 0 39 -43q0 -96 -87 -194.5t-183 -98.5q-78 0 -129 55.5t-74 137.5q-37 -29 -86 -51q14 -57 15 -103q0 -121 -71 -220t-188 -99q-256 0 -262 471q-59 39 -59 92zM66 283q78 -57 217 -58q31 0 47 4q-74 80 -191 80q-71 1 -73 -26zM74 166 q16 -322 192 -322q59 0 91 70t32 135q0 49 -14 86q-47 -6 -90 -6q-96 0 -211 37zM96 479q92 119 180.5 273.5t88.5 253.5q0 51 -33 51q-14 0 -35 -17q-76 -61 -128.5 -235t-72.5 -326zM651 479q66 104 121 233.5t55 219.5q0 57 -22 57q-2 0 -14 -6q-66 -61 -101 -216 t-39 -288z" />
<glyph unicode="&#xfb03;" horiz-adv-x="1509" d="M1122 205q0 39 3 79t11.5 99t30 97t53.5 38q23 0 36 -15.5t13 -37.5q0 -27 -19 -117t-19 -137q0 -92 51 -92q86 0 205 217q20 29 45 29q18 0 30.5 -12.5t12.5 -30.5q0 -53 -65.5 -136.5t-123.5 -128.5q-59 -43 -127 -43q-137 1 -137 191zM1183 672q0 51 29 98t78 47 q33 0 51.5 -25.5t18.5 -60.5q0 -47 -32 -84t-77 -37q-29 0 -48.5 16.5t-19.5 45.5zM494 301q0 63 76 94q6 82 28.5 197t63.5 250t108.5 227t147.5 92q63 0 96 -44t33 -109q0 -197 -289 -596q168 -16 264 -160q23 8 87.5 63.5t78.5 55.5q18 0 31.5 -13.5t13.5 -31.5 q0 -39 -61.5 -91.5t-112.5 -74.5q14 -57 15 -103q0 -121 -71 -220t-188 -99q-256 0 -262 471q-59 39 -59 92zM656 166q16 -322 192 -322q59 0 91 70t32 135q0 49 -14 86q-47 -6 -90 -6q-96 0 -211 37zM662 281l6 -5q91 -49 195 -49h16l33 2q-113 76 -193 76q-55 1 -57 -24z M678 479q92 119 180.5 273.5t88.5 253.5q0 51 -33 51q-14 0 -35 -17q-76 -61 -128.5 -235t-72.5 -326zM-88 301q0 63 76 94q6 82 28.5 197t63.5 250t108.5 227t147.5 92q63 0 96 -44t33 -109q0 -197 -289 -596q168 -16 264 -160q23 8 87.5 63.5t78.5 55.5q18 0 31.5 -13.5 t13.5 -31.5q0 -39 -61.5 -91.5t-112.5 -74.5q14 -57 15 -103q0 -121 -71 -220t-188 -99q-256 0 -262 471q-59 39 -59 92zM74 166q16 -322 192 -322q59 0 91 70t32 135q0 49 -14 86q-47 -6 -90 -6q-96 0 -211 37zM80 281l6 -5q91 -49 195 -49h16l33 2q-113 76 -193 76 q-55 1 -57 -24zM96 479q92 119 180.5 273.5t88.5 253.5q0 51 -33 51q-14 0 -35 -17q-76 -61 -128.5 -235t-72.5 -326z" />
<glyph unicode="&#xfb04;" horiz-adv-x="1570" d="M1132 395q0 66 16.5 175.5t46 233.5t86 212t124.5 88q53 0 81.5 -47t28.5 -105q0 -143 -79.5 -319t-188.5 -314q41 -195 129 -194q41 0 75 36t51 79t39.5 78.5t45.5 35.5q41 0 41 -47q0 -94 -88 -191.5t-184 -97.5q-86 0 -139.5 68t-69 145.5t-15.5 163.5zM1241 479 q66 104 121 233.5t55 219.5q0 43 -18 61q-6 -2 -19 -10q-66 -61 -100.5 -216t-38.5 -288zM494 301q0 63 76 94q6 82 28.5 197t63.5 250t108.5 227t147.5 92q63 0 96 -44t33 -109q0 -197 -289 -596q168 -16 264 -160q23 8 87.5 63.5t78.5 55.5q18 0 31.5 -13.5t13.5 -31.5 q0 -39 -61.5 -91.5t-112.5 -74.5q14 -57 15 -103q0 -121 -71 -220t-188 -99q-256 0 -262 471q-59 39 -59 92zM656 166q16 -322 192 -322q59 0 91 70t32 135q0 49 -14 86q-47 -6 -90 -6q-96 0 -211 37zM662 281l6 -5q91 -49 195 -49h16l33 2q-113 76 -193 76q-55 1 -57 -24z M678 479q92 119 180.5 273.5t88.5 253.5q0 51 -33 51q-14 0 -35 -17q-76 -61 -128.5 -235t-72.5 -326zM-88 301q0 63 76 94q6 82 28.5 197t63.5 250t108.5 227t147.5 92q63 0 96 -44t33 -109q0 -197 -289 -596q168 -16 264 -160q23 8 87.5 63.5t78.5 55.5q18 0 31.5 -13.5 t13.5 -31.5q0 -39 -61.5 -91.5t-112.5 -74.5q14 -57 15 -103q0 -121 -71 -220t-188 -99q-256 0 -262 471q-59 39 -59 92zM74 166q16 -322 192 -322q59 0 91 70t32 135q0 49 -14 86q-47 -6 -90 -6q-96 0 -211 37zM80 281l6 -5q91 -49 195 -49h16l33 2q-113 76 -193 76 q-55 1 -57 -24zM96 479q92 119 180.5 273.5t88.5 253.5q0 51 -33 51q-14 0 -35 -17q-76 -61 -128.5 -235t-72.5 -326z" />
</font>
</defs>
</svg>
